<svg width="19" height="25" viewBox="0 0 19 25" fill="none" xmlns="http://www.w3.org/2000/svg">
<path fill-rule="evenodd" clip-rule="evenodd" d="M8.72559 0.170679C9.018 -0.00787166 9.37768 -0.049795 9.70703 0.0613045C10.0833 0.188399 10.3694 0.498258 10.4658 0.88357C11.1871 3.76875 12.6149 6.07746 14.7471 7.85427C17.2602 9.94855 18.667 12.3889 18.667 15.1668C18.6669 17.642 17.6838 20.0161 15.9336 21.7664C14.1834 23.5165 11.8091 24.4997 9.33398 24.4998C6.85882 24.4997 4.48462 23.5165 2.73438 21.7664C1.09353 20.1255 0.126226 17.9364 0.0117188 15.6297L0 15.1668C0 13.6523 0.491782 12.1782 1.40039 10.9666C1.7016 10.5651 2.22595 10.4018 2.70215 10.5603C3.17855 10.7191 3.5 11.1646 3.5 11.6668C3.50006 12.1307 3.68469 12.576 4.0127 12.9041C4.34073 13.2321 4.78611 13.4166 5.25 13.4168C5.71392 13.4168 6.15916 13.232 6.4873 12.9041C6.81544 12.5759 6.99994 12.1308 7 11.6668C7 10.8083 6.69243 10.161 6.24805 9.27224C5.81753 8.41121 5.25014 7.3083 5.25 5.83377C5.25 3.75544 6.54941 1.89983 8.60449 0.25564L8.72559 0.170679ZM8.76855 3.28494C7.91329 4.24529 7.58398 5.09658 7.58398 5.83377C7.58412 6.692 7.8916 7.33963 8.33594 8.2283C8.7665 9.08941 9.33398 10.1921 9.33398 11.6668C9.33392 12.7497 8.90341 13.7887 8.1377 14.5545C7.37196 15.32 6.33276 15.7498 5.25 15.7498C4.17203 15.7496 3.13768 15.3236 2.37305 14.5642C2.34716 14.7631 2.33398 14.9645 2.33398 15.1668L2.3418 15.5135C2.42757 17.2437 3.15305 18.8862 4.38379 20.117C5.69645 21.4295 7.47766 22.1667 9.33398 22.1668C11.1901 22.1667 12.9706 21.4293 14.2832 20.117C15.514 18.8862 16.2394 17.2437 16.3252 15.5135L16.334 15.1668C16.334 13.2781 15.4072 11.4408 13.2539 9.64627C11.2004 7.93496 9.70553 5.80619 8.76855 3.28494Z" fill="#016A7C"/>
</svg>
