<svg width="25" height="25" viewBox="0 0 25 25" fill="none" xmlns="http://www.w3.org/2000/svg">
<path fill-rule="evenodd" clip-rule="evenodd" d="M18.667 7C20.214 7 21.698 7.61512 22.792 8.70898C23.8858 9.80285 24.4999 11.2871 24.5 12.834C24.4999 14.3807 23.8856 15.8642 22.792 16.958C21.7664 17.9836 20.3979 18.5887 18.9561 18.6602L18.667 18.667L18.6602 18.9561C18.5887 20.3978 17.9835 21.7664 16.958 22.792C15.8642 23.8857 14.3808 24.4999 12.834 24.5H5.83398C4.28696 24.5 2.80293 23.8859 1.70898 22.792C0.615124 21.698 0 20.214 0 18.667V9.33398C8.61698e-05 8.71526 0.246086 8.1211 0.683594 7.68359C1.12116 7.24611 1.71522 7 2.33398 7H18.667ZM2.33398 18.667C2.33398 19.595 2.70233 20.4853 3.3584 21.1416C4.01478 21.798 4.90573 22.167 5.83398 22.167H12.834C13.7621 22.1669 14.6523 21.7979 15.3086 21.1416C15.9648 20.4853 16.334 19.5951 16.334 18.667V9.33398H2.33398V18.667ZM18.667 16.334L18.8408 16.3291C19.7057 16.2861 20.5263 15.9238 21.1416 15.3086C21.7978 14.6523 22.1669 13.762 22.167 12.834C22.1669 11.9058 21.7979 11.0147 21.1416 10.3584C20.5264 9.7434 19.7056 9.38086 18.8408 9.33789L18.667 9.33398V16.334Z" fill="#016A7C"/>
<path d="M4.66699 0C5.31122 0 5.83381 0.522809 5.83398 1.16699V3.5C5.83398 4.14433 5.31132 4.66699 4.66699 4.66699C4.02266 4.66699 3.5 4.14433 3.5 3.5V1.16699C3.50018 0.522809 4.02277 0 4.66699 0Z" fill="#016A7C"/>
<path d="M9.33398 0C9.97806 0.000175749 10.5008 0.522918 10.501 1.16699V3.5C10.501 4.14422 9.97817 4.66682 9.33398 4.66699C8.68965 4.66699 8.16699 4.14433 8.16699 3.5V1.16699C8.16717 0.522809 8.68976 0 9.33398 0Z" fill="#016A7C"/>
<path d="M14 0C14.6442 0 15.1668 0.522809 15.167 1.16699V3.5C15.167 4.14433 14.6443 4.66699 14 4.66699C13.3558 4.66682 12.833 4.14422 12.833 3.5V1.16699C12.8332 0.522918 13.3559 0.000176265 14 0Z" fill="#016A7C"/>
</svg>
