<svg width="25" height="25" viewBox="0 0 25 25" fill="none" xmlns="http://www.w3.org/2000/svg">
<path fill-rule="evenodd" clip-rule="evenodd" d="M18.2155 0.130674C20.065 -0.37374 22.0125 0.621527 22.5573 2.43731L23.488 5.46271C23.5798 5.76137 23.5475 6.08516 23.3991 6.36017C23.2507 6.63478 22.9986 6.83933 22.6989 6.92657L17.4831 8.4422C17.3098 8.54499 17.1184 8.59749 16.9265 8.60333L10.4978 10.4725H23.3064C23.9507 10.4725 24.4733 10.9951 24.4733 11.6395V20.9725C24.4733 21.9006 24.1042 22.7918 23.448 23.4481C22.7917 24.1041 21.9013 24.4724 20.9733 24.4725H4.63936C3.71139 24.4723 2.82099 24.1042 2.16475 23.4481C1.50845 22.7918 1.13945 21.9006 1.13936 20.9725V11.8514L0.163773 9.24884C0.151226 9.21535 0.13999 9.1808 0.13057 9.1463C-0.373646 7.29705 0.621866 5.35056 2.43721 4.80548L2.44112 4.8045L12.6726 1.77228C12.8455 1.6682 13.0372 1.61433 13.2292 1.60724L18.1911 0.13751L18.2155 0.130674ZM3.47334 20.9725C3.47344 21.2818 3.59643 21.579 3.81514 21.7977C4.0338 22.0162 4.33023 22.1393 4.63936 22.1395H20.9733C21.2825 22.1394 21.5789 22.0161 21.7976 21.7977C22.0163 21.579 22.1393 21.2818 22.1394 20.9725V12.8065H3.47334V20.9725ZM3.10713 7.03985C2.59886 7.19306 2.20003 7.79552 2.37276 8.49689L3.01827 10.2166L7.63643 8.87384L5.59346 6.30255L3.10713 7.03985ZM8.00557 5.58771L10.0583 8.16974L14.8913 6.76446L12.863 4.14825L8.00557 5.58771ZM20.322 3.10821C20.1671 2.59203 19.5496 2.18743 18.8347 2.3797L15.2644 3.43731L17.3005 6.06427L20.9089 5.01642L20.3239 3.11603L20.322 3.10821Z" fill="#016A7C"/>
</svg>
