<svg width="26" height="23" viewBox="0 0 26 23" fill="none" xmlns="http://www.w3.org/2000/svg">
<path fill-rule="evenodd" clip-rule="evenodd" d="M16.3047 0.214613C17.799 -0.149106 19.3695 -0.0486328 20.8057 0.501722C22.2416 1.0522 23.4763 2.02743 24.3447 3.29664C25.2121 4.56449 25.6732 6.06628 25.667 7.60231L25.6611 7.90016C25.5358 10.9485 23.5047 13.164 21.8252 14.8435C21.8207 14.848 21.8161 14.8528 21.8115 14.8572L15.416 21.0447C15.1004 21.3902 14.7197 21.6705 14.2939 21.866C13.8427 22.0731 13.3519 22.1822 12.8555 22.1853C12.359 22.1884 11.8669 22.0859 11.4131 21.8845C10.982 21.6931 10.5947 21.4157 10.2734 21.0711L3.85547 14.8572C3.85101 14.8529 3.84617 14.8479 3.8418 14.8435C2.10919 13.1109 1.47161e-05 10.817 0 7.60231C5.45198e-05 6.06809 0.465662 4.56961 1.33496 3.30543C2.20429 2.04127 3.43753 1.07038 4.87012 0.521254C6.30255 -0.027664 7.86801 -0.128913 9.35938 0.230238C10.6674 0.545325 11.8656 1.20127 12.832 2.1277C13.7964 1.19532 14.9948 0.533517 16.3047 0.214613ZM19.9697 2.68043C18.9763 2.29982 17.8902 2.23057 16.8564 2.48219C15.8226 2.73391 14.89 3.29479 14.1826 4.08961C14.1764 4.09663 14.1695 4.10326 14.1631 4.11012C13.9929 4.29203 13.7871 4.43768 13.5586 4.53688C13.3301 4.63599 13.083 4.68722 12.834 4.68727C12.5849 4.68722 12.3379 4.63601 12.1094 4.53688C11.8809 4.43766 11.6751 4.29207 11.5049 4.11012C11.4996 4.10455 11.4934 4.0992 11.4883 4.09352C10.7785 3.30373 9.84583 2.74756 8.81348 2.49879C7.78102 2.25016 6.69673 2.31997 5.70508 2.69996C4.71332 3.08014 3.85964 3.75253 3.25781 4.6277C2.65601 5.50288 2.33403 6.54018 2.33398 7.60231C2.334 9.7484 3.71777 11.4182 5.47852 13.1804L11.9043 19.4011C11.9245 19.4207 11.9441 19.4417 11.9629 19.4627C12.0731 19.586 12.2092 19.6846 12.3604 19.7517C12.5114 19.8187 12.6756 19.8533 12.8408 19.8523C13.0062 19.8512 13.17 19.8148 13.3203 19.7459C13.4706 19.6768 13.6042 19.5757 13.7129 19.4509C13.7347 19.4259 13.7584 19.4018 13.7822 19.3787L20.1895 13.1804C21.9491 11.4192 23.334 9.73733 23.334 7.60231V7.59645C23.339 6.53254 23.0197 5.49214 22.4189 4.61403C21.8181 3.73589 20.9633 3.06124 19.9697 2.68043Z" fill="#016A7C"/>
</svg>
