<svg width="26" height="26" viewBox="0 0 26 26" fill="none" xmlns="http://www.w3.org/2000/svg">
<path fill-rule="evenodd" clip-rule="evenodd" d="M22.0208 0C22.4992 -7.12829e-09 22.9734 0.0943023 23.4154 0.277344C23.8573 0.460429 24.2587 0.729121 24.597 1.06738C24.9353 1.40564 25.2039 1.80707 25.387 2.24902C25.5701 2.69099 25.6644 3.16519 25.6644 3.64355C25.6643 4.12186 25.5701 4.59619 25.387 5.03809C25.2269 5.42451 25.0013 5.78051 24.721 6.08984L24.597 6.21973L20.3216 10.4951L21.0111 11.1846C21.757 11.9306 22.1761 12.9431 22.1761 13.998C22.1759 15.0527 21.7567 16.0647 21.0111 16.8105L19.9095 17.9121C19.5814 18.2399 19.136 18.4247 18.6722 18.4248C18.483 18.4248 18.2977 18.3916 18.1214 18.333C18.0463 18.4886 17.9683 18.6422 17.8861 18.791C17.6005 19.3075 17.2466 19.8393 16.8548 20.3672C16.8348 20.3966 16.8137 20.4249 16.7913 20.4521C16.5969 20.7111 16.3945 20.9698 16.1849 21.2236C14.8727 22.8124 13.2251 24.3702 11.8812 25.291C11.8409 25.3186 11.7986 25.3448 11.7552 25.3672C11.3053 25.5983 10.7918 25.6765 10.2933 25.5908C9.79455 25.505 9.33649 25.2591 8.98957 24.8906C8.97203 24.872 8.95507 24.8528 8.93879 24.833L0.398753 14.4697L0.394847 14.4648C0.201837 14.228 0.0740032 13.944 0.0237529 13.6426C-0.0263284 13.3415 0.00315237 13.0325 0.108714 12.7461L0.200511 12.5371C0.306298 12.3355 0.450936 12.1552 0.626292 12.0078L0.809886 11.873C1.00162 11.7504 1.2164 11.6652 1.44172 11.624C2.92482 11.3468 4.17749 11.0122 5.29328 10.4131C6.17979 9.93698 7.01381 9.27458 7.80403 8.2832L7.75227 8.23145C7.4655 7.9445 7.28826 7.56717 7.24836 7.16699L7.23957 6.99316L7.24836 6.82031C7.28818 6.42005 7.46548 6.04289 7.75227 5.75586L8.85383 4.65527C9.59973 3.90948 10.6116 3.49042 11.6663 3.49023C12.7213 3.49023 13.7337 3.90932 14.4798 4.65527L15.1683 5.34277L19.4447 1.06738C19.7828 0.729237 20.1845 0.460425 20.6263 0.277344C21.0682 0.0943033 21.5425 4.83928e-05 22.0208 0ZM10.682 23.2793C11.6241 22.6121 12.7975 21.5382 13.845 20.3643L6.66731 18.4062L10.682 23.2793ZM9.46223 9.94043C8.52851 11.0615 7.50937 11.8717 6.39778 12.4688C5.25343 13.0832 4.04493 13.4525 2.80989 13.7256L4.09602 15.2861L15.4056 18.3711C15.5689 18.1257 15.7183 17.8895 15.8441 17.6621C16.0564 17.2781 16.1837 16.9679 16.2552 16.7324L9.46223 9.94043ZM22.0208 2.33398C21.849 2.33403 21.6786 2.36785 21.5198 2.43359C21.3611 2.49942 21.2166 2.59625 21.095 2.71777L16.4056 7.40625C16.0774 7.73409 15.6321 7.91895 15.1683 7.91895C14.7625 7.91883 14.3711 7.77732 14.0599 7.52246L13.931 7.40625L12.8294 6.30469C12.521 5.99642 12.1024 5.82324 11.6663 5.82324C11.2303 5.82343 10.8116 5.99641 10.5032 6.30469L9.81477 6.99316L18.6712 15.8486L19.3607 15.1611C19.6689 14.8528 19.8419 14.434 19.8421 13.998C19.8421 13.5619 19.669 13.1434 19.3607 12.835L18.2591 11.7334C17.9721 11.4463 17.795 11.0694 17.7552 10.6689L17.7474 10.4961L17.7552 10.3232C17.7949 9.92282 17.9723 9.54594 18.2591 9.25879L22.9466 4.57031C23.0681 4.44878 23.165 4.30329 23.2308 4.14453C23.2965 3.98576 23.3303 3.8154 23.3304 3.64355C23.3304 3.47167 23.2965 3.30139 23.2308 3.14258C23.165 2.98366 23.0682 2.83941 22.9466 2.71777C22.825 2.59614 22.6807 2.49942 22.5218 2.43359C22.363 2.36786 22.1927 2.33398 22.0208 2.33398Z" fill="#016A7C"/>
</svg>
