<svg width="26" height="26" viewBox="0 0 26 26" fill="none" xmlns="http://www.w3.org/2000/svg">
<path fill-rule="evenodd" clip-rule="evenodd" d="M16.6289 0.341613C17.0845 -0.113935 17.8237 -0.113808 18.2793 0.341613C18.7349 0.797225 18.7349 1.53639 18.2793 1.992L15.6035 4.66583L15.6045 4.66681C15.1772 5.10294 14.9375 5.68999 14.9375 6.3006C14.9377 6.91107 15.1772 7.49742 15.6045 7.93341L15.8203 8.15021L20.1299 3.84161C20.5854 3.38627 21.3237 3.38638 21.7793 3.84161C22.2348 4.29724 22.2349 5.03643 21.7793 5.492L17.4707 9.79962L17.6953 10.0242C18.1306 10.4471 18.7142 10.6843 19.3213 10.6844C19.9316 10.6843 20.5181 10.4445 20.9541 10.0174L23.6289 7.34161C24.0845 6.88607 24.8237 6.88619 25.2793 7.34161C25.7349 7.79722 25.7349 8.53639 25.2793 8.992L22.5957 11.6746L22.5879 11.6834C21.7157 12.5382 20.5426 13.0173 19.3213 13.0174C18.1 13.0173 16.9269 12.5382 16.0547 11.6834L16.0459 11.6756L15.8213 11.45L14.4375 12.8328L25.2793 23.6756C25.7347 24.1312 25.7348 24.8695 25.2793 25.325C24.8237 25.7803 24.0854 25.7803 23.6299 25.325L16.2871 17.9822L15.2461 19.0252C15.2279 19.0434 15.2088 19.061 15.1895 19.0779C13.8481 20.2513 11.6292 20.3253 10.3291 19.0252L9.28516 17.9813L2.05664 25.0984C1.59752 25.5502 0.859207 25.5437 0.407227 25.0848C-0.0447306 24.6256 -0.0392378 23.8874 0.419922 23.4354L7.63574 16.3318L1.8125 10.5086C1.24032 9.94563 0.784655 9.27408 0.473633 8.534C0.160991 7.78997 2.58157e-05 6.99045 0 6.18341C2.11402e-08 5.37641 0.161047 4.57682 0.473633 3.83282C0.786225 3.08899 1.24502 2.41513 1.82129 1.8504L1.91016 1.7713C2.36871 1.40465 3.03888 1.43429 3.46289 1.85821L12.7871 11.1834L14.1709 9.79962L13.9463 9.57501L13.9375 9.5672C13.0826 8.69504 12.6037 7.52183 12.6035 6.3006C12.6035 5.07923 13.0826 3.90532 13.9375 3.03302L13.9463 3.02521L16.6289 0.341613ZM2.625 4.73712C2.43268 5.19492 2.33398 5.68685 2.33398 6.18341C2.33401 6.68001 2.43263 7.17187 2.625 7.6297C2.79331 8.03023 3.0301 8.39814 3.32422 8.71661L3.4541 8.8504L3.46289 8.85822L11.9795 17.3748C12.3088 17.7042 13.108 17.7783 13.6338 17.3358L14.6377 16.3328L2.75879 4.45489C2.7107 4.54696 2.66537 4.64105 2.625 4.73712Z" fill="#016A7C"/>
</svg>
