<svg width="25" height="25" viewBox="0 0 25 25" fill="none" xmlns="http://www.w3.org/2000/svg">
<path fill-rule="evenodd" clip-rule="evenodd" d="M6.91253 4.66699C8.15007 4.66706 9.33724 5.15913 10.2123 6.03418C10.9672 6.7892 11.4356 7.77669 11.5502 8.82812C12.2499 9.2463 12.8327 9.84322 13.2338 10.5635C13.7654 11.5183 13.9453 12.6304 13.7416 13.7041C13.5379 14.7775 12.9637 15.7457 12.1196 16.4395C11.2774 17.1314 10.219 17.5063 9.12933 17.5H8.07953V23.334C8.07935 23.9781 7.55672 24.5009 6.91253 24.501C6.26831 24.501 5.74572 23.9782 5.74554 23.334V17.5L4.57953 17.501C4.56995 17.501 4.55981 17.5002 4.55023 17.5C3.47051 17.4731 2.43305 17.0722 1.61566 16.3662C0.798424 15.6601 0.25139 14.6922 0.0678073 13.6279C-0.115724 12.5634 0.0760542 11.4684 0.6098 10.5293C1.0106 9.82415 1.58521 9.23934 2.27386 8.82812C2.3885 7.77656 2.85771 6.78926 3.61273 6.03418C4.48785 5.15906 5.67493 4.66704 6.91253 4.66699ZM6.91253 7.00098C6.29395 7.00103 5.70062 7.2463 5.26312 7.68359C4.82555 8.12118 4.57953 8.71516 4.57953 9.33398V9.56738C4.57937 10.0503 4.28134 10.4832 3.8305 10.6562C3.32637 10.8497 2.90503 11.2123 2.63812 11.6816C2.37129 12.1511 2.27491 12.6993 2.36664 13.2314C2.45846 13.7635 2.73249 14.2476 3.14105 14.6006C3.54614 14.9504 4.05949 15.1504 4.59417 15.167H9.13812C9.68451 15.1712 10.2159 14.9836 10.6381 14.6367C11.0601 14.2898 11.3468 13.8053 11.4487 13.2686C11.5504 12.7319 11.4604 12.1765 11.1948 11.6992C10.9289 11.2219 10.5035 10.8524 9.99359 10.6562C9.54331 10.4829 9.24668 10.0499 9.24652 9.56738V9.33398C9.24652 8.71529 9.00032 8.12115 8.56292 7.68359C8.12541 7.24613 7.53123 7.00105 6.91253 7.00098Z" fill="#016A7C"/>
<path d="M13.9135 1.47928e-07C14.2368 0.000396901 14.5457 0.135458 14.766 0.37207L19.433 5.38867C19.7557 5.72443 19.97 6.14896 20.0493 6.6084C20.1305 7.07997 20.0655 7.56605 19.8618 7.99902C19.7499 8.2366 19.5971 8.45027 19.4155 8.63574L21.7758 11.2324C22.0789 11.5534 22.285 11.9538 22.3696 12.3877C22.4569 12.8359 22.4106 13.3004 22.2368 13.7227C22.122 14.0011 21.9532 14.2518 21.7446 14.4648L24.1088 17.0654C24.4121 17.3865 24.618 17.7867 24.7026 18.2207C24.7899 18.669 24.7437 19.1333 24.5698 19.5557C24.3958 19.9779 24.1017 20.3399 23.7241 20.5967C23.3464 20.8533 22.9013 20.9936 22.4448 21H15.0795V23.334C15.0794 23.9781 14.5567 24.5009 13.9125 24.501C13.2683 24.501 12.7457 23.9782 12.7455 23.334V21C12.1015 20.9998 11.5787 20.478 11.5785 19.834C11.5786 19.1898 12.1014 18.6672 12.7455 18.667H22.4125C22.4023 18.6566 22.3921 18.6456 22.3823 18.6348L18.8823 14.7852C18.5718 14.4435 18.4915 13.9505 18.6782 13.5283C18.8649 13.1061 19.2839 12.8341 19.7455 12.834H20.0786C20.0685 12.8237 20.059 12.8124 20.0493 12.8018L16.5493 8.95215C16.2389 8.61057 16.1586 8.11746 16.3452 7.69531C16.5319 7.27312 16.9509 7.00015 17.4125 7H17.645C17.6798 7 17.7157 7.00176 17.7504 7.00488C17.7418 6.99617 17.7324 6.98751 17.7241 6.97852L13.9096 2.87793L13.1313 3.71289C12.6916 4.18365 11.9538 4.20908 11.4828 3.76953C11.0122 3.32992 10.9868 2.59204 11.4262 2.12109L13.059 0.371094C13.2798 0.134533 13.5899 -0.00016294 13.9135 1.47928e-07Z" fill="#016A7C"/>
</svg>
