<svg width="26" height="24" viewBox="0 0 26 24" fill="none" xmlns="http://www.w3.org/2000/svg">
<path fill-rule="evenodd" clip-rule="evenodd" d="M8.16699 0C9.71401 0 11.198 0.615124 12.292 1.70898C12.4884 1.90538 12.6683 2.11533 12.833 2.33496C12.9979 2.11505 13.1794 1.90561 13.376 1.70898C14.4698 0.615277 15.9532 0.000172736 17.5 0H23.334C23.9526 8.57591e-05 24.5459 0.246289 24.9834 0.683594C25.421 1.12118 25.667 1.71515 25.667 2.33398V17.5C25.667 18.1188 25.421 18.7128 24.9834 19.1504C24.5459 19.5877 23.9525 19.8339 23.334 19.834H16.334C15.7153 19.8341 15.1211 20.0792 14.6836 20.5166C14.2507 20.9496 14.0061 21.5357 14.001 22.1475V22.167C14.0009 22.3053 13.9749 22.4374 13.9307 22.5605C13.9248 22.5769 13.9196 22.5934 13.9131 22.6094C13.9059 22.6269 13.8977 22.644 13.8896 22.6611C13.8822 22.677 13.8743 22.6925 13.8662 22.708C13.8561 22.7273 13.8452 22.746 13.834 22.7646C13.8271 22.7761 13.8207 22.7877 13.8135 22.7988C13.8023 22.8162 13.7904 22.8329 13.7783 22.8496C13.7675 22.8645 13.7566 22.8792 13.7451 22.8936C13.7366 22.9042 13.7276 22.9144 13.7188 22.9248C13.7039 22.9422 13.6887 22.9591 13.6729 22.9756C13.6592 22.9897 13.6452 23.0032 13.6309 23.0166C13.6218 23.0251 13.6129 23.0338 13.6035 23.042C13.5882 23.0554 13.5726 23.0684 13.5566 23.0811C13.5417 23.0929 13.5263 23.1041 13.5107 23.1152C13.4959 23.1258 13.4812 23.1366 13.4658 23.1465C13.4499 23.1568 13.4335 23.1662 13.417 23.1758C13.4037 23.1835 13.3905 23.1911 13.377 23.1982C13.358 23.2082 13.3389 23.2176 13.3193 23.2266C13.3045 23.2334 13.2896 23.2399 13.2744 23.2461C13.2484 23.2567 13.2222 23.2666 13.1953 23.2754C13.1894 23.2773 13.1836 23.2794 13.1777 23.2812C13.0691 23.3148 12.9536 23.334 12.834 23.334C12.7139 23.334 12.5983 23.315 12.4893 23.2812C12.4833 23.2794 12.4775 23.2773 12.4717 23.2754C12.4452 23.2667 12.4191 23.2575 12.3936 23.2471C12.3753 23.2396 12.3576 23.231 12.3398 23.2227C12.325 23.2157 12.3104 23.2087 12.2959 23.2012C12.2789 23.1923 12.2626 23.1825 12.2461 23.1729C12.2313 23.1642 12.2165 23.1558 12.2021 23.1465C12.1836 23.1345 12.1653 23.1224 12.1475 23.1094C12.1375 23.1021 12.1279 23.0945 12.1182 23.0869C12.0988 23.0718 12.0799 23.0563 12.0615 23.04C12.0536 23.033 12.0458 23.0258 12.0381 23.0186C12.0209 23.0025 12.0045 22.9858 11.9883 22.9688C11.9776 22.9575 11.9672 22.9462 11.957 22.9346C11.9446 22.9203 11.9317 22.9064 11.9199 22.8916C11.9091 22.8779 11.8989 22.8638 11.8887 22.8496C11.8766 22.8329 11.8647 22.8161 11.8535 22.7988C11.8463 22.7877 11.8398 22.7761 11.833 22.7646C11.8219 22.746 11.8109 22.7273 11.8008 22.708C11.7927 22.6927 11.7857 22.6769 11.7783 22.6611C11.7702 22.6439 11.7612 22.6271 11.7539 22.6094C11.7474 22.5934 11.7422 22.5769 11.7363 22.5605C11.705 22.4733 11.6826 22.3816 11.6729 22.2861L11.667 22.167L11.6553 21.9365C11.6023 21.4023 11.3663 20.8995 10.9834 20.5166C10.5459 20.0794 9.95248 19.8341 9.33398 19.834H2.33398C1.71527 19.8339 1.1211 19.5879 0.683594 19.1504C0.24611 18.7128 0 18.1188 0 17.5V2.33398C0 1.71522 0.24611 1.12116 0.683594 0.683594C1.1211 0.246085 1.71526 8.6233e-05 2.33398 0H8.16699ZM2.33398 17.5H9.33398C10.1601 17.5001 10.9637 17.7199 11.667 18.126V5.83398C11.667 4.90573 11.298 4.01478 10.6416 3.3584C9.98527 2.70233 9.09502 2.33398 8.16699 2.33398H2.33398V17.5ZM17.5 2.33398C16.5721 2.33416 15.6816 2.70228 15.0254 3.3584C14.4101 3.97374 14.0478 4.79515 14.0049 5.66016L14 5.82129C14 5.82541 14.001 5.82985 14.001 5.83398V18.126C14.7043 17.7198 15.5078 17.5001 16.334 17.5H23.334V2.33398H17.5Z" fill="#016A7C"/>
</svg>
