<svg width="24" height="21" viewBox="0 0 24 21" fill="none" xmlns="http://www.w3.org/2000/svg">
<path fill-rule="evenodd" clip-rule="evenodd" d="M17.5 0C18.4282 0 19.3182 0.369115 19.9746 1.02539C20.6309 1.68169 20.9999 2.57186 21 3.5V6.0332C21.4877 6.20565 21.9359 6.48567 22.3086 6.8584C22.9649 7.5147 23.3339 8.40487 23.334 9.33301V15.167C23.3339 16.0951 22.9649 16.9853 22.3086 17.6416C21.9362 18.014 21.4882 18.2933 21.001 18.4658V19.833C21.001 20.4772 20.4782 20.9998 19.834 21C19.1897 21 18.667 20.4773 18.667 19.833V18.667H4.66699V19.833C4.66699 20.4773 4.14433 21 3.5 21C2.85582 20.9998 2.33301 20.4772 2.33301 19.833V18.4658C1.84576 18.2933 1.39782 18.014 1.02539 17.6416C0.36909 16.9853 8.62633e-05 16.0951 0 15.167V9.33301C8.61686e-05 8.40487 0.36909 7.5147 1.02539 6.8584C1.39789 6.4859 1.84564 6.20568 2.33301 6.0332V3.5C2.33309 2.57201 2.7023 1.68166 3.3584 1.02539C4.01462 0.369167 4.90498 0.000172528 5.83301 0H17.5ZM19.834 8.16699C19.5246 8.16699 19.2276 8.29 19.0088 8.50879C18.7902 8.72749 18.6671 9.02378 18.667 9.33301V11.083C18.667 11.5471 18.4824 11.9921 18.1543 12.3203C17.8261 12.6485 17.3811 12.833 16.917 12.833H6.41699C5.95287 12.833 5.50788 12.6485 5.17969 12.3203C4.8516 11.9921 4.66699 11.5471 4.66699 11.083V9.33301C4.66691 9.02378 4.54381 8.72749 4.3252 8.50879C4.1064 8.29 3.80942 8.16699 3.5 8.16699C3.1907 8.16708 2.8945 8.29007 2.67578 8.50879C2.45707 8.7275 2.33407 9.02371 2.33398 9.33301V15.167C2.33407 15.4763 2.45707 15.7725 2.67578 15.9912C2.8945 16.2099 3.1907 16.3329 3.5 16.333H19.834C20.1433 16.3329 20.4395 16.2099 20.6582 15.9912C20.8769 15.7725 20.9999 15.4763 21 15.167V9.33301C20.9999 9.02371 20.8769 8.72751 20.6582 8.50879C20.4395 8.29007 20.1433 8.16708 19.834 8.16699ZM5.83301 2.33398C5.52382 2.33416 5.22743 2.45714 5.00879 2.67578C4.79028 2.89446 4.66708 3.19085 4.66699 3.5V6.0332C5.15474 6.20566 5.60295 6.48576 5.97559 6.8584C6.63178 7.51468 6.99991 8.40494 7 9.33301V10.5H16.334V9.33301C16.3341 8.40494 16.7022 7.51468 17.3584 6.8584C17.731 6.48576 18.1792 6.20566 18.667 6.0332V3.5C18.6669 3.19085 18.5437 2.89447 18.3252 2.67578C18.1064 2.45699 17.8094 2.33398 17.5 2.33398H5.83301Z" fill="#016A7C"/>
</svg>
