<svg width="26" height="26" viewBox="0 0 26 26" fill="none" xmlns="http://www.w3.org/2000/svg">
<path fill-rule="evenodd" clip-rule="evenodd" d="M9.32622 9.33398C10.2452 9.33403 11.1559 9.51554 12.0049 9.86719C12.8541 10.219 13.6265 10.7349 14.2764 11.3848C14.9262 12.0346 15.4423 12.8062 15.794 13.6553C16.1456 14.5043 16.3262 15.415 16.3262 16.334V20.418L16.3213 20.6523C16.2686 21.823 15.8252 22.9456 15.0586 23.8379C14.2411 24.7893 13.1092 25.4169 11.8692 25.6064C10.6292 25.7958 9.36219 25.534 8.2979 24.8701C7.23353 24.206 6.44153 23.1825 6.06645 21.9854L6.06548 21.9824C5.68123 20.7426 4.91757 19.9782 3.68364 19.5947H3.68169C2.48512 19.22 1.46114 18.4287 0.796922 17.3652C0.132763 16.3016 -0.128811 15.0346 0.0596178 13.7949C0.248151 12.5552 0.87493 11.4237 1.82524 10.6055C2.77554 9.78742 3.98735 9.33618 5.24126 9.33398H9.32622ZM4.9854 11.6797C4.38266 11.7347 3.80965 11.9764 3.3477 12.374C2.81984 12.8285 2.47204 13.4569 2.36723 14.1455C2.2626 14.8341 2.40753 15.5381 2.77641 16.1289C3.14543 16.7197 3.71425 17.159 4.37895 17.3672C6.34688 17.9793 7.6815 19.3184 8.29302 21.2881C8.50137 21.953 8.94119 22.5217 9.53227 22.8906C10.1235 23.2594 10.8279 23.4049 11.5166 23.2998C12.2055 23.1945 12.8349 22.8459 13.2891 22.3174C13.7431 21.7889 13.9927 21.1147 13.9932 20.418V16.334C13.9932 15.7215 13.8721 15.1147 13.6377 14.5488C13.4033 13.9828 13.0592 13.4675 12.626 13.0342C12.1929 12.6011 11.6782 12.2569 11.1124 12.0225C10.5463 11.788 9.93887 11.668 9.32622 11.668H5.24516L4.9854 11.6797Z" fill="#016A7C"/>
<path fill-rule="evenodd" clip-rule="evenodd" d="M22.1592 14C24.092 14 25.6589 15.5673 25.6592 17.5C25.6592 19.433 24.0922 21 22.1592 21C20.2264 20.9998 18.6592 19.4329 18.6592 17.5C18.6596 15.5674 20.2266 14.0002 22.1592 14ZM22.1592 16.334C21.5153 16.3342 20.9936 16.8561 20.9932 17.5C20.9932 18.1442 21.5151 18.6668 22.1592 18.667C22.8036 18.667 23.3262 18.1443 23.3262 17.5C23.3259 16.856 22.8033 16.334 22.1592 16.334Z" fill="#016A7C"/>
<path fill-rule="evenodd" clip-rule="evenodd" d="M19.8262 4.66699C21.759 4.66714 23.326 6.23424 23.3262 8.16699C23.3262 10.0999 21.7591 11.6668 19.8262 11.667C17.8934 11.6668 16.3262 10.0999 16.3262 8.16699C16.3264 6.23425 17.8935 4.66717 19.8262 4.66699ZM19.8262 7.00098C19.1821 7.00115 18.6604 7.52292 18.6602 8.16699C18.6602 8.81122 19.182 9.33381 19.8262 9.33398C20.4704 9.33383 20.9932 8.81123 20.9932 8.16699C20.993 7.5229 20.4703 7.00113 19.8262 7.00098Z" fill="#016A7C"/>
<path fill-rule="evenodd" clip-rule="evenodd" d="M11.6592 0C13.592 0 15.1589 1.5673 15.1592 3.5C15.1592 5.433 13.5922 7 11.6592 7C9.7264 6.9998 8.15923 5.43287 8.15923 3.5C8.15958 1.56743 9.72662 0.000201971 11.6592 0ZM11.6592 2.33398C11.0153 2.33419 10.4936 2.85609 10.4932 3.5C10.4932 4.14421 11.0151 4.66679 11.6592 4.66699C12.3036 4.66699 12.8262 4.14433 12.8262 3.5C12.8259 2.85597 12.3033 2.33398 11.6592 2.33398Z" fill="#016A7C"/>
</svg>
