<svg width="23" height="24" viewBox="0 0 23 24" fill="none" xmlns="http://www.w3.org/2000/svg">
<path fill-rule="evenodd" clip-rule="evenodd" d="M4.66699 0C7.24432 6.44222e-08 9.33398 2.08966 9.33398 4.66699C9.33398 5.53218 9.09688 6.34146 8.68652 7.03613L11.667 10.0166L20.1758 1.50879C20.6313 1.05346 21.3696 1.05355 21.8252 1.50879C22.2805 1.96443 22.2807 2.70367 21.8252 3.15918L8.68652 16.2969C9.09715 16.9917 9.33398 17.8015 9.33398 18.667C9.33398 21.2443 7.24432 23.334 4.66699 23.334C2.08966 23.334 6.44212e-08 21.2443 0 18.667C0 16.0897 2.08966 14 4.66699 14C5.5323 14 6.34237 14.236 7.03711 14.6465L10.0166 11.667L7.03613 8.68652C6.34146 9.09688 5.53218 9.33398 4.66699 9.33398C2.08966 9.33398 6.44212e-08 7.24432 0 4.66699C0 2.08966 2.08966 0 4.66699 0ZM4.66699 16.334C3.37833 16.334 2.33398 17.3783 2.33398 18.667C2.33398 19.9557 3.37833 21 4.66699 21C5.95566 21 7 19.9557 7 18.667C7 18.0279 6.74233 17.4497 6.32617 17.0283C6.32271 17.0249 6.31886 17.022 6.31543 17.0186C6.31195 17.0151 6.30909 17.0104 6.30566 17.0068C5.88437 16.591 5.30586 16.334 4.66699 16.334ZM4.66699 2.33398C3.37833 2.33398 2.33398 3.37833 2.33398 4.66699C2.33398 5.95566 3.37833 7 4.66699 7C5.95566 7 7 5.95566 7 4.66699C7 3.37833 5.95566 2.33398 4.66699 2.33398Z" fill="#016A7C"/>
<path d="M14.1084 14.1084C14.564 13.6528 15.3032 13.6528 15.7588 14.1084L21.8252 20.1758C22.2806 20.6314 22.2807 21.3697 21.8252 21.8252C21.3697 22.2807 20.6314 22.2806 20.1758 21.8252L14.1084 15.7588C13.6528 15.3032 13.6528 14.564 14.1084 14.1084Z" fill="#016A7C"/>
</svg>
