<svg width="26" height="26" viewBox="0 0 26 26" fill="none" xmlns="http://www.w3.org/2000/svg">
<path fill-rule="evenodd" clip-rule="evenodd" d="M12.8369 0C13.3811 0.000107589 13.9085 0.191519 14.3271 0.539062C14.745 0.886174 15.0283 1.36857 15.1289 1.90234L16.3555 8.38672C16.399 8.61687 16.5122 8.83038 16.6777 8.99609C16.8434 9.1616 17.056 9.27382 17.2861 9.31738L23.7705 10.543C24.3047 10.6432 24.7863 10.9277 25.1338 11.3457C25.4816 11.7645 25.6727 12.2926 25.6729 12.8369C25.6727 13.3812 25.4815 13.9084 25.1338 14.3271C24.7864 14.7454 24.3039 15.0286 23.7695 15.1289L17.2861 16.3555C17.0558 16.399 16.8435 16.512 16.6777 16.6777C16.512 16.8435 16.3991 17.0558 16.3555 17.2861L15.1299 23.7705L15.1289 23.7695C15.0286 24.3039 14.7454 24.7864 14.3271 25.1338C13.9084 25.4816 13.3813 25.6727 12.8369 25.6729C12.2925 25.6728 11.7645 25.4816 11.3457 25.1338C10.9277 24.7863 10.6432 24.3038 10.543 23.7695L9.31738 17.2861C9.27381 17.0561 9.16158 16.8434 8.99609 16.6777C8.83038 16.5122 8.61784 16.399 8.3877 16.3555L1.90234 15.1299C1.36854 15.0293 0.886186 14.745 0.539062 14.3271C0.191523 13.9085 0.000107588 13.3811 0 12.8369C0.000111831 12.2926 0.191272 11.7645 0.539062 11.3457C0.886257 10.9278 1.36845 10.6434 1.90234 10.543L8.38672 9.31738C8.61707 9.27379 8.83031 9.16187 8.99609 8.99609C9.16185 8.83032 9.27379 8.61803 9.31738 8.3877L10.543 1.90234C10.6435 1.36845 10.9278 0.886244 11.3457 0.539062C11.7645 0.191257 12.2925 9.52111e-05 12.8369 0ZM12.8359 2.33594L11.6094 8.82031C11.4787 9.51178 11.1431 10.1479 10.6455 10.6455C10.1479 11.1431 9.5118 11.4787 8.82031 11.6094L2.33594 12.8359L8.82031 14.0635C9.51159 14.1941 10.148 14.53 10.6455 15.0273C11.143 15.5248 11.4787 16.1613 11.6094 16.8525L12.8359 23.3369L14.0635 16.8525L14.1221 16.5957C14.2808 16.0042 14.5921 15.4626 15.0273 15.0273C15.5249 14.5298 16.1612 14.1942 16.8525 14.0635L23.3369 12.8369L16.8525 11.6094C16.1613 11.4787 15.5248 11.143 15.0273 10.6455C14.53 10.148 14.1941 9.51159 14.0635 8.82031L12.8359 2.33594Z" fill="#016A7C"/>
<path fill-rule="evenodd" clip-rule="evenodd" d="M3.50293 18.6699C5.43582 18.6699 7.00275 20.2371 7.00293 22.1699C7.00293 24.1029 5.43593 25.6699 3.50293 25.6699C1.57023 25.6696 0.00292969 24.1027 0.00292969 22.1699C0.00310552 20.2373 1.57034 18.6703 3.50293 18.6699ZM3.50293 21.0039C2.85901 21.0043 2.33709 21.526 2.33691 22.1699C2.33691 22.814 2.8589 23.3366 3.50293 23.3369C4.14726 23.3369 4.66992 22.8143 4.66992 22.1699C4.66975 21.5257 4.14715 21.0039 3.50293 21.0039Z" fill="#016A7C"/>
<path d="M22.1699 0.00292969C22.8141 0.00292969 23.3367 0.525739 23.3369 1.16992V2.33691H24.5039C25.1481 2.33709 25.6699 2.85968 25.6699 3.50391C25.6697 4.14798 25.148 4.67072 24.5039 4.6709H23.3369V5.83691C23.3367 6.4811 22.8141 7.00293 22.1699 7.00293C21.5258 7.00275 21.0031 6.48099 21.0029 5.83691V4.6709H19.8369C19.1927 4.6709 18.6701 4.14809 18.6699 3.50391C18.6699 2.85957 19.1926 2.33691 19.8369 2.33691H21.0029V1.16992C21.0031 0.525848 21.5258 0.00310595 22.1699 0.00292969Z" fill="#016A7C"/>
</svg>
