<svg width="20" height="20" viewBox="0 0 20 20" fill="none" xmlns="http://www.w3.org/2000/svg">
<path d="M11.044 0.00012171V1.37702C12.3892 1.37249 13.711 1.72883 14.8717 2.40891C15.9886 3.0686 16.9199 4.00094 17.5783 5.11865C18.2583 6.27929 18.6147 7.60108 18.6101 8.94628H19.9902C19.9986 7.35778 19.5748 5.79691 18.7643 4.43073C17.9939 3.10126 16.889 1.99646 15.5596 1.22601C14.1934 0.415498 12.6325 -0.00825091 11.044 0.00012171ZM3.9257 2.06494C3.55527 2.05898 3.19555 2.18922 2.91478 2.43093L0.694761 4.6929L0.759779 4.6499C0.413246 4.9356 0.169487 5.32665 0.0655625 5.76358C-0.0427455 6.19105 -0.0163761 6.64153 0.141066 7.05344C0.576509 8.24566 1.11585 9.39733 1.75286 10.4952C2.68129 12.094 3.81666 13.5632 5.12956 14.8649C7.35368 17.0552 10.0132 18.7537 12.9358 19.8503H12.9578C13.3617 19.9929 13.7968 20.0226 14.2162 19.9363C14.6352 19.8513 15.0244 19.6574 15.3446 19.3742L17.5174 17.2045C17.658 17.0658 17.7686 16.8999 17.8426 16.7168C17.9165 16.5337 17.9522 16.3375 17.9474 16.1401C17.9523 15.9426 17.9167 15.7461 17.8428 15.5629C17.7688 15.3796 17.6581 15.2135 17.5174 15.0747L14.6997 12.237C14.5593 12.0958 14.3916 11.9848 14.2067 11.9108C14.0219 11.8369 13.8238 11.8016 13.6248 11.807C13.4258 11.8016 13.2277 11.8369 13.0429 11.9108C12.858 11.9848 12.6903 12.0958 12.5499 12.237L11.194 13.6128C10.1505 13.1282 9.19191 12.4784 8.35526 11.6885C7.53299 10.8931 6.88175 9.93822 6.44144 8.88231L7.81834 7.50646C7.96465 7.35747 8.07993 7.18092 8.15752 6.98705C8.2351 6.79318 8.27344 6.58584 8.27031 6.37705C8.27511 6.1714 8.2308 5.96756 8.14107 5.78245C8.05135 5.59734 7.91878 5.43629 7.75437 5.31266L7.81939 5.37767L4.93766 2.43093C4.65662 2.18898 4.29648 2.05873 3.9257 2.06494ZM11.044 2.75287V4.12976C11.8938 4.12298 12.7297 4.3458 13.4633 4.77469C14.1913 5.19459 14.7957 5.79901 15.2156 6.52701C15.6445 7.26065 15.8673 8.0965 15.8605 8.94628H17.2374C17.2435 7.85016 16.9537 6.77271 16.3985 5.82755C15.8508 4.90758 15.0819 4.13904 14.1617 3.5918C13.2169 3.03684 12.1398 2.74701 11.044 2.75287ZM3.9257 3.44079C3.98165 3.44593 4.03452 3.46869 4.0767 3.50581L6.89447 6.38754C6.90208 6.41421 6.90208 6.44249 6.89449 6.46917C6.88689 6.49585 6.87199 6.51988 6.85147 6.53854L4.80867 8.56037L4.95968 8.99032L5.23967 9.59226C5.47027 10.0832 5.73519 10.5574 6.03246 11.0111C6.41752 11.6184 6.87924 12.1735 7.40621 12.6627C8.13758 13.3666 8.95504 13.9751 9.83912 14.4738C10.2258 14.7028 10.6285 14.9037 11.044 15.0747L11.474 15.2687L13.5598 13.1871C13.5884 13.1584 13.6101 13.1441 13.6248 13.1441C13.6395 13.1441 13.6611 13.1584 13.6898 13.1871L16.5925 16.0866C16.6212 16.1153 16.6355 16.1331 16.6355 16.1401C16.6355 16.1471 16.6212 16.1649 16.5925 16.1936L14.4417 18.3255C14.3068 18.4539 14.1384 18.5417 13.9559 18.5788C13.7734 18.6159 13.5841 18.6008 13.4098 18.5353C10.6711 17.5216 8.17872 15.9382 6.09748 13.8897C4.87381 12.6611 3.81138 11.2819 2.93576 9.78521C2.33077 8.76833 1.82609 7.69504 1.42883 6.58049V6.55847C1.37017 6.41107 1.36242 6.24831 1.4068 6.09601C1.43964 5.93471 1.52259 5.78791 1.6438 5.67654L3.77259 3.50476C3.79242 3.48424 3.81622 3.46799 3.84255 3.45699C3.86887 3.44599 3.89717 3.44048 3.9257 3.44079ZM11.044 5.50561V6.88251C11.316 6.87765 11.5862 6.92855 11.8378 7.03207C12.0894 7.1356 12.3171 7.28955 12.5069 7.48444C12.7018 7.67427 12.8558 7.90199 12.9593 8.15359C13.0628 8.40518 13.1137 8.67531 13.1089 8.94733H14.4847C14.4879 8.34258 14.3282 7.74813 14.0222 7.22647C13.7213 6.7032 13.2871 6.26901 12.7638 5.96807C12.2425 5.66232 11.6484 5.50257 11.044 5.50561Z" fill="white"/>
</svg>
