<svg width="260" height="72" viewBox="0 0 260 72" fill="none" xmlns="http://www.w3.org/2000/svg">
<g clip-path="url(#clip0_537_93)">
<path d="M150.976 44.747C151.902 44.747 152.736 44.9243 153.491 45.2789C154.239 45.6335 154.876 46.126 155.395 46.7564C155.914 47.3868 156.321 48.1288 156.603 48.989C156.886 49.8426 157.03 50.7882 157.03 51.8126C157.03 53.428 156.722 54.958 156.098 56.4092C155.474 57.8604 154.666 59.1277 153.661 60.2178C152.657 61.3078 151.501 62.1811 150.208 62.8312C148.907 63.4813 147.581 63.8096 146.215 63.8096C145.171 63.8096 144.252 63.6192 143.47 63.2449C142.682 62.8706 142.019 62.3716 141.487 61.7412C140.955 61.1108 140.555 60.3819 140.279 59.5545C140.003 58.7272 139.865 57.8604 139.865 56.9542C139.865 55.457 140.148 53.973 140.719 52.5087C141.29 51.0443 142.078 49.7376 143.083 48.595C144.088 47.4524 145.263 46.5266 146.616 45.8174C147.968 45.1082 149.42 44.7536 150.976 44.7536V44.747ZM147.489 62.8903C148.513 62.8903 149.525 62.6408 150.516 62.1549C151.508 61.6624 152.401 60.9663 153.189 60.0733C153.977 59.1737 154.614 58.1033 155.106 56.8491C155.599 55.6015 155.842 54.216 155.842 52.6991C155.842 50.5321 155.323 48.8314 154.292 47.6035C153.254 46.3755 151.836 45.7583 150.024 45.7583C148.704 45.7583 147.496 46.0275 146.405 46.5528C145.309 47.0847 144.37 47.8136 143.582 48.7395C142.794 49.6654 142.183 50.7488 141.75 51.9899C141.316 53.231 141.1 54.564 141.1 55.9823C141.1 57.0067 141.244 57.9457 141.527 58.7863C141.809 59.6333 142.223 60.3622 142.768 60.9729C143.306 61.5836 143.976 62.0564 144.777 62.3913C145.572 62.7262 146.478 62.8969 147.482 62.8969L147.489 62.8903Z" fill="white"/>
<path d="M161.791 56.3632C161.89 56.4026 161.929 56.4617 161.909 56.5405C161.89 56.6193 161.798 56.6719 161.64 56.6916C161.325 56.7113 160.977 56.731 160.59 56.7507C160.209 56.7704 159.815 56.8032 159.421 56.836C159.027 57.821 158.705 58.7666 158.449 59.6728C158.193 60.5789 158.068 61.3275 158.068 61.9185C158.068 62.5883 158.324 62.9232 158.836 62.9232C159.349 62.9232 159.907 62.4701 160.517 61.5639C160.576 61.5245 160.636 61.5311 160.695 61.5771C160.754 61.6296 160.773 61.7018 160.754 61.8003C160.576 62.0761 160.373 62.3388 160.15 62.5817C159.926 62.8247 159.69 63.0414 159.454 63.2187C159.217 63.396 158.987 63.5404 158.777 63.6455C158.561 63.7571 158.383 63.8097 158.245 63.8097C157.812 63.8097 157.49 63.6783 157.287 63.4091C157.077 63.1399 156.978 62.8247 156.978 62.4504C156.978 61.8003 157.116 60.9861 157.392 60.0011C157.668 59.0161 158.009 58.0049 158.429 56.9542C158.173 56.9936 157.924 57.033 157.694 57.0724C157.457 57.1118 157.228 57.1512 157.011 57.1906C156.912 57.1709 156.886 57.125 156.939 57.0462C156.985 56.9674 157.077 56.8886 157.201 56.8098C157.333 56.731 157.484 56.6587 157.661 56.5865C157.838 56.5208 158.002 56.4814 158.16 56.4814C158.258 56.4617 158.344 56.4552 158.41 56.4552H158.633C158.909 55.8445 159.184 55.2601 159.46 54.6953C159.736 54.1372 160.012 53.6184 160.288 53.1456C160.406 53.0274 160.537 52.9224 160.688 52.837C160.833 52.7516 160.977 52.6925 161.115 52.6597C161.253 52.6334 161.364 52.6203 161.443 52.6334C161.522 52.6466 161.548 52.6794 161.529 52.7385C161.194 53.2507 160.865 53.822 160.537 54.4524C160.209 55.0828 159.9 55.7328 159.605 56.4026C159.959 56.4026 160.314 56.4026 160.668 56.3895C161.023 56.3829 161.397 56.3764 161.791 56.3764V56.3632Z" fill="white"/>
<path d="M166.841 56.3632C166.94 56.4026 166.979 56.4617 166.959 56.5405C166.94 56.6193 166.848 56.6719 166.69 56.6916C166.375 56.7113 166.027 56.731 165.639 56.7507C165.259 56.7704 164.865 56.8032 164.471 56.836C164.077 57.821 163.755 58.7666 163.499 59.6728C163.243 60.5789 163.118 61.3275 163.118 61.9185C163.118 62.5883 163.374 62.9232 163.886 62.9232C164.398 62.9232 164.957 62.4701 165.567 61.5639C165.626 61.5245 165.685 61.5311 165.744 61.5771C165.804 61.6296 165.823 61.7018 165.804 61.8003C165.626 62.0761 165.423 62.3388 165.199 62.5817C164.976 62.8247 164.74 63.0414 164.503 63.2187C164.267 63.396 164.037 63.5404 163.827 63.6455C163.61 63.7571 163.433 63.8097 163.295 63.8097C162.862 63.8097 162.54 63.6783 162.336 63.4091C162.126 63.1399 162.028 62.8247 162.028 62.4504C162.028 61.8003 162.166 60.9861 162.442 60.0011C162.717 59.0161 163.059 58.0049 163.479 56.9542C163.223 56.9936 162.973 57.033 162.744 57.0724C162.507 57.1118 162.277 57.1512 162.061 57.1906C161.962 57.1709 161.936 57.125 161.988 57.0462C162.034 56.9674 162.126 56.8886 162.251 56.8098C162.382 56.731 162.533 56.6587 162.711 56.5865C162.888 56.5208 163.052 56.4814 163.21 56.4814C163.308 56.4617 163.394 56.4552 163.459 56.4552H163.683C163.958 55.8445 164.234 55.2601 164.51 54.6953C164.786 54.1372 165.062 53.6184 165.337 53.1456C165.456 53.0274 165.587 52.9224 165.738 52.837C165.882 52.7516 166.027 52.6925 166.165 52.6597C166.303 52.6334 166.414 52.6203 166.493 52.6334C166.572 52.6466 166.598 52.6794 166.578 52.7385C166.244 53.2507 165.915 53.822 165.587 54.4524C165.259 55.0828 164.95 55.7328 164.654 56.4026C165.009 56.4026 165.364 56.4026 165.718 56.3895C166.073 56.3829 166.447 56.3764 166.841 56.3764V56.3632Z" fill="white"/>
<path d="M171.897 57.5385C171.897 57.8143 171.785 58.0704 171.569 58.3068C171.352 58.5432 171.056 58.7533 170.682 58.9438C170.308 59.1342 169.881 59.3049 169.395 59.4625C168.909 59.6201 168.404 59.7712 167.872 59.9025C167.852 60.1192 167.839 60.3359 167.826 60.5526C167.813 60.7693 167.813 61.0057 167.813 61.2618C167.813 61.7542 167.918 62.1679 168.141 62.5028C168.358 62.8377 168.66 63.0085 169.054 63.0085C169.448 63.0085 169.815 62.91 170.163 62.713C170.505 62.516 170.82 62.2533 171.096 61.9184C171.175 61.879 171.234 61.8921 171.273 61.9447C171.313 62.0038 171.313 62.076 171.273 62.1548C170.938 62.6079 170.518 62.9953 170.019 63.3236C169.513 63.652 168.988 63.8096 168.436 63.8096C167.924 63.8096 167.504 63.6454 167.182 63.3105C166.86 62.9756 166.696 62.4831 166.696 61.833C166.696 61.2421 166.801 60.6182 167.025 59.955C167.241 59.2984 167.524 58.6877 167.878 58.1361C168.233 57.5845 168.64 57.1314 169.106 56.7768C169.572 56.4222 170.058 56.2449 170.571 56.2449C170.945 56.2449 171.26 56.3763 171.516 56.6455C171.772 56.9082 171.897 57.2102 171.897 57.5451V57.5385ZM169.947 57.0132C169.494 57.0132 169.093 57.2102 168.738 57.6042C168.384 57.9982 168.128 58.622 167.97 59.4625C168.916 59.3246 169.612 59.1211 170.052 58.8584C170.492 58.5892 170.715 58.2937 170.715 57.9588C170.715 57.683 170.643 57.4597 170.505 57.2759C170.367 57.0986 170.177 57.0132 169.94 57.0132H169.947Z" fill="white"/>
<path d="M175.47 57.0724C175.47 57.3679 175.444 57.7093 175.384 58.1099C175.325 58.5039 175.247 58.8979 175.148 59.2919C175.542 58.3463 175.975 57.6043 176.448 57.0593C176.921 56.5142 177.433 56.245 177.985 56.245C178.202 56.245 178.399 56.3041 178.576 56.4223C178.753 56.5405 178.845 56.7112 178.845 56.9214C178.845 57.079 178.786 57.2825 178.668 57.5255C178.55 57.775 178.431 57.9523 178.313 58.0705C178.195 58.1493 178.136 58.123 178.136 57.9851C178.136 57.6502 177.913 57.4861 177.453 57.4861C176.763 57.4861 176.14 58.0048 175.595 59.0358C175.05 60.0667 174.524 61.5048 174.032 63.3369C173.992 63.5339 173.861 63.6652 173.631 63.7177C173.401 63.7768 173.211 63.8031 173.053 63.8031C172.837 63.8031 172.791 63.698 172.909 63.4748C173.086 63.0611 173.25 62.6145 173.408 62.1286C173.566 61.6493 173.717 61.1568 173.868 60.6643C174.012 60.1718 174.137 59.6859 174.235 59.2131C174.334 58.7403 174.413 58.3069 174.472 57.9129C174.551 57.3219 174.452 57.0264 174.176 57.0264C174.019 57.0264 173.835 57.1118 173.631 57.2891C173.421 57.4664 173.231 57.6699 173.053 57.9129C172.975 57.9523 172.909 57.9457 172.85 57.8998C172.791 57.8538 172.778 57.7881 172.824 57.7093C173.119 57.335 173.447 56.9936 173.815 56.6915C174.183 56.3895 174.518 56.2319 174.833 56.2319C175.266 56.2319 175.483 56.5077 175.483 57.0593L175.47 57.0724Z" fill="white"/>
<path d="M183.743 56.3632C183.842 56.4026 183.881 56.4617 183.862 56.5405C183.842 56.6193 183.75 56.6719 183.592 56.6916C183.277 56.7113 182.929 56.731 182.542 56.7507C182.161 56.7704 181.767 56.8032 181.373 56.836C180.979 57.821 180.657 58.7666 180.401 59.6728C180.145 60.5789 180.02 61.3275 180.02 61.9185C180.02 62.5883 180.276 62.9232 180.789 62.9232C181.301 62.9232 181.859 62.4701 182.47 61.5639C182.529 61.5245 182.588 61.5311 182.647 61.5771C182.706 61.6296 182.726 61.7018 182.706 61.8003C182.529 62.0761 182.325 62.3388 182.102 62.5817C181.879 62.8247 181.642 63.0414 181.406 63.2187C181.169 63.396 180.94 63.5404 180.729 63.6455C180.513 63.7571 180.335 63.8097 180.198 63.8097C179.764 63.8097 179.442 63.6783 179.239 63.4091C179.029 63.1399 178.93 62.8247 178.93 62.4504C178.93 61.8003 179.068 60.9861 179.344 60.0011C179.62 59.0161 179.961 58.0049 180.381 56.9542C180.125 56.9936 179.876 57.033 179.646 57.0724C179.41 57.1118 179.18 57.1512 178.963 57.1906C178.865 57.1709 178.838 57.125 178.891 57.0462C178.937 56.9674 179.029 56.8886 179.153 56.8098C179.285 56.731 179.436 56.6587 179.613 56.5865C179.79 56.5208 179.955 56.4814 180.112 56.4814C180.211 56.4617 180.296 56.4552 180.362 56.4552H180.585C180.861 55.8445 181.137 55.2601 181.412 54.6953C181.688 54.1372 181.964 53.6184 182.24 53.1456C182.358 53.0274 182.489 52.9224 182.64 52.837C182.785 52.7516 182.929 52.6925 183.067 52.6597C183.205 52.6334 183.317 52.6203 183.395 52.6334C183.474 52.6466 183.5 52.6794 183.481 52.7385C183.146 53.2507 182.818 53.822 182.489 54.4524C182.161 55.0828 181.852 55.7328 181.557 56.4026C181.911 56.4026 182.266 56.4026 182.621 56.3895C182.975 56.3829 183.349 56.3764 183.743 56.3764V56.3632Z" fill="white"/>
<path d="M187.493 56.245C188.025 56.245 188.419 56.4223 188.675 56.7769C188.931 57.1315 189.056 57.5977 189.056 58.169C189.056 58.8388 188.925 59.5086 188.675 60.1784C188.419 60.8482 188.097 61.4523 187.703 61.9973C187.309 62.5423 186.883 62.9757 186.416 63.3106C185.95 63.6455 185.523 63.8097 185.129 63.8097C184.657 63.8097 184.282 63.6192 184.006 63.2449C183.731 62.8707 183.593 62.3388 183.593 61.6493C183.593 61.0977 183.698 60.5067 183.921 59.8763C184.138 59.2459 184.427 58.6615 184.794 58.1165C185.156 57.5715 185.569 57.1249 186.036 56.7704C186.502 56.4158 186.988 56.2385 187.5 56.2385L187.493 56.245ZM185.72 62.8904C186.016 62.8904 186.305 62.7853 186.594 62.5817C186.876 62.3716 187.132 62.0958 187.349 61.7543C187.566 61.4129 187.736 61.0123 187.868 60.5592C187.999 60.1061 188.058 59.6334 188.058 59.1409C188.058 58.5499 187.96 58.0837 187.763 57.7356C187.566 57.3876 187.244 57.2169 186.784 57.2169C186.489 57.2169 186.206 57.3219 185.93 57.5255C185.655 57.7356 185.412 58.0114 185.208 58.3529C184.998 58.7009 184.84 59.1015 184.722 59.5677C184.604 60.0339 184.545 60.5198 184.545 61.032C184.545 62.2731 184.939 62.8969 185.727 62.8969L185.72 62.8904Z" fill="white"/>
<path d="M197.691 61.9119C197.75 61.8725 197.809 61.8725 197.868 61.9119C197.927 61.9513 197.947 62.0104 197.927 62.0892C197.592 62.5423 197.225 62.9428 196.818 63.2843C196.41 63.6258 196.036 63.8031 195.681 63.8031C195.071 63.8031 194.762 63.4091 194.762 62.6211C194.762 61.9513 194.88 61.2093 195.117 60.3885C195.353 59.5677 195.681 58.7468 196.095 57.9195C196.174 57.7816 196.213 57.6437 196.213 57.5058C196.213 57.2891 196.115 57.1774 195.918 57.1774C195.189 57.1774 194.388 57.6765 193.508 58.6812C192.628 59.6859 191.82 61.2618 191.072 63.4091C191.032 63.5273 190.927 63.6192 190.75 63.6914C190.573 63.7637 190.402 63.7965 190.244 63.7965C190.028 63.7965 189.949 63.7111 190.008 63.5273C190.343 62.6802 190.691 61.7215 191.059 60.6643C191.42 59.6005 191.742 58.5498 192.017 57.4992C192.096 57.1249 192.024 56.9345 191.807 56.9345C191.61 56.9345 191.413 57.033 191.216 57.23C191.019 57.427 190.809 57.6831 190.592 57.9983C190.553 58.0377 190.507 58.0245 190.461 57.972C190.409 57.9129 190.395 57.8538 190.415 57.7947C190.632 57.4598 190.927 57.1118 191.302 56.7572C191.676 56.4026 192.076 56.2253 192.51 56.2253C193.002 56.2253 193.167 56.5602 193.015 57.23C192.937 57.6634 192.825 58.123 192.687 58.6024C192.549 59.0883 192.398 59.5611 192.247 60.0339C192.523 59.502 192.845 58.9964 193.219 58.5301C193.593 58.0574 193.981 57.6568 194.388 57.3153C194.795 56.9804 195.196 56.7178 195.603 56.5208C196.003 56.3238 196.384 56.2253 196.739 56.2253C196.975 56.2253 197.159 56.2844 197.284 56.4026C197.408 56.5208 197.474 56.6587 197.474 56.8163C197.474 57.0724 197.415 57.3285 197.297 57.5846C196.883 58.3331 196.535 59.1146 196.246 59.9354C195.957 60.7562 195.819 61.5048 195.819 62.1943C195.819 62.6868 195.977 62.9297 196.292 62.9297C196.706 62.9297 197.166 62.5883 197.678 61.8922L197.691 61.9119Z" fill="white"/>
<mask id="mask0_537_93" style="mask-type:luminance" maskUnits="userSpaceOnUse" x="0" y="0" width="74" height="72">
<path d="M73.347 0.0815125H0.924805V71.2561H73.347V0.0815125Z" fill="white"/>
</mask>
<g mask="url(#mask0_537_93)">
<path d="M50.713 27.0042C52.1576 25.8485 53.5169 24.7651 54.8696 23.6816C54.8171 23.6028 54.7645 23.5174 54.712 23.4321C53.2477 24.3251 51.7768 25.2247 50.2862 26.1309C48.743 25.1525 48.6642 24.9949 49.4982 23.3533C51.698 18.9996 55.454 16.8064 60.0703 15.9068C62.1847 15.4931 64.3385 15.3093 66.6171 15.0072C64.6406 20.1948 62.6181 25.1262 57.3189 27.5624C55.9596 28.1862 54.4428 28.4948 52.9719 28.8626C51.5798 29.2106 51.3959 27.9301 50.7196 26.9977" fill="#FCB974"/>
<path d="M49.1503 28.2979C53.5959 34.582 51.8098 42.974 45.1579 47.367C36.733 52.942 25.1431 48.2929 22.9696 38.4694C22.766 37.5961 22.766 36.6636 22.6807 35.7771C22.7989 28.5343 28.8663 22.4011 36.1749 22.1647C41.5463 21.994 45.9984 23.8523 49.1438 28.2979H49.1503Z" fill="#FCB975"/>
<path d="M28.9314 71.0328C27.848 67.152 26.2392 63.3631 27.1125 59.1605C27.6313 56.6652 28.6359 54.4457 30.3958 52.5546C31.3479 51.5302 32.2869 50.9655 33.7513 51.9439C33.3835 53.7103 32.9896 55.5752 32.6021 57.4401C32.7138 57.4795 32.8254 57.5123 32.937 57.5517C33.5346 55.7328 34.1256 53.9138 34.7494 52.0161C35.7803 51.7338 36.3254 52.1606 36.7128 53.336C38.0589 57.3744 37.4285 61.183 35.1171 64.5779C33.4689 66.9878 31.302 69.0431 29.3648 71.256C29.2204 71.1838 29.0759 71.1116 28.9314 71.0393" fill="#FCB974"/>
<path d="M26.7644 17.3055C27.5918 18.8683 28.4258 20.4311 29.2728 22.0202C28.4061 23.0906 27.4671 23.0774 26.2457 22.3157C22.3255 19.8664 20.1716 16.3533 19.6989 11.8159C19.4625 9.57667 19.4625 7.31121 19.3508 4.98666C26.5674 7.8825 32.0505 12.1179 32.1884 19.7942C32.2081 20.812 31.7484 21.1075 30.9473 21.4358C30.0411 21.8101 29.785 21.16 29.4436 20.6675C28.6359 19.4987 27.8742 18.2904 27.0993 17.1019C26.9877 17.1741 26.8761 17.2398 26.771 17.312" fill="#FCB974"/>
<path d="M44.6845 21.8299C45.571 20.2145 46.4378 18.6451 47.298 17.0823C47.2126 17.0166 47.1273 16.9575 47.0353 16.8918C45.9715 18.3824 44.9143 19.873 43.8112 21.4227C42.6292 21.3833 42.0776 20.858 42.1301 19.4725C42.3009 14.8825 44.3299 11.3037 48.0006 8.70338C50.0559 7.24561 52.3279 6.08334 54.554 4.75034C55.2041 12.026 54.5146 18.1132 48.3289 22.1057C46.313 23.4058 46.9828 23.327 44.6911 21.8299" fill="#FCB974"/>
<path d="M53.5562 33.3672C55.3554 33.1899 57.0561 33.0257 58.7569 32.855C58.7503 32.7499 58.7372 32.6383 58.7306 32.5332H53.4314C52.6172 31.3316 52.8536 30.6027 54.1012 29.8738C58.6846 27.2078 63.3403 27.3588 68.0682 29.3091C69.8543 30.0445 71.5747 30.9441 73.3411 31.7715C69.6048 36.1711 61.2259 38.6007 55.9924 36.8409C54.4427 36.3199 53.6284 35.1642 53.5496 33.3738" fill="#FCB974"/>
<path d="M46.6016 49.3633C47.7573 48.3827 48.8801 48.3367 49.9702 49.2254C50.6859 49.8098 51.382 50.414 52.0977 50.9984C52.1503 51.0378 52.2488 51.0246 52.6887 51.0903C51.3689 49.6982 50.2525 48.5228 49.1297 47.3343C49.7141 45.8568 50.791 45.6926 52.2159 46.172C55.6371 47.3342 58.4344 49.3699 60.0761 52.5546C61.4288 55.1747 62.289 58.0443 63.4907 61.1305C58.881 60.1521 54.639 59.5086 51.1653 56.685C48.8998 54.8464 47.5997 52.7976 46.6016 49.3633Z" fill="#FCB974"/>
<path d="M19.043 24.2857C20.4548 25.3232 21.8666 26.3607 23.2587 27.3786C22.8844 28.9611 21.9323 29.2631 20.3891 29.0333C16.1143 28.3898 12.7785 26.3016 10.3883 22.7689C9.08159 20.8317 8.02438 18.7304 6.80957 16.6423C14.5187 15.9397 21.6433 17.7849 24.8872 23.8917C25.4125 24.8833 25.0054 25.3429 24.4604 26.0259C23.8366 26.8073 23.3178 26.341 22.7859 26.0521C21.5908 25.402 20.4154 24.706 19.2334 24.0231C19.1743 24.115 19.1087 24.2004 19.043 24.2923" fill="#FCB974"/>
<path d="M41.5979 51.7206C41.6242 54.0911 42.3137 56.2646 43.7714 58.1755C43.4103 55.8706 43.0557 53.5592 42.7142 51.3726C43.7977 50.4664 44.4872 50.624 45.3277 51.4908C48.8999 55.1877 49.7338 59.5742 48.6832 64.4202C48.2498 66.4296 47.5472 68.3799 46.9037 70.5731C43.0688 66.7645 39.0895 63.3433 38.7349 57.6633C38.6495 56.304 38.9188 54.9185 39.0501 53.5527C39.1946 52.0686 40.0942 51.5499 41.6045 51.7206" fill="#FCB974"/>
<path d="M37.0144 0.0815125C39.6804 4.40885 42.3595 8.19117 42.1165 13.1358C42.0049 15.5457 41.368 17.7783 39.9168 19.7154C39.6672 20.0503 39.0106 20.2539 38.5641 20.221C38.2883 20.2013 37.8614 19.6563 37.822 19.3083C37.5594 17.2136 37.3887 15.1123 37.1457 12.6367C36.0688 15.2633 36.2132 17.647 36.6729 19.9912C35.399 20.5888 34.6635 20.3458 33.9806 19.1638C32.0304 15.7952 31.5838 12.2099 32.8446 8.63769C33.8624 5.76812 35.4975 3.12838 37.0078 0.0815125" fill="#FCB974"/>
<path d="M72.9662 46.0931C67.91 47.7019 63.3003 49.3633 58.2966 47.8398C56.1362 47.1832 54.2582 46.0931 52.61 44.5434C51.8614 43.8408 51.6381 43.2498 52.2357 42.6983C54.6325 43.0463 56.8585 43.3746 59.0846 43.7029C59.124 43.5191 59.1634 43.3286 59.2028 43.1448C57.1146 42.475 55.033 41.8052 53.0171 41.1617C52.9974 39.7039 53.6869 39.218 54.8032 38.9159C58.9401 37.8128 62.8275 38.5022 66.3274 40.794C68.5863 42.2714 70.5694 44.1692 72.9531 46.0997" fill="#FCB974"/>
<path d="M25.8061 47.8136C25.0247 49.0875 24.2695 50.3155 23.5144 51.5434C23.5997 51.6025 23.6851 51.6682 23.7704 51.7273C24.6898 50.6241 25.6025 49.5275 26.5218 48.4309C28.8792 49.9215 28.9186 49.9806 28.0847 52.6137C27.2507 55.2272 25.8258 57.5518 23.5931 59.1015C21.0453 60.8679 18.2414 62.2534 15.2537 63.9804C15.2865 57.184 15.884 51.1297 21.8005 47.1767C23.9477 45.7452 23.9609 45.7583 25.8061 47.8136Z" fill="#FCB974"/>
<path d="M3.19751 49.79C5.88978 45.9092 8.17494 42.14 12.3841 40.1898C14.8334 39.0538 17.3746 38.5481 20.0538 38.975C20.4346 39.0341 20.9468 39.4478 21.0388 39.7958C21.1307 40.1504 20.9074 40.8005 20.6054 41.004C19.3512 41.8511 18.0182 42.5866 16.7049 43.3417C16.1598 43.6569 15.5885 43.913 15.0829 44.3201C17.4994 44.156 19.6467 43.3089 21.5247 41.7986C22.7986 43.6306 22.8314 43.7423 21.4065 45.3511C18.0247 49.1793 13.6317 50.4073 8.70026 50.1709C6.95356 50.0855 5.22 49.9279 3.19751 49.7835" fill="#FCB974"/>
<path d="M1.05684 32.3429C5.00332 30.478 8.82504 28.252 13.4544 28.5409C15.9432 28.6985 18.2743 29.2698 20.3821 30.6553C21.0585 31.1018 21.4328 31.4827 21.1438 32.4217C20.8483 33.3738 20.2048 33.3279 19.535 33.3344C17.9788 33.3607 16.4225 33.341 14.8662 33.341C14.84 33.4986 14.8137 33.6562 14.7809 33.8138C16.6983 34.1947 18.6157 34.5755 20.6185 34.9761C21.0782 36.2106 20.2902 36.8016 19.1279 37.235C15.6411 38.5154 12.1017 38.5548 8.73968 37.0839C6.0277 35.902 3.51929 34.2341 0.918945 32.7894C0.958344 32.6384 1.00431 32.4874 1.04371 32.3363" fill="#FCB974"/>
</g>
<path d="M108.262 13.845C108.419 14.0026 108.406 14.1996 108.222 14.4426C107.796 15.0533 107.48 15.3159 107.27 15.2371C106.955 15.1321 106.633 15.0336 106.318 14.9417C106.003 14.8497 105.668 14.7644 105.327 14.6856C103.843 14.8169 102.516 15.5917 101.354 17.0101C100.185 18.4285 99.141 20.6611 98.2151 23.708C96.8361 28.1863 94.9187 31.5484 92.4694 33.7876C90.0201 36.0268 87.0586 37.1496 83.5849 37.1496C82.6327 37.1496 81.8119 37.0249 81.1224 36.7688C80.4329 36.5193 79.8617 36.1844 79.4151 35.7772C78.9621 35.3701 78.6337 34.8908 78.4236 34.3457C78.2135 33.8007 78.1084 33.2491 78.1084 32.6975C78.1084 31.1084 78.8898 29.782 80.4527 28.7248C80.5577 28.7248 80.6234 28.7773 80.6497 28.8824C80.6759 28.9874 80.6628 29.0794 80.6102 29.1582C80.236 29.4537 79.9667 29.7623 79.796 30.0906C79.6253 30.4255 79.5399 30.8917 79.5399 31.5024C79.5399 32.8551 80.0127 33.9189 80.9517 34.7003C81.8907 35.4817 83.2894 35.8757 85.1477 35.8757C86.4216 35.8757 87.5839 35.705 88.6477 35.357C89.7049 35.0155 90.6833 34.4245 91.5698 33.5906C92.4563 32.7566 93.2771 31.6338 94.0322 30.2285C94.7874 28.8233 95.5097 27.0635 96.1992 24.9425C97.1513 21.9744 98.2939 19.5842 99.6203 17.7653C100.947 15.9529 102.444 14.8169 104.112 14.3638C102.339 13.9107 100.494 13.5561 98.5828 13.2935C96.672 13.0308 94.7808 12.8929 92.8962 12.8929C91.4122 12.8929 90.0923 13.1359 88.9432 13.6283C87.7875 14.1208 86.8287 14.7775 86.0605 15.5983C85.2922 16.4191 84.734 17.3778 84.3926 18.481C84.0511 19.5842 83.9526 20.7268 84.1168 21.9219C83.9592 22.1583 83.8147 22.1714 83.6768 21.9613C83.5192 20.6611 83.6177 19.3938 83.9723 18.1461C84.3269 16.8985 84.9442 15.7887 85.8175 14.8103C86.6908 13.8319 87.8334 13.0505 89.2387 12.4661C90.6439 11.8817 92.2987 11.5927 94.2095 11.5927C97.0463 11.5927 99.6203 11.8226 101.945 12.2888C104.263 12.755 106.377 13.2738 108.288 13.8582L108.262 13.845Z" fill="white"/>
<path d="M100.073 36.8279C101.268 32.2708 102.601 28.1601 104.085 24.5026C105.569 20.845 107.125 17.7325 108.754 15.1584C110.382 12.5909 112.043 10.6078 113.744 9.21569C115.438 7.82358 117.08 7.12753 118.676 7.12753C119.26 7.12753 119.739 7.23916 120.127 7.46243C120.508 7.68569 120.777 7.97462 120.921 8.31607C121.066 8.6641 121.105 9.04496 121.04 9.47178C120.974 9.89861 120.783 10.3057 120.462 10.7063C120.409 10.7851 120.343 10.8114 120.265 10.7851C120.186 10.7588 120.146 10.6932 120.146 10.5881C120.252 10.0562 120.094 9.55715 119.667 9.07779C119.24 8.59844 118.57 8.36204 117.638 8.36204C116.39 8.36204 115.123 8.85453 113.823 9.83294C112.523 10.8114 111.223 12.3151 109.929 14.3441C108.629 16.3732 107.348 18.921 106.094 21.9941C104.833 25.0673 103.625 28.7117 102.456 32.9274C102.883 32.1066 103.369 31.3317 103.927 30.6029C104.485 29.874 105.05 29.2436 105.634 28.7117C106.219 28.1798 106.81 27.7661 107.401 27.4575C107.992 27.1489 108.576 26.9978 109.128 26.9978C109.443 26.9978 109.686 27.0766 109.844 27.2342C110.001 27.3918 110.08 27.5757 110.08 27.7924C110.08 28.1338 109.962 28.5213 109.725 28.9415C109.167 29.9199 108.714 30.9312 108.353 31.9621C107.998 32.9931 107.815 33.9387 107.815 34.7857C107.815 35.16 107.86 35.4621 107.952 35.6985C108.044 35.9349 108.195 36.0531 108.412 36.0531C108.675 36.0531 108.964 35.9152 109.266 35.6328C109.568 35.357 109.844 35.0418 110.08 34.7004C110.159 34.6478 110.238 34.6544 110.316 34.7201C110.395 34.7857 110.421 34.8711 110.395 34.9762C110.238 35.2126 110.041 35.4621 109.798 35.7116C109.561 35.9611 109.299 36.2041 109.023 36.4274C108.747 36.6506 108.458 36.8345 108.169 36.9658C107.88 37.0972 107.611 37.1628 107.375 37.1628C106.711 37.1628 106.383 36.6047 106.383 35.4949C106.383 34.5428 106.541 33.4987 106.862 32.3758C107.178 31.2529 107.565 30.2483 108.018 29.3749C108.176 29.1123 108.254 28.8824 108.254 28.6986C108.254 28.4622 108.11 28.344 107.815 28.344C107.335 28.344 106.823 28.5278 106.265 28.9021C105.707 29.2764 105.135 29.8149 104.558 30.5306C103.973 31.2464 103.415 32.1132 102.89 33.1375C102.358 34.1553 101.885 35.3045 101.458 36.5784C101.406 36.7623 101.268 36.9067 101.038 37.0184C100.815 37.1234 100.591 37.176 100.381 37.176C100.092 37.176 99.9807 37.0578 100.066 36.8214L100.073 36.8279Z" fill="white"/>
<path d="M118.833 28.7575C118.833 29.1318 118.689 29.4733 118.393 29.7884C118.104 30.1036 117.704 30.3926 117.198 30.6421C116.692 30.8916 116.115 31.128 115.471 31.3381C114.821 31.5483 114.138 31.7518 113.422 31.9357C113.396 32.2246 113.376 32.5201 113.363 32.809C113.35 33.098 113.344 33.4197 113.344 33.7612C113.344 34.4244 113.488 34.9826 113.784 35.4291C114.072 35.8822 114.486 36.1054 115.018 36.1054C115.55 36.1054 116.042 35.9741 116.509 35.7049C116.975 35.4422 117.389 35.0811 117.763 34.6345C117.868 34.582 117.947 34.5951 117.999 34.6739C118.052 34.7527 118.052 34.8447 117.999 34.9497C117.546 35.5604 116.988 36.0857 116.312 36.5191C115.635 36.9525 114.926 37.1758 114.184 37.1758C113.495 37.1758 112.93 36.9525 112.496 36.4994C112.057 36.0463 111.84 35.3831 111.84 34.5098C111.84 33.7152 111.984 32.8747 112.28 31.9882C112.569 31.1018 112.956 30.2875 113.436 29.5455C113.915 28.8035 114.46 28.1928 115.084 27.72C115.708 27.2406 116.364 27.0042 117.054 27.0042C117.559 27.0042 117.98 27.1815 118.328 27.5427C118.669 27.8973 118.846 28.3044 118.846 28.7575H118.833ZM116.213 28.0418C115.602 28.0418 115.057 28.3044 114.585 28.8363C114.105 29.3682 113.764 30.2021 113.554 31.3381C114.828 31.1543 115.76 30.8785 116.358 30.5239C116.955 30.1693 117.251 29.7622 117.251 29.3091C117.251 28.9414 117.159 28.6327 116.975 28.3963C116.791 28.1599 116.535 28.0418 116.22 28.0418H116.213Z" fill="white"/>
<path d="M142.525 11.5402C143.773 11.5402 144.896 11.7766 145.907 12.2559C146.912 12.7353 147.765 13.3985 148.468 14.2456C149.171 15.0927 149.716 16.0974 150.096 17.2465C150.477 18.3956 150.674 19.663 150.674 21.042C150.674 23.2155 150.254 25.2774 149.42 27.2211C148.586 29.1713 147.49 30.8786 146.143 32.3495C144.791 33.8204 143.241 34.9958 141.494 35.8692C139.748 36.7425 137.955 37.1825 136.129 37.1825C134.724 37.1825 133.49 36.9329 132.432 36.4273C131.375 35.9217 130.482 35.2519 129.766 34.3983C129.051 33.5446 128.506 32.5662 128.138 31.4565C127.764 30.3401 127.58 29.1779 127.58 27.9565C127.58 25.9406 127.961 23.9509 128.736 21.9744C129.504 19.9979 130.561 18.2446 131.914 16.708C133.266 15.1715 134.849 13.9238 136.661 12.9717C138.474 12.0195 140.431 11.5402 142.525 11.5402ZM137.837 35.948C139.216 35.948 140.575 35.6196 141.915 34.9564C143.254 34.2932 144.449 33.3607 145.513 32.1525C146.57 30.9443 147.437 29.4996 148.1 27.8186C148.763 26.1376 149.092 24.2727 149.092 22.2305C149.092 19.315 148.396 17.0298 147.004 15.375C145.612 13.7203 143.694 12.8929 141.258 12.8929C139.485 12.8929 137.856 13.2475 136.386 13.9632C134.915 14.679 133.647 15.6574 132.59 16.905C131.533 18.1527 130.706 19.6104 130.128 21.2783C129.543 22.9462 129.254 24.7389 129.254 26.6432C129.254 28.0222 129.445 29.2829 129.832 30.4189C130.213 31.5615 130.771 32.5399 131.5 33.3608C132.229 34.1816 133.129 34.8185 134.205 35.2716C135.276 35.7247 136.491 35.948 137.843 35.948H137.837Z" fill="white"/>
<path d="M166.46 7.64624C167.15 7.64624 167.596 7.96143 167.793 8.59839C167.99 9.23534 167.905 9.91169 167.537 10.6274C167.485 10.68 167.419 10.68 167.34 10.6274C167.261 10.5749 167.209 10.5092 167.183 10.4304C167.235 10.1153 167.123 9.84603 166.848 9.6359C166.572 9.42577 166.138 9.3207 165.554 9.3207C164.411 9.3207 163.289 9.80006 162.172 10.7522C161.063 11.7044 159.986 12.9454 158.955 14.4689C157.924 15.9923 156.958 17.693 156.072 19.5776C155.185 21.4622 154.417 23.3337 153.767 25.2051C153.117 27.0766 152.605 28.8364 152.237 30.4912C151.863 32.1459 151.679 33.4921 151.679 34.523C151.679 35.3176 151.902 35.7181 152.355 35.7181C152.67 35.7181 152.986 35.5868 153.288 35.3176C153.59 35.0549 153.944 34.6544 154.338 34.1225C154.417 34.0699 154.489 34.0765 154.555 34.1422C154.621 34.2078 154.64 34.2932 154.614 34.3983C154.082 35.2191 153.498 35.8889 152.867 36.4076C152.231 36.9264 151.686 37.1825 151.239 37.1825C150.898 37.1825 150.615 37.0446 150.405 36.7622C150.195 36.4864 150.09 36.1056 150.09 35.6262C150.09 34.8842 150.221 33.9255 150.484 32.7435C150.746 31.5615 151.121 30.2482 151.6 28.7904C152.079 27.3327 152.651 25.8027 153.327 24.2004C154.003 22.5982 154.739 21.0157 155.533 19.4529C156.328 17.89 157.169 16.3929 158.055 14.9613C158.942 13.5298 159.854 12.2691 160.8 11.1856C161.739 10.1021 162.691 9.23534 163.643 8.59839C164.595 7.96143 165.534 7.64624 166.467 7.64624H166.46Z" fill="white"/>
<path d="M178.149 7.12739C178.839 7.12739 179.278 7.39005 179.462 7.92194C179.646 8.45382 179.554 9.11704 179.187 9.91159C178.976 10.0692 178.845 10.0298 178.786 9.7934C178.839 9.42567 178.733 9.13018 178.471 8.92005C178.208 8.70992 177.834 8.60485 177.361 8.60485C176.409 8.60485 175.437 8.93318 174.459 9.5964C173.48 10.2596 172.522 11.1789 171.596 12.3609C170.67 13.5429 169.764 14.9218 168.89 16.5175C168.017 18.1066 167.209 19.827 166.467 21.6854C165.725 23.5437 165.055 25.4808 164.458 27.5099C163.86 29.5389 163.374 31.5746 163.007 33.6102C162.902 34.2209 162.875 34.7593 162.928 35.219C162.98 35.6852 163.164 35.915 163.486 35.915C163.775 35.915 164.07 35.764 164.359 35.4554C164.648 35.1533 164.918 34.8119 165.154 34.4441C165.206 34.3916 165.279 34.3916 165.371 34.4441C165.463 34.4967 165.495 34.5755 165.469 34.6805C165.338 34.9169 165.154 35.1861 164.911 35.4751C164.675 35.7706 164.412 36.0398 164.136 36.2893C163.86 36.5388 163.571 36.7555 163.282 36.9263C162.994 37.097 162.724 37.1824 162.488 37.1824C162.035 37.1824 161.726 36.9919 161.555 36.6045C161.385 36.2236 161.326 35.7246 161.378 35.1139C161.404 34.6608 161.457 34.2406 161.536 33.84C161.615 33.4394 161.706 33.0192 161.812 32.5661C161.575 33.1243 161.253 33.6627 160.859 34.1749C160.459 34.6937 160.052 35.1599 159.625 35.5867C159.198 36.0135 158.784 36.3615 158.371 36.6373C157.957 36.9131 157.609 37.097 157.32 37.1758C156.867 37.1758 156.44 36.9854 156.026 36.5979C155.613 36.2171 155.409 35.5998 155.409 34.7462C155.409 33.7415 155.58 32.7631 155.928 31.8241C156.269 30.8851 156.742 30.0577 157.34 29.3419C157.937 28.6262 158.627 28.0483 159.408 27.6149C160.19 27.175 161.03 26.9583 161.93 26.9583C162.219 26.9583 162.481 26.9977 162.705 27.0765C162.928 27.1553 163.138 27.2603 163.322 27.3917C163.801 25.9602 164.372 24.463 165.049 22.9002C165.725 21.3373 166.461 19.8073 167.255 18.3102C168.05 16.813 168.89 15.3881 169.777 14.0354C170.663 12.6827 171.576 11.5007 172.522 10.4763C173.461 9.4585 174.413 8.64425 175.365 8.03357C176.317 7.42288 177.249 7.12082 178.149 7.12082V7.12739ZM158.029 35.7903C158.318 35.7903 158.673 35.6261 159.08 35.2912C159.494 34.9629 159.901 34.5295 160.314 33.9976C160.722 33.4657 161.122 32.8485 161.509 32.1458C161.89 31.4432 162.219 30.7209 162.481 29.9789C162.56 29.7162 162.639 29.4601 162.718 29.2237C162.797 28.9873 162.862 28.7444 162.915 28.508C162.81 28.1928 162.613 27.9564 162.317 27.8119C162.028 27.6675 161.693 27.5952 161.326 27.5952C160.767 27.5952 160.222 27.7594 159.697 28.0943C159.165 28.4226 158.699 28.8823 158.285 29.4667C157.872 30.0511 157.543 30.7406 157.294 31.5352C157.044 32.3297 156.913 33.2031 156.913 34.1618C156.913 34.7199 157.025 35.127 157.248 35.3963C157.471 35.6589 157.734 35.7968 158.023 35.7968L158.029 35.7903Z" fill="white"/>
<path d="M201.361 16.2745C201.361 18.3167 200.921 20.2013 200.048 21.9414C199.174 23.675 198.019 25.3626 196.587 26.9911C195.156 28.6196 193.527 30.2678 191.695 31.9225C189.863 33.5773 187.998 35.3503 186.087 37.2283C185.903 37.2283 185.792 37.1823 185.752 37.0904C185.713 36.9985 185.713 36.8737 185.752 36.7095C185.792 36.5454 185.851 36.3812 185.93 36.1908C186.008 36.0069 186.087 35.8231 186.166 35.6326C186.75 34.2274 187.223 32.6843 187.597 31.0032C187.965 29.3222 188.202 27.6412 188.293 25.9536C188.385 24.2725 188.346 22.644 188.175 21.0615C188.005 19.4855 187.657 18.0869 187.144 16.8655C186.632 15.6441 185.943 14.6723 185.096 13.9434C184.249 13.2145 183.198 12.8468 181.957 12.8468C180.151 12.8468 178.687 13.6085 177.544 15.1319C176.402 16.6554 175.449 18.8749 174.681 21.7904C174.629 21.8955 174.55 21.9349 174.445 21.9086C174.34 21.8823 174.287 21.8167 174.287 21.7116C175.055 18.4021 176.139 15.8805 177.544 14.1601C178.949 12.4397 180.643 11.5795 182.633 11.5795C183.855 11.5795 184.899 11.8815 185.772 12.4922C186.645 13.1029 187.374 13.9368 187.959 14.994C188.543 16.0578 188.963 17.3055 189.233 18.7501C189.495 20.1947 189.627 21.7576 189.627 23.4386C189.627 25.1196 189.489 26.886 189.206 28.7246C188.93 30.5698 188.536 32.415 188.031 34.2734C189.883 32.7368 191.557 31.2922 193.041 29.9395C194.525 28.5867 195.773 27.2537 196.777 25.947C197.782 24.6337 198.557 23.3007 199.102 21.9546C199.647 20.6019 199.916 19.1572 199.916 17.6207C199.916 16.2942 199.614 15.2501 199.003 14.4819C198.393 13.7136 197.625 13.3064 196.699 13.2474C195.957 13.2211 195.32 13.753 194.788 14.8364C194.709 14.889 194.63 14.889 194.551 14.8364C194.473 14.7839 194.433 14.692 194.433 14.5607C194.565 14.1929 194.755 13.8252 195.011 13.464C195.261 13.1095 195.53 12.7877 195.806 12.5119C196.081 12.2361 196.37 12.0063 196.659 11.8355C196.948 11.6648 197.204 11.5795 197.414 11.5795C197.973 11.5795 198.485 11.6976 198.964 11.934C199.443 12.1704 199.857 12.5053 200.218 12.9256C200.573 13.3524 200.855 13.8449 201.052 14.4162C201.249 14.9875 201.348 15.6047 201.348 16.268L201.361 16.2745Z" fill="white"/>
<path d="M199.851 29.7885C199.772 29.8411 199.7 29.8214 199.634 29.7294C199.568 29.6375 199.562 29.5521 199.614 29.4733C199.982 29.1056 200.488 28.6788 201.125 28.1994C201.762 27.7201 202.399 27.3261 203.036 27.0043C203.246 27.0043 203.351 27.1225 203.351 27.3589C203.009 27.9696 202.668 28.6328 202.34 29.3486C202.011 30.0643 201.716 30.7735 201.466 31.4761C201.217 32.1787 201.006 32.8551 200.849 33.5052C200.691 34.1553 200.613 34.6937 200.613 35.114C200.613 35.6721 200.796 35.9479 201.171 35.9479C201.46 35.9479 201.749 35.8232 202.024 35.5671C202.3 35.3175 202.628 34.9761 202.996 34.5558C203.049 34.5033 203.114 34.5164 203.193 34.5952C203.272 34.674 203.285 34.766 203.233 34.871C202.753 35.4554 202.248 35.9873 201.703 36.4601C201.158 36.9395 200.652 37.1759 200.173 37.1759C199.483 37.1759 199.142 36.7359 199.142 35.8626C199.142 35.3569 199.227 34.7594 199.398 34.0568C199.568 33.3541 199.792 32.645 200.054 31.9292C200.317 31.2135 200.619 30.524 200.947 29.8608C201.276 29.1975 201.604 28.6263 201.919 28.1535C201.63 28.3636 201.263 28.6394 200.829 28.9677C200.389 29.3026 200.067 29.5718 199.857 29.782L199.851 29.7885ZM203.43 25.297C203.351 25.3758 203.279 25.3824 203.213 25.3167C203.147 25.2511 203.101 25.1591 203.075 25.0409C203.049 24.9227 203.036 24.7848 203.036 24.6207C203.036 24.4565 203.075 24.3317 203.154 24.2201C203.843 23.268 204.809 22.2436 206.056 21.1601C206.135 21.1338 206.214 21.1601 206.293 21.2192C206.371 21.2849 206.384 21.344 206.332 21.3965C205.774 21.9021 205.242 22.5063 204.743 23.2023C204.237 23.9049 203.804 24.601 203.43 25.2905V25.297Z" fill="white"/>
<path d="M210.785 30.2285C210.653 30.2285 210.588 30.1629 210.588 30.0315C210.798 29.4997 210.804 29.04 210.607 28.6394C210.41 28.2389 210.003 28.0419 209.393 28.0419C208.966 28.0419 208.572 28.1929 208.197 28.5015C207.823 28.8036 207.508 29.2304 207.245 29.7755C206.983 30.3205 206.766 30.9574 206.608 31.6863C206.451 32.4152 206.372 33.2032 206.372 34.0503C206.372 35.3504 206.825 36.0005 207.725 36.0005C208.756 36.0005 209.793 35.3767 210.824 34.1356C210.929 34.0831 211.021 34.0897 211.1 34.1553C211.179 34.221 211.192 34.3195 211.139 34.4508C210.529 35.2191 209.852 35.8758 209.11 36.4208C208.368 36.9658 207.639 37.235 206.924 37.235C206.339 37.235 205.86 37.0249 205.472 36.5981C205.085 36.1712 204.895 35.5934 204.895 34.8514C204.895 33.9255 205.046 32.9996 205.354 32.0672C205.656 31.1413 206.057 30.3073 206.549 29.5653C207.042 28.8233 207.6 28.2192 208.237 27.7595C208.874 27.2933 209.524 27.0635 210.187 27.0635C210.745 27.0635 211.179 27.1948 211.5 27.464C211.822 27.7333 211.98 28.0485 211.98 28.4162C211.98 28.5475 211.94 28.7051 211.862 28.8955C211.783 29.086 211.684 29.2698 211.566 29.4537C211.448 29.6376 211.317 29.8083 211.166 29.9527C211.021 30.0972 210.896 30.1957 210.785 30.2482V30.2285Z" fill="white"/>
<path d="M222.512 34.6805C222.565 34.628 222.63 34.628 222.709 34.6805C222.788 34.733 222.814 34.8118 222.788 34.9169C222.23 35.6852 221.678 36.2565 221.14 36.6242C220.595 36.9985 220.142 37.1823 219.767 37.1823C219.531 37.1823 219.334 37.0641 219.19 36.8277C219.045 36.5913 218.953 36.263 218.914 35.8559C218.874 35.4488 218.888 34.9825 218.953 34.4638C219.019 33.945 219.13 33.4131 219.288 32.855C218.572 33.9713 217.817 34.93 217.023 35.7377C216.228 36.5454 215.46 37.0313 214.718 37.1889C214.238 37.1889 213.838 36.9591 213.503 36.4928C213.175 36.0266 213.004 35.3043 213.004 34.3259C213.004 33.4525 213.181 32.5858 213.542 31.719C213.904 30.8522 214.383 30.0774 214.994 29.3747C215.604 28.6721 216.307 28.1074 217.101 27.6871C217.896 27.2669 218.73 27.0502 219.603 27.0502C220.083 27.0502 220.49 27.1027 220.838 27.2078C221.179 27.3128 221.501 27.4704 221.79 27.6871C221.948 27.5558 222.171 27.431 222.447 27.3063C222.722 27.1815 222.985 27.129 223.221 27.129C223.353 27.129 223.392 27.1946 223.34 27.326C222.729 28.068 222.204 28.8888 221.77 29.7884C221.33 30.688 220.995 31.568 220.759 32.415C220.523 33.2621 220.365 34.0107 220.299 34.6608C220.234 35.3109 220.28 35.7574 220.437 35.9938C220.569 36.1777 220.805 36.1842 221.153 36.0135C221.494 35.8428 221.948 35.3962 222.506 34.6805H222.512ZM215.591 35.8296C215.88 35.8296 216.261 35.6261 216.727 35.2124C217.193 34.8053 217.673 34.2668 218.178 33.6036C218.684 32.9404 219.176 32.1918 219.669 31.3578C220.161 30.5239 220.588 29.6834 220.963 28.8363C220.857 28.4948 220.608 28.2125 220.227 28.0023C219.84 27.7922 219.4 27.6871 218.894 27.6871C218.31 27.6871 217.758 27.8382 217.246 28.1468C216.734 28.4554 216.274 28.8757 215.873 29.4207C215.473 29.9657 215.158 30.6092 214.921 31.3513C214.685 32.0933 214.567 32.9141 214.567 33.8137C214.567 34.3981 214.665 34.8775 214.862 35.2649C215.059 35.6523 215.309 35.8428 215.598 35.8428L215.591 35.8296Z" fill="white"/>
<path d="M228.271 28.1206C228.271 28.5212 228.231 28.9808 228.153 29.5127C228.074 30.0446 227.969 30.5765 227.837 31.1018C228.369 29.8279 228.954 28.8298 229.584 28.1009C230.214 27.372 230.91 27.0043 231.652 27.0043C231.941 27.0043 232.211 27.0831 232.447 27.2407C232.683 27.3983 232.802 27.6216 232.802 27.9171C232.802 28.1272 232.723 28.403 232.565 28.7313C232.408 29.0596 232.25 29.3092 232.086 29.4668C231.928 29.5718 231.849 29.5324 231.849 29.3486C231.849 28.8955 231.547 28.6722 230.937 28.6722C230.011 28.6722 229.177 29.3683 228.435 30.7604C227.693 32.1525 226.99 34.083 226.327 36.5455C226.274 36.8081 226.097 36.9854 225.789 37.0642C225.486 37.143 225.224 37.1824 225.014 37.1824C224.725 37.1824 224.659 37.038 224.817 36.7425C225.053 36.1843 225.283 35.5868 225.493 34.9367C225.703 34.2866 225.913 33.6299 226.11 32.9667C226.307 32.3035 226.471 31.6534 226.609 31.0165C226.741 30.3795 226.846 29.7951 226.925 29.2698C227.03 28.4752 226.898 28.0747 226.524 28.0747C226.314 28.0747 226.064 28.1929 225.789 28.4293C225.513 28.6657 225.25 28.948 225.014 29.2632C224.909 29.3157 224.817 29.3092 224.738 29.2435C224.659 29.1778 224.646 29.0925 224.699 28.9874C225.093 28.4818 225.539 28.0287 226.032 27.615C226.524 27.2013 226.977 26.9978 227.404 26.9978C227.988 26.9978 228.277 27.372 228.277 28.1141L228.271 28.1206Z" fill="white"/>
<path d="M241.949 34.6805C242.001 34.628 242.067 34.628 242.146 34.6805C242.225 34.733 242.251 34.8118 242.225 34.9169C241.666 35.6852 241.115 36.2565 240.576 36.6242C240.031 36.9985 239.578 37.1823 239.204 37.1823C238.968 37.1823 238.771 37.0641 238.626 36.8277C238.482 36.5913 238.39 36.263 238.35 35.8559C238.311 35.4488 238.324 34.9825 238.39 34.4638C238.455 33.945 238.567 33.4131 238.725 32.855C238.009 33.9713 237.254 34.93 236.459 35.7377C235.665 36.5454 234.896 37.0313 234.154 37.1889C233.675 37.1889 233.274 36.9591 232.939 36.4928C232.611 36.0266 232.44 35.3043 232.44 34.3259C232.44 33.4525 232.618 32.5858 232.979 31.719C233.34 30.8522 233.819 30.0774 234.43 29.3747C235.041 28.6721 235.743 28.1074 236.538 27.6871C237.332 27.2669 238.166 27.0502 239.04 27.0502C239.519 27.0502 239.926 27.1027 240.274 27.2078C240.616 27.3128 240.937 27.4704 241.226 27.6871C241.384 27.5558 241.607 27.431 241.883 27.3063C242.159 27.1815 242.422 27.129 242.658 27.129C242.789 27.129 242.829 27.1946 242.776 27.326C242.165 28.068 241.64 28.8888 241.207 29.7884C240.767 30.688 240.432 31.568 240.195 32.415C239.959 33.2621 239.801 34.0107 239.736 34.6608C239.67 35.3109 239.716 35.7574 239.874 35.9938C240.005 36.1777 240.241 36.1842 240.589 36.0135C240.931 35.8428 241.384 35.3962 241.942 34.6805H241.949ZM235.034 35.8296C235.323 35.8296 235.704 35.6261 236.17 35.2124C236.636 34.8053 237.116 34.2668 237.621 33.6036C238.127 32.9404 238.62 32.1918 239.112 31.3578C239.605 30.5239 240.031 29.6834 240.406 28.8363C240.301 28.4948 240.051 28.2125 239.67 28.0023C239.283 27.7922 238.843 27.6871 238.337 27.6871C237.753 27.6871 237.201 27.8382 236.689 28.1468C236.177 28.4554 235.717 28.8757 235.317 29.4207C234.916 29.9657 234.601 30.6092 234.364 31.3513C234.128 32.0933 234.01 32.9141 234.01 33.8137C234.01 34.3981 234.108 34.8775 234.305 35.2649C234.502 35.6523 234.752 35.8428 235.041 35.8428L235.034 35.8296Z" fill="white"/>
<path d="M251.885 26.4528C251.964 26.4002 252.042 26.4068 252.121 26.4725C252.2 26.5381 252.213 26.6235 252.161 26.7286C251.95 27.0438 251.681 27.3327 251.366 27.5822C251.051 27.8317 250.65 27.9434 250.171 27.9171C250.407 28.3177 250.525 28.8299 250.525 29.4668C250.525 30.1038 250.434 30.6357 250.25 31.1347C250.066 31.6403 249.849 32.1131 249.613 32.5662C249.376 33.0193 249.127 33.4396 248.877 33.8401C248.628 34.2407 248.424 34.6478 248.28 35.0746C248.135 35.5014 248.07 35.9283 248.083 36.3682C248.096 36.8082 248.247 37.2875 248.542 37.8194C248.779 38.2725 249.002 38.6731 249.199 39.0342C249.396 39.3954 249.567 39.7369 249.718 40.0652C249.862 40.3935 249.967 40.735 250.033 41.0764C250.099 41.4179 250.131 41.7922 250.131 42.1927C250.131 42.8297 250 43.4338 249.737 43.9985C249.475 44.5698 249.087 45.0689 248.582 45.5088C248.076 45.9488 247.465 46.2902 246.756 46.5398C246.041 46.7893 245.233 46.9206 244.333 46.9206C243.434 46.9206 242.573 46.7893 241.831 46.5201C241.089 46.2574 240.459 45.9028 239.94 45.4694C239.421 45.0295 239.034 44.5304 238.765 43.9591C238.502 43.3878 238.364 42.7969 238.364 42.1927C238.364 41.3982 238.647 40.7021 239.218 40.1046C239.789 39.507 240.603 39.0671 241.661 38.7716C241.792 38.7716 241.877 38.8175 241.917 38.9095C241.956 39.0014 241.936 39.0868 241.858 39.1656C241.299 39.3757 240.853 39.6975 240.505 40.1177C240.163 40.5445 239.986 41.1093 239.986 41.825C239.986 43.1777 240.452 44.2612 241.378 45.082C242.304 45.9028 243.526 46.3165 245.036 46.3165C246.31 46.3165 247.249 45.9948 247.859 45.3447C248.47 44.6946 248.772 43.8541 248.772 42.8231C248.772 42.2124 248.68 41.6674 248.496 41.1946C248.313 40.7153 248.03 40.1768 247.662 39.5661C247.157 38.719 246.94 37.9048 247.006 37.1234C247.071 36.342 247.341 35.5277 247.82 34.6806C247.873 34.5756 247.932 34.4771 247.997 34.3851C248.063 34.2932 248.122 34.1816 248.175 34.0502C247.886 34.3654 247.544 34.6478 247.163 34.8842C246.776 35.1206 246.454 35.2388 246.192 35.2388C244.891 35.2388 244.241 34.3917 244.241 32.6975C244.241 32.1394 244.346 31.5287 244.556 30.8655C244.767 30.2023 245.069 29.585 245.45 29.0137C245.83 28.4424 246.283 27.9762 246.802 27.6019C247.321 27.2276 247.892 27.0438 248.529 27.0438C249.455 27.0438 250.171 27.0109 250.676 26.9453C251.182 26.8796 251.576 26.7154 251.872 26.4462L251.885 26.4528ZM248.707 33.0915C248.864 32.7172 248.995 32.3364 249.107 31.9358C249.212 31.5353 249.265 31.1413 249.265 30.7407C249.265 29.9724 249.14 29.3683 248.884 28.9349C248.634 28.495 248.227 28.2783 247.669 28.2783C247.032 28.2783 246.494 28.5935 246.06 29.2304C245.62 29.8674 245.404 30.767 245.404 31.9358C245.404 32.7041 245.528 33.2623 245.784 33.6037C246.034 33.9452 246.415 34.1225 246.92 34.1225C247.209 34.1225 247.531 34.0305 247.873 33.8467C248.214 33.6628 248.496 33.4067 248.707 33.0915Z" fill="white"/>
<path d="M259.443 28.7575C259.443 29.1318 259.298 29.4733 259.003 29.7884C258.707 30.1036 258.313 30.3926 257.808 30.6421C257.302 30.8916 256.724 31.128 256.081 31.3381C255.431 31.5483 254.748 31.7518 254.032 31.9357C254.006 32.2246 253.986 32.5201 253.973 32.809C253.96 33.098 253.953 33.4197 253.953 33.7612C253.953 34.4244 254.098 34.9826 254.393 35.4291C254.682 35.8822 255.096 36.1054 255.628 36.1054C256.16 36.1054 256.652 35.9741 257.118 35.7049C257.584 35.4422 257.998 35.0811 258.372 34.6345C258.478 34.582 258.556 34.5951 258.609 34.6739C258.661 34.7527 258.661 34.8447 258.609 34.9497C258.156 35.5604 257.598 36.0857 256.921 36.5191C256.245 36.9525 255.536 37.1758 254.794 37.1758C254.104 37.1758 253.54 36.9525 253.106 36.4994C252.666 36.0463 252.449 35.3831 252.449 34.5098C252.449 33.7152 252.594 32.8747 252.889 31.9882C253.178 31.1018 253.566 30.2875 254.045 29.5455C254.524 28.8035 255.07 28.1928 255.693 27.72C256.317 27.2406 256.974 27.0042 257.663 27.0042C258.169 27.0042 258.589 27.1815 258.937 27.5427C259.279 27.8973 259.456 28.3044 259.456 28.7575H259.443ZM256.816 28.0418C256.206 28.0418 255.66 28.3044 255.188 28.8363C254.708 29.3682 254.367 30.2021 254.157 31.3381C255.431 31.1543 256.363 30.8785 256.961 30.5239C257.558 30.1693 257.854 29.7622 257.854 29.3091C257.854 28.9414 257.762 28.6327 257.578 28.3963C257.394 28.1599 257.138 28.0418 256.823 28.0418H256.816Z" fill="white"/>
</g>
<defs>
<clipPath id="clip0_537_93">
<rect width="260" height="72" fill="white"/>
</clipPath>
</defs>
</svg>
