<?xml version="1.0" encoding="UTF-8"?><svg id="Layer_1" xmlns="http://www.w3.org/2000/svg" xmlns:xlink="http://www.w3.org/1999/xlink" viewBox="0 0 453.13 139.8"><defs><style>.cls-1{fill:none;}.cls-2{fill:#fff;}.cls-3{fill:#fcb974;}.cls-4{fill:#fcb975;}.cls-5{clip-path:url(#clippath);}</style><clipPath id="clippath"><rect class="cls-1" x="18.16" y="13.83" width="110.29" height="108.39"/></clipPath></defs><path class="cls-2" d="M246.67,81.85c1.41,0,2.68.27,3.83.81,1.14.54,2.11,1.29,2.9,2.25.79.96,1.41,2.09,1.84,3.4.43,1.3.65,2.74.65,4.3,0,2.46-.47,4.79-1.42,7-.95,2.21-2.18,4.14-3.71,5.8s-3.29,2.99-5.26,3.98c-1.98.99-4,1.49-6.08,1.49-1.59,0-2.99-.29-4.18-.86-1.2-.57-2.21-1.33-3.02-2.29-.81-.96-1.42-2.07-1.84-3.33-.42-1.26-.63-2.58-.63-3.96,0-2.28.43-4.54,1.3-6.77.87-2.23,2.07-4.22,3.6-5.96,1.53-1.74,3.32-3.15,5.38-4.23s4.27-1.62,6.64-1.62ZM241.36,109.48c1.56,0,3.1-.38,4.61-1.12,1.51-.75,2.87-1.81,4.07-3.17,1.2-1.37,2.17-3,2.92-4.91.75-1.9,1.12-4.01,1.12-6.32,0-3.3-.79-5.89-2.36-7.76-1.58-1.87-3.74-2.81-6.5-2.81-2.01,0-3.85.41-5.51,1.21-1.67.81-3.1,1.92-4.3,3.33-1.2,1.41-2.13,3.06-2.79,4.95-.66,1.89-.99,3.92-.99,6.08,0,1.56.22,2.99.65,4.27.43,1.29,1.06,2.4,1.89,3.33.82.93,1.84,1.65,3.06,2.16,1.21.51,2.59.77,4.12.77Z"/><path class="cls-2" d="M263.14,99.54c.15.06.21.15.18.27-.03.12-.17.2-.41.23-.48.03-1.01.06-1.6.09-.58.03-1.18.08-1.78.13-.6,1.5-1.09,2.94-1.48,4.32-.39,1.38-.58,2.52-.58,3.42,0,1.02.39,1.53,1.17,1.53s1.63-.69,2.56-2.07c.09-.06.18-.05.27.02.09.08.12.19.09.34-.27.42-.58.82-.92,1.19s-.7.7-1.06.97c-.36.27-.71.49-1.03.65-.33.17-.6.25-.81.25-.66,0-1.15-.2-1.46-.61-.32-.41-.47-.89-.47-1.46,0-.99.21-2.23.63-3.73.42-1.5.94-3.04,1.58-4.64-.39.06-.77.12-1.12.18-.36.06-.71.12-1.04.18-.15-.03-.19-.1-.11-.22.07-.12.21-.24.4-.36.2-.12.43-.23.7-.34.27-.1.52-.16.76-.16.15-.03.28-.04.38-.04h.34c.42-.93.84-1.82,1.26-2.68.42-.85.84-1.64,1.26-2.36.18-.18.38-.34.61-.47.22-.13.44-.22.65-.27.21-.04.38-.06.5-.04.12.02.16.07.13.16-.51.78-1.01,1.65-1.51,2.61s-.97,1.95-1.42,2.97c.54,0,1.08,0,1.62-.02.54-.01,1.11-.02,1.71-.02Z"/><path class="cls-2" d="M270.83,99.54c.15.06.21.15.18.27-.03.12-.17.2-.41.23-.48.03-1.01.06-1.6.09-.58.03-1.18.08-1.78.13-.6,1.5-1.09,2.94-1.48,4.32-.39,1.38-.58,2.52-.58,3.42,0,1.02.39,1.53,1.17,1.53s1.63-.69,2.56-2.07c.09-.06.18-.05.27.02.09.08.12.19.09.34-.27.42-.58.82-.92,1.19s-.7.7-1.06.97c-.36.27-.71.49-1.03.65-.33.17-.6.25-.81.25-.66,0-1.15-.2-1.46-.61-.32-.41-.47-.89-.47-1.46,0-.99.21-2.23.63-3.73.42-1.5.94-3.04,1.58-4.64-.39.06-.77.12-1.12.18-.36.06-.71.12-1.04.18-.15-.03-.19-.1-.11-.22.07-.12.21-.24.4-.36.2-.12.43-.23.7-.34.27-.1.52-.16.76-.16.15-.03.28-.04.38-.04h.34c.42-.93.84-1.82,1.26-2.68.42-.85.84-1.64,1.26-2.36.18-.18.38-.34.61-.47.22-.13.44-.22.65-.27.21-.04.38-.06.5-.04.12.02.16.07.13.16-.51.78-1.01,1.65-1.51,2.61s-.97,1.95-1.42,2.97c.54,0,1.08,0,1.62-.02.54-.01,1.11-.02,1.71-.02Z"/><path class="cls-2" d="M278.53,101.33c0,.42-.17.81-.5,1.17-.33.36-.78.68-1.35.97-.57.29-1.22.55-1.96.79-.74.24-1.51.47-2.32.67-.03.33-.05.66-.07.99-.02.33-.02.69-.02,1.08,0,.75.16,1.38.5,1.89.33.51.79.77,1.39.77s1.16-.15,1.69-.45c.52-.3,1-.7,1.42-1.21.12-.06.21-.04.27.04.06.09.06.2,0,.32-.51.69-1.15,1.28-1.91,1.78-.77.5-1.57.74-2.41.74-.78,0-1.42-.25-1.91-.76s-.74-1.26-.74-2.25c0-.9.16-1.85.5-2.86.33-1,.76-1.93,1.3-2.77s1.16-1.53,1.87-2.07,1.45-.81,2.23-.81c.57,0,1.05.2,1.44.61.39.4.58.86.58,1.37ZM275.56,100.53c-.69,0-1.3.3-1.84.9-.54.6-.93,1.55-1.17,2.83,1.44-.21,2.5-.52,3.17-.92.67-.41,1.01-.86,1.01-1.37,0-.42-.11-.76-.32-1.04-.21-.27-.5-.4-.86-.4Z"/><path class="cls-2" d="M283.97,100.62c0,.45-.04.97-.13,1.58-.09.6-.21,1.2-.36,1.8.6-1.44,1.26-2.57,1.98-3.4.72-.83,1.5-1.24,2.34-1.24.33,0,.63.09.9.27.27.18.41.44.41.76,0,.24-.09.55-.27.92-.18.38-.36.65-.54.83-.18.12-.27.08-.27-.13,0-.51-.34-.76-1.04-.76-1.05,0-2,.79-2.83,2.36s-1.63,3.76-2.38,6.55c-.06.3-.26.5-.61.58-.35.09-.64.13-.88.13-.33,0-.4-.16-.22-.5.27-.63.52-1.31.76-2.05.24-.73.47-1.48.7-2.23.22-.75.41-1.49.56-2.21.15-.72.27-1.38.36-1.98.12-.9-.03-1.35-.45-1.35-.24,0-.52.13-.83.4-.32.27-.61.58-.88.95-.12.06-.22.05-.31-.02-.09-.07-.11-.17-.04-.29.45-.57.95-1.09,1.51-1.55s1.07-.7,1.55-.7c.66,0,.99.42.99,1.26Z"/><path class="cls-2" d="M296.57,99.54c.15.06.21.15.18.27-.03.12-.17.2-.41.23-.48.03-1.01.06-1.6.09-.58.03-1.18.08-1.78.13-.6,1.5-1.09,2.94-1.48,4.32-.39,1.38-.58,2.52-.58,3.42,0,1.02.39,1.53,1.17,1.53s1.63-.69,2.56-2.07c.09-.06.18-.05.27.02.09.08.12.19.09.34-.27.42-.58.82-.92,1.19s-.7.7-1.06.97c-.36.27-.71.49-1.03.65-.33.17-.6.25-.81.25-.66,0-1.15-.2-1.46-.61-.32-.41-.47-.89-.47-1.46,0-.99.21-2.23.63-3.73.42-1.5.94-3.04,1.58-4.64-.39.06-.77.12-1.12.18-.36.06-.71.12-1.04.18-.15-.03-.19-.1-.11-.22.07-.12.21-.24.4-.36.2-.12.43-.23.7-.34.27-.1.52-.16.76-.16.15-.03.28-.04.38-.04h.34c.42-.93.84-1.82,1.26-2.68.42-.85.84-1.64,1.26-2.36.18-.18.38-.34.61-.47.22-.13.44-.22.65-.27.21-.04.38-.06.5-.04.12.02.16.07.13.16-.51.78-1.01,1.65-1.51,2.61s-.97,1.95-1.42,2.97c.54,0,1.08,0,1.62-.02.54-.01,1.11-.02,1.71-.02Z"/><path class="cls-2" d="M302.28,99.36c.81,0,1.41.27,1.8.81s.58,1.25.58,2.12c0,1.02-.2,2.04-.58,3.06-.39,1.02-.88,1.94-1.48,2.77-.6.83-1.25,1.49-1.96,2s-1.36.76-1.96.76c-.72,0-1.29-.29-1.71-.86-.42-.57-.63-1.38-.63-2.43,0-.84.16-1.74.5-2.7.33-.96.77-1.85,1.33-2.68.55-.83,1.18-1.51,1.89-2.05s1.45-.81,2.23-.81ZM299.58,109.48c.45,0,.89-.16,1.33-.47.43-.32.82-.74,1.15-1.26.33-.52.59-1.13.79-1.82.2-.69.29-1.41.29-2.16,0-.9-.15-1.61-.45-2.14-.3-.53-.79-.79-1.49-.79-.45,0-.88.16-1.3.47-.42.32-.79.74-1.1,1.26-.32.53-.56,1.14-.74,1.85-.18.71-.27,1.45-.27,2.23,0,1.89.6,2.84,1.8,2.84Z"/><path class="cls-2" d="M317.81,107.99c.09-.06.18-.06.27,0,.09.06.12.15.09.27-.51.69-1.07,1.3-1.69,1.82-.62.52-1.19.79-1.73.79-.93,0-1.4-.6-1.4-1.8,0-1.02.18-2.15.54-3.4.36-1.25.86-2.5,1.49-3.76.12-.21.18-.42.18-.63,0-.33-.15-.5-.45-.5-1.11,0-2.33.76-3.67,2.29s-2.57,3.93-3.71,7.2c-.06.18-.22.32-.49.43-.27.11-.53.16-.77.16-.33,0-.45-.13-.36-.41.51-1.29,1.04-2.75,1.6-4.36.55-1.62,1.04-3.22,1.46-4.82.12-.57.01-.86-.32-.86-.3,0-.6.15-.9.45-.3.3-.62.69-.95,1.17-.06.06-.13.04-.2-.04-.08-.09-.1-.18-.07-.27.33-.51.78-1.04,1.35-1.58.57-.54,1.18-.81,1.84-.81.75,0,1,.51.77,1.53-.12.66-.29,1.36-.5,2.09-.21.74-.44,1.46-.67,2.18.42-.81.91-1.58,1.48-2.29.57-.72,1.16-1.33,1.78-1.85.62-.51,1.23-.91,1.85-1.21.61-.3,1.19-.45,1.73-.45.36,0,.64.09.83.27s.29.39.29.63c0,.39-.09.78-.27,1.17-.63,1.14-1.16,2.33-1.6,3.58s-.65,2.39-.65,3.44c0,.75.24,1.12.72,1.12.63,0,1.33-.52,2.11-1.58Z"/><g class="cls-5"><path class="cls-3" d="M93.98,54.83c2.2-1.76,4.27-3.41,6.33-5.06-.08-.12-.16-.25-.24-.38-2.23,1.36-4.47,2.73-6.74,4.11-2.35-1.49-2.47-1.73-1.2-4.23,3.35-6.63,9.07-9.97,16.1-11.34,3.22-.63,6.5-.91,9.97-1.37-3.01,7.9-6.09,15.41-14.16,19.12-2.07.95-4.38,1.42-6.62,1.98-2.12.53-2.4-1.42-3.43-2.84"/><path class="cls-4" d="M91.6,56.8c6.77,9.57,4.05,22.35-6.08,29.04-12.83,8.49-30.48,1.41-33.79-13.55-.31-1.33-.31-2.75-.44-4.1.18-11.03,9.42-20.37,20.55-20.73,8.18-.26,14.96,2.57,19.75,9.34Z"/><path class="cls-3" d="M60.81,121.88c-1.65-5.91-4.1-11.68-2.77-18.08.79-3.8,2.32-7.18,5-10.06,1.45-1.56,2.88-2.42,5.11-.93-.56,2.69-1.16,5.53-1.75,8.37.17.06.34.11.51.17.91-2.77,1.81-5.54,2.76-8.43,1.57-.43,2.4.22,2.99,2.01,2.05,6.15,1.09,11.95-2.43,17.12-2.51,3.67-5.81,6.8-8.76,10.17-.22-.11-.44-.22-.66-.33"/><path class="cls-3" d="M57.51,40.06c1.26,2.38,2.53,4.76,3.82,7.18-1.32,1.63-2.75,1.61-4.61.45-5.97-3.73-9.25-9.08-9.97-15.99-.36-3.41-.36-6.86-.53-10.4,10.99,4.41,19.34,10.86,19.55,22.55.03,1.55-.67,2-1.89,2.5-1.38.57-1.77-.42-2.29-1.17-1.23-1.78-2.39-3.62-3.57-5.43-.17.11-.34.21-.5.32"/><path class="cls-3" d="M84.8,46.95c1.35-2.46,2.67-4.85,3.98-7.23-.13-.1-.26-.19-.4-.29-1.62,2.27-3.23,4.54-4.91,6.9-1.8-.06-2.64-.86-2.56-2.97.26-6.99,3.35-12.44,8.94-16.4,3.13-2.22,6.59-3.99,9.98-6.02.99,11.08-.06,20.35-9.48,26.43-3.07,1.98-2.05,1.86-5.54-.42"/><path class="cls-3" d="M98.31,64.52c2.74-.27,5.33-.52,7.92-.78-.01-.16-.03-.33-.04-.49h-8.07c-1.24-1.83-.88-2.94,1.02-4.05,6.98-4.06,14.07-3.83,21.27-.86,2.72,1.12,5.34,2.49,8.03,3.75-5.69,6.7-18.45,10.4-26.42,7.72q-3.54-1.19-3.72-5.28"/><path class="cls-3" d="M87.72,88.88q2.64-2.24,5.13-.21c1.09.89,2.15,1.81,3.24,2.7.08.06.23.04.9.14-2.01-2.12-3.71-3.91-5.42-5.72.89-2.25,2.53-2.5,4.7-1.77,5.21,1.77,9.47,4.87,11.97,9.72,2.06,3.99,3.37,8.36,5.2,13.06-7.02-1.49-13.48-2.47-18.77-6.77-3.45-2.8-5.43-5.92-6.95-11.15"/><path class="cls-3" d="M45.75,50.69c2.15,1.58,4.3,3.16,6.42,4.71-.57,2.41-2.02,2.87-4.37,2.52-6.51-.98-11.59-4.16-15.23-9.54-1.99-2.95-3.6-6.15-5.45-9.33,11.74-1.07,22.59,1.74,27.53,11.04.8,1.51.18,2.21-.65,3.25-.95,1.19-1.74.48-2.55.04-1.82-.99-3.61-2.05-5.41-3.09-.09.14-.19.27-.29.41"/><path class="cls-3" d="M80.1,92.47c.04,3.61,1.09,6.92,3.31,9.83-.55-3.51-1.09-7.03-1.61-10.36,1.65-1.38,2.7-1.14,3.98.18,5.44,5.63,6.71,12.31,5.11,19.69-.66,3.06-1.73,6.03-2.71,9.37-5.84-5.8-11.9-11.01-12.44-19.66-.13-2.07.28-4.18.48-6.26.22-2.26,1.59-3.05,3.89-2.79"/><path class="cls-3" d="M73.12,13.83c4.06,6.59,8.14,12.35,7.77,19.88-.17,3.67-1.14,7.07-3.35,10.02-.38.51-1.38.82-2.06.77-.42-.03-1.07-.86-1.13-1.39-.4-3.19-.66-6.39-1.03-10.16-1.64,4-1.42,7.63-.72,11.2-1.94.91-3.06.54-4.1-1.26-2.97-5.13-3.65-10.59-1.73-16.03,1.55-4.37,4.04-8.39,6.34-13.03"/><path class="cls-3" d="M127.87,83.9c-7.7,2.45-14.72,4.98-22.34,2.66-3.29-1-6.15-2.66-8.66-5.02-1.14-1.07-1.48-1.97-.57-2.81,3.65.53,7.04,1.03,10.43,1.53.06-.28.12-.57.18-.85-3.18-1.02-6.35-2.04-9.42-3.02-.03-2.22,1.02-2.96,2.72-3.42,6.3-1.68,12.22-.63,17.55,2.86,3.44,2.25,6.46,5.14,10.09,8.08"/><path class="cls-3" d="M56.05,86.52c-1.19,1.94-2.34,3.81-3.49,5.68.13.09.26.19.39.28,1.4-1.68,2.79-3.35,4.19-5.02,3.59,2.27,3.65,2.36,2.38,6.37-1.27,3.98-3.44,7.52-6.84,9.88-3.88,2.69-8.15,4.8-12.7,7.43.05-10.35.96-19.57,9.97-25.59,3.27-2.18,3.29-2.16,6.1.97"/><path class="cls-3" d="M21.62,89.53c4.1-5.91,7.58-11.65,13.99-14.62,3.73-1.73,7.6-2.5,11.68-1.85.58.09,1.36.72,1.5,1.25.14.54-.2,1.53-.66,1.84-1.91,1.29-3.94,2.41-5.94,3.56-.83.48-1.7.87-2.47,1.49,3.68-.25,6.95-1.54,9.81-3.84,1.94,2.79,1.99,2.96-.18,5.41-5.15,5.83-11.84,7.7-19.35,7.34-2.66-.13-5.3-.37-8.38-.59"/><path class="cls-3" d="M18.36,62.96c6.01-2.84,11.83-6.23,18.88-5.79,3.79.24,7.34,1.11,10.55,3.22,1.03.68,1.6,1.26,1.16,2.69-.45,1.45-1.43,1.38-2.45,1.39-2.37.04-4.74.01-7.11.01-.04.24-.08.48-.13.72,2.92.58,5.84,1.16,8.89,1.77.7,1.88-.5,2.78-2.27,3.44-5.31,1.95-10.7,2.01-15.82-.23-4.13-1.8-7.95-4.34-11.91-6.54.06-.23.13-.46.19-.69"/></g><path class="cls-2" d="M181.62,34.79c.24.24.22.54-.06.91-.65.93-1.13,1.33-1.45,1.21-.48-.16-.97-.31-1.45-.45-.48-.14-.99-.27-1.51-.39-2.26.2-4.28,1.38-6.05,3.54-1.78,2.16-3.37,5.56-4.78,10.2-2.1,6.82-5.02,11.94-8.75,15.35-3.73,3.41-8.24,5.12-13.53,5.12-1.45,0-2.7-.19-3.75-.58-1.05-.38-1.92-.89-2.6-1.51-.69-.62-1.19-1.35-1.51-2.18-.32-.83-.48-1.67-.48-2.51,0-2.42,1.19-4.44,3.57-6.05.16,0,.26.08.3.24.04.16.02.3-.06.42-.57.45-.98.92-1.24,1.42-.26.51-.39,1.22-.39,2.15,0,2.06.72,3.68,2.15,4.87,1.43,1.19,3.56,1.79,6.39,1.79,1.94,0,3.71-.26,5.33-.79,1.61-.52,3.1-1.42,4.45-2.69,1.35-1.27,2.6-2.98,3.75-5.12,1.15-2.14,2.25-4.82,3.3-8.05,1.45-4.52,3.19-8.16,5.21-10.93,2.02-2.76,4.3-4.49,6.84-5.18-2.7-.69-5.51-1.23-8.42-1.63-2.91-.4-5.79-.61-8.66-.61-2.26,0-4.27.37-6.02,1.12-1.76.75-3.22,1.75-4.39,3-1.17,1.25-2.02,2.71-2.54,4.39-.52,1.68-.67,3.42-.42,5.24-.24.36-.46.38-.67.06-.24-1.98-.09-3.91.45-5.81.54-1.9,1.48-3.59,2.81-5.08,1.33-1.49,3.07-2.68,5.21-3.57,2.14-.89,4.66-1.33,7.57-1.33,4.32,0,8.24.35,11.78,1.06,3.53.71,6.75,1.5,9.66,2.39Z"/><path class="cls-2" d="M169.15,69.79c1.82-6.94,3.85-13.2,6.11-18.77,2.26-5.57,4.63-10.31,7.11-14.23,2.48-3.91,5.01-6.93,7.6-9.05,2.58-2.12,5.08-3.18,7.51-3.18.89,0,1.62.17,2.21.51.58.34.99.78,1.21,1.3.22.53.28,1.11.18,1.76-.1.65-.39,1.27-.88,1.88-.08.12-.18.16-.3.12s-.18-.14-.18-.3c.16-.81-.08-1.57-.73-2.3-.65-.73-1.67-1.09-3.09-1.09-1.9,0-3.83.75-5.81,2.24-1.98,1.49-3.96,3.78-5.93,6.87-1.98,3.09-3.93,6.97-5.84,11.65-1.92,4.68-3.76,10.23-5.54,16.65.65-1.25,1.39-2.43,2.24-3.54.85-1.11,1.71-2.07,2.6-2.88.89-.81,1.79-1.44,2.69-1.91s1.79-.7,2.63-.7c.48,0,.85.12,1.09.36s.36.52.36.85c0,.52-.18,1.11-.54,1.75-.85,1.49-1.54,3.03-2.09,4.6-.54,1.57-.82,3.01-.82,4.3,0,.57.07,1.03.21,1.39.14.36.37.54.7.54.4,0,.84-.21,1.3-.64.46-.42.88-.9,1.24-1.42.12-.08.24-.07.36.03.12.1.16.23.12.39-.24.36-.54.74-.91,1.12-.36.38-.76.75-1.18,1.09-.42.34-.86.62-1.3.82-.44.2-.85.3-1.21.3-1.01,0-1.51-.85-1.51-2.54,0-1.45.24-3.04.73-4.75.48-1.71,1.07-3.24,1.76-4.57.24-.4.36-.75.36-1.03,0-.36-.22-.54-.67-.54-.73,0-1.51.28-2.36.85-.85.57-1.72,1.39-2.6,2.48-.89,1.09-1.74,2.41-2.54,3.97-.81,1.55-1.53,3.3-2.18,5.24-.08.28-.29.5-.64.67-.34.16-.68.24-1,.24-.44,0-.61-.18-.48-.54Z"/><path class="cls-2" d="M197.72,57.5c0,.57-.22,1.09-.67,1.57-.44.48-1.05.92-1.82,1.3-.77.38-1.65.74-2.63,1.06-.99.32-2.03.63-3.12.91-.04.44-.07.89-.09,1.33-.02.44-.03.93-.03,1.45,0,1.01.22,1.86.67,2.54.44.69,1.07,1.03,1.88,1.03s1.56-.2,2.27-.61c.71-.4,1.34-.95,1.91-1.63.16-.08.28-.06.36.06.08.12.08.26,0,.42-.69.93-1.54,1.73-2.57,2.39s-2.11,1-3.24,1c-1.05,0-1.91-.34-2.57-1.03-.67-.69-1-1.7-1-3.03,0-1.21.22-2.49.67-3.84.44-1.35,1.03-2.59,1.76-3.72.73-1.13,1.56-2.06,2.51-2.78.95-.73,1.95-1.09,3-1.09.77,0,1.41.27,1.94.82.52.54.79,1.16.79,1.85ZM193.73,56.41c-.93,0-1.76.4-2.48,1.21-.73.81-1.25,2.08-1.57,3.81,1.94-.28,3.36-.7,4.27-1.24s1.36-1.16,1.36-1.85c0-.56-.14-1.03-.42-1.39-.28-.36-.67-.54-1.15-.54Z"/><path class="cls-2" d="M233.8,31.28c1.9,0,3.61.36,5.15,1.09,1.53.73,2.83,1.74,3.9,3.03,1.07,1.29,1.9,2.82,2.48,4.57.58,1.75.88,3.68.88,5.78,0,3.31-.64,6.45-1.91,9.41-1.27,2.97-2.94,5.57-4.99,7.81-2.06,2.24-4.42,4.03-7.08,5.36s-5.39,2-8.17,2c-2.14,0-4.02-.38-5.63-1.15-1.61-.77-2.97-1.79-4.06-3.09s-1.92-2.79-2.48-4.48c-.57-1.7-.85-3.47-.85-5.33,0-3.07.58-6.1,1.76-9.11,1.17-3.01,2.78-5.68,4.84-8.02,2.06-2.34,4.47-4.24,7.23-5.69,2.76-1.45,5.74-2.18,8.93-2.18ZM226.66,68.45c2.1,0,4.17-.5,6.21-1.51,2.04-1.01,3.86-2.43,5.48-4.27,1.61-1.84,2.93-4.04,3.94-6.6,1.01-2.56,1.51-5.4,1.51-8.51,0-4.44-1.06-7.92-3.18-10.44-2.12-2.52-5.04-3.78-8.75-3.78-2.7,0-5.18.54-7.42,1.63-2.24,1.09-4.17,2.58-5.78,4.48-1.61,1.9-2.87,4.12-3.75,6.66-.89,2.54-1.33,5.27-1.33,8.17,0,2.1.29,4.02.88,5.75.58,1.74,1.43,3.23,2.54,4.48,1.11,1.25,2.48,2.22,4.12,2.91,1.63.69,3.48,1.03,5.54,1.03Z"/><path class="cls-2" d="M270.25,25.35c1.05,0,1.73.48,2.03,1.45s.17,2-.39,3.09c-.08.08-.18.08-.3,0-.12-.08-.2-.18-.24-.3.08-.48-.09-.89-.51-1.21-.42-.32-1.08-.48-1.97-.48-1.74,0-3.45.73-5.15,2.18-1.69,1.45-3.33,3.34-4.9,5.66-1.57,2.32-3.04,4.91-4.39,7.78-1.35,2.87-2.52,5.72-3.51,8.57-.99,2.85-1.77,5.53-2.33,8.05-.57,2.52-.85,4.57-.85,6.14,0,1.21.34,1.82,1.03,1.82.48,0,.96-.2,1.42-.61.46-.4,1-1.01,1.6-1.82.12-.08.23-.07.33.03.1.1.13.23.09.39-.81,1.25-1.7,2.27-2.66,3.06-.97.79-1.8,1.18-2.48,1.18-.52,0-.95-.21-1.27-.64-.32-.42-.48-1-.48-1.73,0-1.13.2-2.59.6-4.39.4-1.8.97-3.8,1.7-6.02s1.6-4.55,2.63-6.99c1.03-2.44,2.15-4.85,3.36-7.23,1.21-2.38,2.49-4.66,3.84-6.84,1.35-2.18,2.74-4.1,4.18-5.75,1.43-1.65,2.88-2.97,4.33-3.94,1.45-.97,2.88-1.45,4.3-1.45Z"/><path class="cls-2" d="M288.05,24.56c1.05,0,1.72.4,2,1.21.28.81.14,1.82-.42,3.03-.32.24-.52.18-.61-.18.08-.56-.08-1.01-.48-1.33-.4-.32-.97-.48-1.69-.48-1.45,0-2.93.5-4.42,1.51-1.49,1.01-2.95,2.41-4.36,4.21-1.41,1.8-2.79,3.9-4.12,6.33-1.33,2.42-2.56,5.04-3.69,7.87-1.13,2.83-2.15,5.78-3.06,8.87-.91,3.09-1.65,6.19-2.21,9.29-.16.93-.2,1.75-.12,2.45.08.71.36,1.06.85,1.06.44,0,.89-.23,1.33-.7.44-.46.85-.98,1.21-1.54.08-.08.19-.08.33,0,.14.08.19.2.15.36-.2.36-.48.77-.85,1.21-.36.45-.76.86-1.18,1.24-.42.38-.86.71-1.3.97-.44.26-.85.39-1.21.39-.69,0-1.16-.29-1.42-.88-.26-.58-.35-1.34-.27-2.27.04-.69.12-1.33.24-1.94s.26-1.25.42-1.94c-.36.85-.85,1.67-1.45,2.45-.61.79-1.23,1.5-1.88,2.15-.65.65-1.28,1.18-1.91,1.6-.63.42-1.16.7-1.6.82-.69,0-1.34-.29-1.97-.88-.63-.58-.94-1.52-.94-2.82,0-1.53.26-3.02.79-4.45.52-1.43,1.24-2.69,2.15-3.78.91-1.09,1.96-1.97,3.15-2.63,1.19-.67,2.47-1,3.84-1,.44,0,.84.06,1.18.18.34.12.66.28.94.48.73-2.18,1.6-4.46,2.63-6.84,1.03-2.38,2.15-4.71,3.36-6.99,1.21-2.28,2.49-4.45,3.84-6.51,1.35-2.06,2.74-3.86,4.18-5.42,1.43-1.55,2.88-2.79,4.33-3.72,1.45-.93,2.87-1.39,4.24-1.39ZM257.41,68.21c.44,0,.98-.25,1.6-.76.63-.5,1.25-1.16,1.88-1.97.62-.81,1.23-1.75,1.82-2.82.58-1.07,1.08-2.17,1.48-3.3.12-.4.24-.79.36-1.15s.22-.73.3-1.09c-.16-.48-.46-.84-.91-1.06-.44-.22-.95-.33-1.51-.33-.85,0-1.68.25-2.48.76-.81.5-1.52,1.2-2.15,2.09-.63.89-1.13,1.94-1.51,3.15-.38,1.21-.58,2.54-.58,4,0,.85.17,1.47.51,1.88.34.4.74.61,1.18.61Z"/><path class="cls-2" d="M323.4,38.49c0,3.11-.67,5.98-2,8.63-1.33,2.64-3.09,5.21-5.27,7.69-2.18,2.48-4.66,4.99-7.45,7.51-2.79,2.52-5.63,5.22-8.54,8.08-.28,0-.45-.07-.51-.21-.06-.14-.06-.33,0-.58s.15-.5.27-.79c.12-.28.24-.56.36-.85.89-2.14,1.61-4.49,2.18-7.05.56-2.56.92-5.12,1.06-7.69.14-2.56.08-5.04-.18-7.45-.26-2.4-.79-4.53-1.57-6.39s-1.83-3.34-3.12-4.45c-1.29-1.11-2.89-1.67-4.78-1.67-2.75,0-4.98,1.16-6.72,3.48-1.74,2.32-3.19,5.7-4.36,10.14-.08.16-.2.22-.36.18-.16-.04-.24-.14-.24-.3,1.17-5.04,2.82-8.88,4.96-11.5,2.14-2.62,4.72-3.93,7.75-3.93,1.86,0,3.45.46,4.78,1.39,1.33.93,2.44,2.2,3.33,3.81.89,1.62,1.53,3.52,1.94,5.72.4,2.2.6,4.58.6,7.14s-.21,5.25-.64,8.05c-.42,2.81-1.02,5.62-1.79,8.45,2.82-2.34,5.37-4.54,7.63-6.6,2.26-2.06,4.16-4.09,5.69-6.08,1.53-2,2.71-4.03,3.54-6.08.83-2.06,1.24-4.26,1.24-6.6,0-2.02-.46-3.61-1.39-4.78-.93-1.17-2.1-1.79-3.51-1.88-1.13-.04-2.1.77-2.91,2.42-.12.08-.24.08-.36,0-.12-.08-.18-.22-.18-.42.2-.56.49-1.12.88-1.67.38-.54.79-1.03,1.21-1.45.42-.42.86-.77,1.3-1.03.44-.26.83-.39,1.15-.39.85,0,1.63.18,2.36.54s1.36.87,1.91,1.51c.54.65.97,1.4,1.27,2.27.3.87.45,1.81.45,2.82Z"/><path class="cls-2" d="M321.1,59.07c-.12.08-.23.05-.33-.09-.1-.14-.11-.27-.03-.39.56-.56,1.33-1.21,2.3-1.94s1.94-1.33,2.91-1.82c.32,0,.48.18.48.54-.52.93-1.04,1.94-1.54,3.03-.5,1.09-.95,2.17-1.33,3.24-.38,1.07-.7,2.1-.94,3.09s-.36,1.81-.36,2.45c0,.85.28,1.27.85,1.27.44,0,.88-.19,1.3-.58.42-.38.92-.9,1.48-1.54.08-.08.18-.06.3.06s.14.26.06.42c-.73.89-1.5,1.7-2.33,2.42-.83.73-1.6,1.09-2.33,1.09-1.05,0-1.57-.67-1.57-2,0-.77.13-1.68.39-2.75.26-1.07.6-2.15,1-3.24.4-1.09.86-2.14,1.36-3.15.5-1.01,1-1.88,1.48-2.6-.44.32-1,.74-1.66,1.24-.67.51-1.16.92-1.48,1.24ZM326.55,52.23c-.12.12-.23.13-.33.03-.1-.1-.17-.24-.21-.42-.04-.18-.06-.39-.06-.64s.06-.44.18-.61c1.05-1.45,2.52-3.01,4.42-4.66.12-.04.24,0,.36.09.12.1.14.19.06.27-.85.77-1.66,1.69-2.42,2.75-.77,1.07-1.43,2.13-2,3.18Z"/><path class="cls-2" d="M337.75,59.74c-.2,0-.3-.1-.3-.3.32-.81.33-1.51.03-2.12-.3-.61-.92-.91-1.85-.91-.65,0-1.25.23-1.82.7-.57.46-1.05,1.11-1.45,1.94-.4.83-.73,1.8-.97,2.91-.24,1.11-.36,2.31-.36,3.6,0,1.98.69,2.97,2.06,2.97,1.57,0,3.15-.95,4.72-2.84.16-.08.3-.07.42.03s.14.25.06.45c-.93,1.17-1.96,2.17-3.09,3-1.13.83-2.24,1.24-3.33,1.24-.89,0-1.62-.32-2.21-.97-.59-.65-.88-1.53-.88-2.66,0-1.41.23-2.82.7-4.24.46-1.41,1.07-2.68,1.82-3.81.75-1.13,1.6-2.05,2.57-2.75.97-.71,1.96-1.06,2.97-1.06.85,0,1.51.2,2,.61s.73.89.73,1.45c0,.2-.06.44-.18.73s-.27.57-.45.85c-.18.28-.38.54-.61.76-.22.22-.41.37-.58.45Z"/><path class="cls-2" d="M355.61,66.52c.08-.08.18-.08.3,0,.12.08.16.2.12.36-.85,1.17-1.69,2.04-2.51,2.6-.83.57-1.52.85-2.09.85-.36,0-.66-.18-.88-.54-.22-.36-.36-.86-.42-1.48-.06-.62-.04-1.33.06-2.12.1-.79.27-1.6.51-2.45-1.09,1.7-2.24,3.16-3.45,4.39-1.21,1.23-2.38,1.97-3.51,2.21-.73,0-1.34-.35-1.85-1.06-.5-.71-.76-1.81-.76-3.3,0-1.33.27-2.65.82-3.97s1.28-2.5,2.21-3.57c.93-1.07,2-1.93,3.21-2.57s2.48-.97,3.81-.97c.73,0,1.35.08,1.88.24.52.16,1.01.4,1.45.73.24-.2.58-.39,1-.58s.82-.27,1.18-.27c.2,0,.26.1.18.3-.93,1.13-1.73,2.38-2.39,3.75-.67,1.37-1.18,2.71-1.54,4-.36,1.29-.6,2.43-.7,3.42-.1.99-.03,1.67.21,2.03.2.28.56.29,1.09.03.52-.26,1.21-.94,2.06-2.03ZM345.07,68.27c.44,0,1.02-.31,1.73-.94.71-.62,1.44-1.44,2.21-2.45.77-1.01,1.52-2.15,2.27-3.42.75-1.27,1.4-2.55,1.97-3.84-.16-.52-.54-.95-1.12-1.27-.59-.32-1.26-.48-2.03-.48-.89,0-1.73.23-2.51.7s-1.48,1.11-2.09,1.94c-.61.83-1.09,1.81-1.45,2.94-.36,1.13-.54,2.38-.54,3.75,0,.89.15,1.62.45,2.21.3.59.68.88,1.12.88Z"/><path class="cls-2" d="M364.38,56.53c0,.61-.06,1.31-.18,2.12-.12.81-.28,1.62-.48,2.42.81-1.94,1.7-3.46,2.66-4.57s2.02-1.67,3.15-1.67c.44,0,.85.12,1.21.36s.54.58.54,1.03c0,.32-.12.74-.36,1.24s-.48.88-.73,1.12c-.24.16-.36.1-.36-.18,0-.69-.46-1.03-1.39-1.03-1.41,0-2.68,1.06-3.81,3.18-1.13,2.12-2.2,5.06-3.21,8.81-.08.4-.35.67-.82.79-.46.12-.86.18-1.18.18-.44,0-.54-.22-.3-.67.36-.85.71-1.76,1.03-2.75.32-.99.64-1.99.94-3s.55-2,.76-2.97c.2-.97.36-1.86.48-2.66.16-1.21-.04-1.82-.61-1.82-.32,0-.7.18-1.12.54s-.82.79-1.18,1.27c-.16.08-.3.07-.42-.03-.12-.1-.14-.23-.06-.39.6-.77,1.28-1.46,2.03-2.09.75-.63,1.44-.94,2.09-.94.89,0,1.33.57,1.33,1.7Z"/><path class="cls-2" d="M385.21,66.52c.08-.08.18-.08.3,0,.12.08.16.2.12.36-.85,1.17-1.69,2.04-2.51,2.6-.83.57-1.52.85-2.09.85-.36,0-.66-.18-.88-.54-.22-.36-.36-.86-.42-1.48-.06-.62-.04-1.33.06-2.12.1-.79.27-1.6.51-2.45-1.09,1.7-2.24,3.16-3.45,4.39-1.21,1.23-2.38,1.97-3.51,2.21-.73,0-1.34-.35-1.85-1.06-.5-.71-.76-1.81-.76-3.3,0-1.33.27-2.65.82-3.97s1.28-2.5,2.21-3.57c.93-1.07,2-1.93,3.21-2.57s2.48-.97,3.81-.97c.73,0,1.35.08,1.88.24.52.16,1.01.4,1.45.73.24-.2.58-.39,1-.58s.82-.27,1.18-.27c.2,0,.26.1.18.3-.93,1.13-1.73,2.38-2.39,3.75-.67,1.37-1.18,2.71-1.54,4-.36,1.29-.6,2.43-.7,3.42-.1.99-.03,1.67.21,2.03.2.28.56.29,1.09.03.52-.26,1.21-.94,2.06-2.03ZM374.68,68.27c.44,0,1.02-.31,1.73-.94.71-.62,1.44-1.44,2.21-2.45.77-1.01,1.52-2.15,2.27-3.42.75-1.27,1.4-2.55,1.97-3.84-.16-.52-.54-.95-1.12-1.27-.59-.32-1.26-.48-2.03-.48-.89,0-1.73.23-2.51.7s-1.48,1.11-2.09,1.94c-.61.83-1.09,1.81-1.45,2.94-.36,1.13-.54,2.38-.54,3.75,0,.89.15,1.62.45,2.21.3.59.68.88,1.12.88Z"/><path class="cls-2" d="M400.34,53.99c.12-.08.24-.07.36.03.12.1.14.23.06.39-.32.48-.73.92-1.21,1.3s-1.09.55-1.82.51c.36.61.54,1.39.54,2.36s-.14,1.78-.42,2.54c-.28.77-.61,1.49-.97,2.18-.36.69-.74,1.33-1.12,1.94-.38.61-.69,1.23-.91,1.88-.22.65-.32,1.3-.3,1.97.02.67.25,1.4.7,2.21.36.69.7,1.3,1,1.85s.56,1.07.79,1.57c.22.5.38,1.02.48,1.54.1.52.15,1.09.15,1.7,0,.97-.2,1.89-.6,2.75-.4.87-.99,1.63-1.76,2.3-.77.67-1.7,1.19-2.78,1.57-1.09.38-2.32.58-3.69.58s-2.68-.2-3.81-.61c-1.13-.4-2.09-.94-2.88-1.6-.79-.67-1.38-1.43-1.79-2.3-.4-.87-.61-1.77-.61-2.69,0-1.21.43-2.27,1.3-3.18.87-.91,2.11-1.58,3.72-2.03.2,0,.33.07.39.21.06.14.03.27-.09.39-.85.32-1.53.81-2.06,1.45-.52.65-.79,1.51-.79,2.6,0,2.06.71,3.71,2.12,4.96,1.41,1.25,3.27,1.88,5.57,1.88,1.94,0,3.37-.49,4.3-1.48.93-.99,1.39-2.27,1.39-3.84,0-.93-.14-1.76-.42-2.48-.28-.73-.71-1.55-1.27-2.48-.77-1.29-1.1-2.53-1-3.72.1-1.19.51-2.43,1.24-3.72.08-.16.17-.31.27-.45.1-.14.19-.31.27-.51-.44.48-.96.91-1.54,1.27-.59.36-1.08.54-1.48.54-1.98,0-2.97-1.29-2.97-3.87,0-.85.16-1.78.48-2.79.32-1.01.78-1.95,1.36-2.82.58-.87,1.27-1.58,2.06-2.15.79-.57,1.66-.85,2.63-.85,1.41,0,2.5-.05,3.27-.15.77-.1,1.37-.35,1.82-.76ZM395.5,64.1c.24-.57.44-1.15.61-1.76.16-.61.24-1.21.24-1.82,0-1.17-.19-2.09-.58-2.75-.38-.67-1-1-1.85-1-.97,0-1.79.48-2.45,1.45-.67.97-1,2.34-1,4.12,0,1.17.19,2.02.58,2.54.38.52.96.79,1.73.79.44,0,.93-.14,1.45-.42.52-.28.95-.67,1.27-1.15Z"/><path class="cls-2" d="M411.85,57.5c0,.57-.22,1.09-.67,1.57-.45.48-1.05.92-1.82,1.3-.77.38-1.65.74-2.63,1.06-.99.32-2.03.63-3.12.91-.04.44-.07.89-.09,1.33-.02.44-.03.93-.03,1.45,0,1.01.22,1.86.67,2.54.44.69,1.07,1.03,1.88,1.03s1.56-.2,2.27-.61c.71-.4,1.34-.95,1.91-1.63.16-.08.28-.06.36.06.08.12.08.26,0,.42-.69.93-1.54,1.73-2.57,2.39s-2.11,1-3.24,1c-1.05,0-1.91-.34-2.57-1.03-.67-.69-1-1.7-1-3.03,0-1.21.22-2.49.67-3.84.44-1.35,1.03-2.59,1.76-3.72.73-1.13,1.56-2.06,2.51-2.78.95-.73,1.95-1.09,3-1.09.77,0,1.41.27,1.94.82.52.54.79,1.16.79,1.85ZM407.85,56.41c-.93,0-1.76.4-2.48,1.21-.73.81-1.25,2.08-1.57,3.81,1.94-.28,3.36-.7,4.27-1.24s1.36-1.16,1.36-1.85c0-.56-.14-1.03-.42-1.39-.28-.36-.67-.54-1.15-.54Z"/></svg>