<svg width="25" height="25" viewBox="0 0 25 25" fill="none" xmlns="http://www.w3.org/2000/svg">
<path d="M20 0H5C2.25 0 0 2.25 0 5V20C0 22.75 2.25 25 5 25H20C22.75 25 25 22.75 25 20V5C25 2.25 22.75 0 20 0ZM5 1.66667H20C21.8385 1.66667 23.3333 3.16147 23.3333 5V11.6667H18.065C17.7473 11.6667 17.4569 11.8477 17.3176 12.1328L14.8319 17.1941L11.3723 5.2748C11.2759 4.94407 10.9869 4.7071 10.6444 4.67713C10.302 4.64588 9.97513 4.83078 9.8241 5.13937L6.61837 11.6654H1.6677V4.9987C1.6677 3.16017 3.1625 1.66537 5.00103 1.66537L5 1.66667ZM20 23.3333H5C3.16147 23.3333 1.66667 21.8385 1.66667 20V13.3333H7.13533C7.45304 13.3333 7.7434 13.1523 7.88273 12.8672L10.3697 7.80453L13.8294 19.7239C13.9257 20.0546 14.2148 20.2916 14.5572 20.3215C14.582 20.3241 14.6054 20.3241 14.6302 20.3241C14.9453 20.3241 15.2369 20.1445 15.3775 19.858L18.5833 13.332H23.332V19.9987C23.332 21.8372 21.8372 23.332 19.9986 23.332L20 23.3333Z" fill="#016A7C"/>
</svg>
