<svg width="45" height="37" viewBox="0 0 45 37" fill="none" xmlns="http://www.w3.org/2000/svg">
<path d="M31.8459 19.7612C31.8459 20.0652 31.8459 20.3692 31.7699 20.6733C35.5701 20.3692 38.6103 17.177 38.6103 13.2248C38.6103 9.27256 35.3421 5.85235 31.2379 5.85235C28.8817 5.85235 26.6016 7.06843 25.1575 9.04455C29.1098 11.0207 31.8459 15.0489 31.8459 19.7612Z" fill="white" fill-opacity="0.75"/>
<path d="M31.8459 26.1456H29.5658C29.2618 26.1456 29.0338 25.9936 28.8817 25.7656C28.7297 25.5375 28.7297 25.2335 28.8817 25.0055C29.7938 23.4094 30.2498 21.5853 30.2498 19.7612C30.2498 13.9848 25.5375 9.27256 19.8372 9.27256C14.1369 9.27256 9.27256 13.9848 9.27256 19.7612C9.27256 19.9132 9.27256 20.0652 9.34856 20.2172C9.34856 20.3692 9.42457 20.5972 9.42457 20.7493C9.42457 21.2053 9.12055 21.5093 8.66452 21.5093C8.43651 21.5093 8.2085 21.5093 7.98048 21.4333C7.82847 21.4333 7.60046 21.3573 7.44845 21.3573C3.2682 21.3573 0 24.7015 0 28.8817C0 33.062 3.2682 36.4062 7.44845 36.4062H31.8459C34.6581 36.4062 37.0142 34.0501 37.0142 31.2379C37.0142 28.5017 34.7341 26.1456 31.8459 26.1456Z" fill="white" fill-opacity="0.75"/>
<path d="M31.7699 4.02824C32.2259 4.02824 32.53 3.72423 32.53 3.2682V0.760046C32.53 0.304018 32.2259 0 31.7699 0C31.3139 0 31.0099 0.304018 31.0099 0.760046V3.2682C31.0099 3.64822 31.3899 4.02824 31.7699 4.02824Z" fill="white" fill-opacity="0.75"/>
<path d="M24.0935 6.6884C24.2455 6.84041 24.4735 6.91642 24.6255 6.91642C24.7775 6.91642 25.0055 6.84041 25.1575 6.6884C25.4615 6.38439 25.4615 5.92836 25.1575 5.62434L23.4854 3.87623C23.1814 3.57222 22.7254 3.57222 22.4214 3.87623C22.1173 4.18025 22.1173 4.63628 22.4214 4.9403L24.0935 6.6884Z" fill="white" fill-opacity="0.75"/>
<path d="M39.3704 19.8372C39.0664 19.5332 38.6103 19.5332 38.3063 19.8372C38.0023 20.1412 38.0023 20.5972 38.3063 20.9013L40.0544 22.5734C40.2064 22.7254 40.3584 22.8014 40.5865 22.8014C40.8145 22.8014 40.9665 22.7254 41.1185 22.5734C41.4225 22.2693 41.4225 21.8133 41.1185 21.5093L39.3704 19.8372Z" fill="white" fill-opacity="0.75"/>
<path d="M44.2347 12.4648H41.7265C41.2705 12.4648 40.9665 12.7688 40.9665 13.2248C40.9665 13.6808 41.2705 13.9848 41.7265 13.9848H44.2347C44.6907 13.9848 44.9947 13.6808 44.9947 13.2248C44.9947 12.7688 44.6147 12.4648 44.2347 12.4648Z" fill="white" fill-opacity="0.75"/>
<path d="M38.8383 6.91642C39.0664 6.91642 39.2184 6.84041 39.3704 6.6884L41.1185 4.9403C41.4225 4.63628 41.4225 4.18025 41.1185 3.87623C40.8145 3.57222 40.3584 3.57222 40.0544 3.87623L38.3063 5.62434C38.0023 5.92836 38.0023 6.38439 38.3063 6.6884C38.4583 6.84041 38.6863 6.91642 38.8383 6.91642Z" fill="white" fill-opacity="0.75"/>
</svg>
