<svg width="45" height="31" viewBox="0 0 45 31" fill="none" xmlns="http://www.w3.org/2000/svg">
<path d="M14.8955 8.17826C14.6297 7.43711 15.0897 6.5835 15.9331 6.64484C16.4034 3.62399 18.9335 1.28296 21.9799 1.04784V0.511141C21.9799 0.230014 22.2099 0 22.491 0C22.7722 0 23.0022 0.230014 23.0022 0.511141V1.04784C26.0486 1.28808 28.5736 3.62399 29.049 6.64484C29.8924 6.5835 30.3575 7.43711 30.0866 8.17826H14.8955ZM26.3962 28.951C26.0333 28.5319 25.2512 28.4706 24.7452 28.3581C24.0296 28.215 23.5133 27.5863 23.5133 26.8554V18.3806C23.1606 18.2324 22.8131 18.0586 22.491 17.8542C22.169 18.0586 21.8215 18.2324 21.4688 18.3806V26.8554C21.4688 27.5863 20.9525 28.215 20.2369 28.3581C19.7309 28.4706 18.9488 28.5268 18.5859 28.951L17.7425 29.7944C17.4205 30.1164 17.6505 30.6685 18.1055 30.6685H26.8818C27.3367 30.6685 27.5667 30.1164 27.2447 29.7944L26.4013 28.951H26.3962ZM44.3168 18.4011V6.72151C44.3168 5.91391 43.7494 5.22898 43.0031 5.12675C42.1035 4.97852 41.2295 5.73501 41.2499 6.64484V17.8899H33.0154C32.2027 17.8899 31.5331 18.5238 31.482 19.3365L30.8687 30.1216C30.8533 30.3925 31.0527 30.6327 31.3236 30.6583L32.3407 30.7656C32.5963 30.7963 32.8417 30.6174 32.8928 30.3618L34.738 21.4679H41.1017L42.9469 30.3618C42.998 30.6174 43.2434 30.7963 43.499 30.7656L44.5161 30.6583C44.787 30.6276 44.9864 30.3925 44.971 30.1216L44.3066 18.4011H44.3168ZM13.5001 19.3365C13.4541 18.5238 12.7794 17.8899 11.9718 17.8899H3.73727V6.64484C3.66571 4.59516 0.701092 4.62072 0.670423 6.72151V18.3704L0.000828116 30.1216C-0.0145061 30.3925 0.184839 30.6327 0.455744 30.6583L1.47292 30.7656C1.7336 30.7963 1.97383 30.6174 2.02495 30.3618L3.87017 21.4679H10.2339L12.0791 30.3618C12.1302 30.6174 12.3756 30.7963 12.6311 30.7656L13.6483 30.6583C13.9192 30.6276 14.1186 30.3925 14.1032 30.1216L13.4898 19.3365H13.5001ZM36.5423 13.9184L35.9136 9.97748C35.7961 9.23121 35.1571 8.68429 34.4006 8.68429H10.5866C9.83008 8.68429 9.19115 9.2261 9.07359 9.97748L8.44488 13.9184C8.34777 14.5113 8.50622 15.0991 8.87424 15.5336C10.2952 17.2459 12.8458 17.8031 14.8393 16.8268L15.2277 11.9556C15.2482 11.6745 15.4884 11.4649 15.7798 11.4853C16.0609 11.5058 16.2705 11.7563 16.25 12.0374L15.8615 16.9392C17.6454 18.1609 20.1909 18.1711 21.9901 16.9597V11.9965C21.9901 11.7154 22.2201 11.4853 22.5013 11.4853C22.7824 11.4853 23.0124 11.7154 23.0124 11.9965V16.9597C24.8219 18.1762 27.3929 18.1557 29.1819 16.9086L28.7474 12.0374C28.7219 11.7563 28.9314 11.5058 29.2126 11.4853C29.4988 11.4598 29.7441 11.6694 29.7646 11.9505L30.1991 16.8472C32.1874 17.7877 34.7073 17.2255 36.1181 15.5285C36.4861 15.094 36.6446 14.5062 36.5525 13.9133L36.5423 13.9184Z" fill="white" fill-opacity="0.75"/>
</svg>
