<svg width="45" height="45" viewBox="0 0 45 45" fill="none" xmlns="http://www.w3.org/2000/svg">
<path d="M18 23.2463C17.6025 23.2463 17.22 23.4037 16.9425 23.6887C16.6575 23.9737 16.5 24.3488 16.5 24.7463V32.2463C16.5 32.6438 16.6575 33.0262 16.9425 33.3037C17.2275 33.5887 17.6025 33.7463 18 33.7463H37.5C37.8975 33.7463 38.28 33.5887 38.5575 33.3037C38.835 33.0187 39 32.6438 39 32.2463V30.7463C39 26.6063 35.64 23.2463 31.5 23.2463H18Z" fill="white" fill-opacity="0.75"/>
<path d="M10.5 24.7463C8.0175 24.7463 6 26.7638 6 29.2463C6 31.7288 8.0175 33.7463 10.5 33.7463C12.9825 33.7463 15 31.7288 15 29.2463C15 26.7638 12.9825 24.7463 10.5 24.7463Z" fill="white" fill-opacity="0.75"/>
<path fill-rule="evenodd" clip-rule="evenodd" d="M0 43.4963C0 44.2762 0.5925 44.9137 1.35 44.9888C1.4025 44.9888 1.455 44.9963 1.5 44.9963C2.325 44.9963 3 44.3213 3 43.4963V38.2463H42V43.4963C42 44.3213 42.675 44.9963 43.5 44.9963C44.325 44.9963 45 44.3213 45 43.4963V18.4613C45 17.0438 44.3475 15.7088 43.23 14.8388L25.23 0.93375C23.6175 -0.31125 21.3825 -0.31125 19.77 0.93375L1.77 14.8388C0.6525 15.7013 0 17.0438 0 18.4613V43.4963ZM42 18.4613C42 17.9663 41.7675 17.5012 41.3925 17.2162L23.3925 3.30375C22.86 2.89125 22.1325 2.89125 21.6 3.30375L3.6075 17.2162C3.2325 17.5087 3 17.9663 3 18.4613V35.2463H42V18.4613Z" fill="white" fill-opacity="0.75"/>
</svg>
