<svg width="25" height="23" viewBox="0 0 25 23" fill="none" xmlns="http://www.w3.org/2000/svg">
<path d="M10.1623 16.309C10.5465 16.4757 10.9396 16.6202 11.3398 16.742C11.3985 16.76 11.3976 16.7149 11.4084 16.6848C11.5486 16.3073 11.7608 15.9616 12.0327 15.6677C12.3368 15.3158 12.7593 15.0923 13.2172 15.041C13.2347 15.0407 13.2516 15.0341 13.265 15.0225C13.2783 15.0109 13.2872 14.9949 13.2902 14.9773C13.4158 14.5726 13.621 14.198 13.8933 13.8764C13.9065 13.8611 13.9148 13.842 13.9171 13.8217C13.9194 13.8015 13.9156 13.781 13.9061 13.763C13.7866 13.3155 13.837 12.8386 14.0473 12.4271C14.2576 12.0156 14.6124 11.6996 15.0412 11.5417C15.2852 11.4587 15.5458 11.4394 15.799 11.4856C16.0522 11.5318 16.2899 11.6421 16.4902 11.8061C16.5223 11.8312 16.5539 11.8563 16.5924 11.8889C16.6195 11.6922 16.6457 11.5046 16.6714 11.3164C16.7999 10.3859 16.9979 9.46671 17.2636 8.56675C17.3514 8.26921 17.4457 7.97417 17.5513 7.68265C17.5597 7.66273 17.5629 7.64094 17.5606 7.61939C17.5582 7.59785 17.5505 7.57729 17.538 7.55971C17.3518 7.27126 17.1393 7.00129 16.9033 6.75338C16.4947 6.2863 16.043 5.86004 15.5545 5.48041C15.1999 5.21149 14.8109 4.99305 14.3982 4.83112C14.332 4.80453 14.3296 4.82811 14.3281 4.88431C14.3323 5.27435 14.2638 5.66167 14.1262 6.02582C14.0374 6.25558 13.8964 6.4607 13.7147 6.62443C13.6025 6.72629 13.4707 6.80344 13.3278 6.85103C13.1848 6.89862 13.0338 6.91563 12.884 6.90097C12.7343 6.88631 12.5892 6.84031 12.4578 6.76586C12.3264 6.69142 12.2116 6.59013 12.1206 6.46838C11.9367 6.23886 11.8054 5.97063 11.7361 5.68312C11.7223 5.62792 11.71 5.61287 11.6517 5.64248C11.3761 5.80047 11.0547 5.85499 10.7436 5.79652C10.5394 5.75323 10.355 5.64253 10.219 5.48164C10.0831 5.32075 10.0033 5.11868 9.992 4.90689C9.9745 4.4289 10.1329 3.96143 10.4362 3.59578C10.6318 3.34262 10.8594 3.11687 11.1133 2.92442C11.1528 2.89382 11.1562 2.87425 11.1236 2.83461C10.9169 2.59296 10.8048 2.28244 10.8087 1.9622C10.8126 1.64195 10.9323 1.33435 11.1449 1.09801C11.3054 0.89412 11.509 0.729609 11.7407 0.616685C11.9723 0.503762 12.2259 0.445326 12.4828 0.445714C12.7117 0.439464 12.9383 0.493746 13.1404 0.603249C13.3425 0.712752 13.5132 0.873723 13.6357 1.07041C13.7129 1.18449 13.7773 1.30702 13.8277 1.43569C13.8504 1.4954 13.8721 1.50795 13.9328 1.48135C14.1337 1.39258 14.3509 1.34861 14.5699 1.3524C14.7426 1.34596 14.9141 1.38433 15.0681 1.4639C15.2222 1.54347 15.3538 1.66161 15.4505 1.80719C15.5472 1.95276 15.6059 2.12099 15.621 2.296C15.6361 2.47101 15.6071 2.64705 15.5367 2.80751C15.4138 3.10476 15.2387 3.37679 15.02 3.61033C14.9499 3.69012 14.8769 3.76739 14.8034 3.84365C14.7747 3.87326 14.7668 3.88931 14.8132 3.90738C15.7741 4.32346 16.6343 4.94721 17.3342 5.7353C17.5735 5.98317 17.8015 6.24208 18.0211 6.50852C18.0517 6.49196 18.0562 6.46135 18.068 6.43677C18.4395 5.65796 18.9016 4.92734 19.4445 4.26062C19.6154 4.05503 19.8037 3.86498 20.0071 3.69262C20.05 3.65549 20.053 3.63392 20.0194 3.58675C19.7371 3.21381 19.5689 2.76465 19.5358 2.29521C19.5174 2.07297 19.5443 1.84926 19.6147 1.63802C19.6851 1.42679 19.7975 1.23255 19.9449 1.0674C20.04 0.95481 20.1568 0.86332 20.2882 0.798622C20.4195 0.733924 20.5625 0.697403 20.7084 0.691331C20.8542 0.68526 20.9997 0.709768 21.1358 0.76333C21.2719 0.816892 21.3957 0.898363 21.4995 1.00267C21.5548 1.05285 21.5725 1.04733 21.6115 0.986615C21.8812 0.529378 22.3119 0.193571 22.8162 0.0473133C23.0577 -0.0237144 23.3151 -0.014574 23.5511 0.073405C23.7518 0.151888 23.9241 0.290808 24.045 0.47158C24.1659 0.652353 24.2297 0.866356 24.2277 1.08496C24.235 1.42291 24.1684 1.75828 24.0328 2.06691C24.0096 2.12361 24.0155 2.14368 24.0737 2.16726C24.29 2.23883 24.4848 2.36533 24.6395 2.53479C24.7943 2.70426 24.9039 2.91107 24.9581 3.13567C25.0473 3.5098 24.9929 3.90444 24.8058 4.23915C24.6187 4.57385 24.3131 4.82343 23.9513 4.937C23.7676 4.99025 23.5736 4.9956 23.3872 4.95255C23.325 4.9375 23.3142 4.96008 23.3023 5.01076C23.2127 5.43707 23.0119 5.83101 22.721 6.15126C22.476 6.43277 22.1335 6.607 21.765 6.63747C21.5509 6.65457 21.3362 6.61404 21.1424 6.51997C20.9486 6.4259 20.7825 6.2816 20.661 6.10159C20.4477 5.80666 20.331 5.45105 20.3274 5.08502C20.3234 4.99018 20.3274 4.89435 20.3274 4.78396C20.2332 4.87957 20.1457 4.98167 20.0653 5.08953C19.3339 6.05262 18.7707 7.1363 18.4002 8.29329C18.0954 9.21624 17.8664 10.1633 17.7156 11.1247C17.6663 11.4464 17.6224 11.7685 17.5799 12.1127C17.6322 12.041 17.6722 11.9843 17.7142 11.9296C17.9535 11.5927 18.2812 11.331 18.6598 11.1744C18.8305 11.1023 19.0149 11.0693 19.1996 11.0778C19.3843 11.0863 19.565 11.1361 19.7286 11.2236C19.8923 11.3112 20.035 11.4343 20.1466 11.5842C20.2582 11.7341 20.3359 11.9072 20.3743 12.0911C20.4409 12.3411 20.4671 12.6004 20.4517 12.8588C20.4486 12.8752 20.4495 12.8922 20.4544 12.9081C20.4593 12.9241 20.4681 12.9385 20.4799 12.9502C20.6451 13.1064 20.7744 13.2979 20.8585 13.5108C20.9427 13.7237 20.9795 13.9529 20.9665 14.182C20.9635 14.1935 20.963 14.2056 20.965 14.2173C20.9669 14.2291 20.9713 14.2403 20.9778 14.2502L21.1062 14.1298C21.4852 13.7544 21.8919 13.409 22.3227 13.0967C22.6034 12.8891 22.9223 12.7412 23.2604 12.6616C23.5778 12.5906 23.9098 12.639 24.1947 12.7979C24.4797 12.9568 24.6983 13.2154 24.8101 13.5257C24.9433 13.8646 24.9941 14.2313 24.9581 14.5944C24.8552 15.5919 24.447 16.5314 23.7909 17.2804C23.111 18.0662 22.3245 18.7496 21.4551 19.31C20.1702 20.1477 18.7834 20.8116 17.3297 21.2849C16.5702 21.5504 15.8161 21.8304 15.0472 22.0672C14.1748 22.3351 13.284 22.5364 12.3821 22.6693C11.16 22.8589 9.92473 22.9463 8.6886 22.9307C8.11039 22.9155 7.53359 22.8652 6.96126 22.7802C6.25701 22.6798 5.55521 22.5649 4.85392 22.446C4.6768 22.4161 4.50149 22.3761 4.32881 22.3261C4.30478 22.3162 4.27838 22.3137 4.25299 22.3191C4.22759 22.3245 4.20433 22.3374 4.18618 22.3562C3.92887 22.571 3.62133 22.7144 3.29339 22.7727C2.8668 22.8787 2.43262 22.9501 1.99493 22.9864C1.76613 23.0162 1.53373 22.9969 1.31272 22.9297C1.09171 22.8626 0.886989 22.7491 0.711767 22.5966C0.46661 22.3553 0.293918 22.0481 0.213801 21.7109C0.119691 21.3525 0.0626266 20.9851 0.0435349 20.6146C-0.0245715 19.6612 0.00257245 18.7079 0.0228069 17.7545C0.0460026 16.6672 0.0440284 15.5804 0.0104688 14.4931C-0.00641727 14.3654 0.0106234 14.2355 0.0598212 14.1168C0.156069 13.9263 0.32025 13.7803 0.518799 13.7088C1.33655 13.3908 2.18354 13.1569 3.04712 13.0104C3.32953 12.9635 3.61795 12.9689 3.89845 13.0264C4.14763 13.0743 4.37949 13.1896 4.56961 13.3602C4.75973 13.5308 4.90109 13.7504 4.97878 13.9958C5.00345 14.0651 5.02369 14.0676 5.0839 14.0385C6.13952 13.5209 7.15138 12.9157 8.1092 12.2291C8.5595 11.8937 9.05113 11.6197 9.57151 11.4143C10.0166 11.2412 10.4908 11.1589 10.9672 11.1719C11.2421 11.1709 11.5144 11.2262 11.7678 11.3345C12.0213 11.4427 12.2507 11.6018 12.4423 11.8021C12.7317 12.1101 12.8975 12.5168 12.9072 12.9426C12.928 13.3808 12.8441 13.8176 12.6627 14.2156C12.4813 14.6136 12.2077 14.9611 11.8654 15.2282C11.3612 15.6247 10.8189 15.9683 10.2467 16.2538C10.224 16.2658 10.2008 16.2768 10.1781 16.2894C10.1741 16.2919 10.1716 16.2974 10.1623 16.309ZM9.12981 21.9172C10.1344 21.905 11.1371 21.8254 12.1314 21.6788C13.011 21.5543 13.88 21.3617 14.7308 21.1028C15.6009 20.8359 16.4552 20.5233 17.311 20.2137C18.4583 19.8302 19.5574 19.311 20.5855 18.6667C21.2689 18.2401 21.9104 17.7478 22.5014 17.1966C22.9994 16.7405 23.4012 16.1864 23.6824 15.5679C23.8714 15.1717 23.9681 14.7367 23.9651 14.2964C23.9643 14.1394 23.9274 13.9848 23.8576 13.8448C23.8233 13.7705 23.764 13.7111 23.6904 13.6772C23.6169 13.6434 23.5339 13.6373 23.4563 13.6602C23.3386 13.6876 23.2255 13.7326 23.1207 13.7936C22.8877 13.9266 22.6681 14.0828 22.4653 14.2598C22.0434 14.6155 21.6505 15.0034 21.2473 15.3792C20.5778 16.0183 19.8287 16.5652 19.019 17.0059C17.7923 17.637 16.4544 18.0139 15.0832 18.1148C14.4042 18.1742 13.7213 18.1708 13.043 18.1048C12.2306 18.0279 11.4297 17.8559 10.6563 17.592C10.0801 17.3858 9.51626 17.1459 8.96744 16.8734C8.91041 16.8391 8.84634 16.8186 8.78024 16.8137C8.71414 16.8087 8.64781 16.8194 8.58644 16.8448C8.53594 16.8641 8.48393 16.879 8.43098 16.8895C8.14523 16.9643 7.86441 17.0586 7.57274 17.1063C7.49344 17.1201 7.412 17.1138 7.33571 17.0878C7.25943 17.0618 7.19068 17.0169 7.13565 16.9572C7.08062 16.8975 7.04102 16.8249 7.0204 16.7458C6.99979 16.6667 6.9988 16.5837 7.01753 16.5041C7.04085 16.4054 7.09188 16.3156 7.16442 16.2458C7.23696 16.176 7.32789 16.129 7.42616 16.1108C7.69563 16.0345 7.96542 15.9602 8.23554 15.888C8.9728 15.7181 9.68015 15.4345 10.333 15.047C10.6427 14.8655 10.9409 14.6644 11.2258 14.4449C11.4272 14.2875 11.5927 14.0878 11.7111 13.8593C11.8295 13.6309 11.898 13.3791 11.9118 13.1213C11.932 12.9522 11.8978 12.7811 11.8145 12.6335C11.7311 12.4858 11.6031 12.3695 11.4494 12.3019C11.297 12.232 11.1328 12.1925 10.9657 12.1855C10.6054 12.172 10.2462 12.2335 9.91007 12.3661C9.47526 12.5423 9.06417 12.7737 8.68663 13.055C7.87661 13.6366 7.02895 14.1619 6.14942 14.6276C5.8385 14.7886 5.52511 14.9452 5.21172 15.1032C5.19263 15.1096 5.1762 15.1224 5.16502 15.1394C5.15385 15.1564 5.14857 15.1767 5.15003 15.1971C5.15891 16.1073 5.07748 17.0134 5.02122 17.9206C4.97779 18.6271 4.9393 19.3336 4.90179 20.0406C4.88967 20.4296 4.84925 20.8172 4.78087 21.2001C4.74435 21.3853 4.74485 21.3868 4.93337 21.4204C5.62135 21.5434 6.31129 21.6522 7.00223 21.7536C7.70621 21.8638 8.41753 21.9185 9.12981 21.9172ZM1.01726 17.5895C1.01726 17.754 1.01726 17.9186 1.01726 18.0832C0.982382 18.9866 0.99886 19.8913 1.06661 20.7927C1.08702 21.0666 1.14294 21.3365 1.23293 21.5955C1.26417 21.7001 1.32657 21.7923 1.41152 21.8594C1.49646 21.9264 1.59977 21.965 1.70721 21.9699C1.74558 21.9736 1.78414 21.9751 1.82269 21.9744C2.30997 21.9473 2.7928 21.8654 3.2623 21.73C3.37644 21.7012 3.4808 21.6416 3.5643 21.5574C3.6478 21.4732 3.70733 21.3676 3.73658 21.2518C3.82394 20.9431 3.87367 20.6246 3.88463 20.3035C3.90586 19.9804 3.91869 19.6567 3.93744 19.3331C3.97034 18.7751 4.00407 18.2172 4.03861 17.6592C4.06625 17.1981 4.09586 16.7365 4.12202 16.2748C4.16076 15.7771 4.16373 15.2772 4.1309 14.7791C4.12021 14.6121 4.08374 14.4478 4.02282 14.2924C3.99622 14.224 3.95303 14.1637 3.89728 14.1169C3.84153 14.0702 3.77504 14.0385 3.704 14.0249C3.53494 13.9894 3.3608 13.9867 3.19074 14.0169C2.48084 14.131 1.78485 14.3214 1.11448 14.5849C1.0829 14.5936 1.0555 14.6137 1.03735 14.6413C1.0192 14.669 1.01153 14.7024 1.01578 14.7354C1.04736 15.6873 1.0449 16.6381 1.01726 17.5895ZM12.3683 16.9823C12.4004 16.9904 12.4221 16.9974 12.4448 17.0014C12.8205 17.065 13.1995 17.1066 13.5799 17.1258C14.6513 17.1804 15.7246 17.0703 16.7636 16.7992C17.7757 16.5398 18.7302 16.0877 19.5767 15.467C19.6224 15.4346 19.657 15.3885 19.6754 15.335C19.7598 15.1164 19.8313 14.8929 19.8896 14.6657C19.9552 14.4506 19.9791 14.2246 19.9597 14.0003C19.949 13.8913 19.9005 13.7896 19.823 13.7135C19.7454 13.6373 19.6438 13.5916 19.5363 13.5844C19.2289 13.5768 18.9263 13.6626 18.6672 13.8308C18.641 13.8448 18.6371 13.8689 18.6341 13.8965C18.6247 13.9968 18.6158 14.0942 18.602 14.192C18.5819 14.3685 18.5501 14.5433 18.5068 14.7154C18.4774 14.8318 18.4082 14.9338 18.3117 15.0032C18.2151 15.0726 18.0975 15.1049 17.9797 15.0942C17.8663 15.0827 17.7604 15.0313 17.6804 14.9488C17.6004 14.8663 17.5512 14.758 17.5414 14.6426C17.5366 14.5225 17.5483 14.4022 17.576 14.2853C17.624 14.0275 17.6474 13.7655 17.6461 13.5031C17.6482 13.4782 17.641 13.4533 17.6261 13.4335C17.6111 13.4136 17.5894 13.4001 17.5651 13.3957C17.4836 13.3701 17.3967 13.3677 17.3139 13.3887C16.9398 13.4898 16.6172 13.7313 16.4113 14.0646C16.4015 14.0799 16.395 14.097 16.392 14.1149C16.389 14.1329 16.3897 14.1513 16.394 14.1689C16.4531 14.5406 16.4686 14.9181 16.4399 15.2934C16.4372 15.3821 16.4113 15.4684 16.3649 15.5436C16.3185 15.6187 16.2531 15.6799 16.1757 15.7208C16.0983 15.7617 16.0115 15.7808 15.9243 15.7763C15.8372 15.7717 15.7528 15.7436 15.6799 15.6948C15.6054 15.6446 15.5452 15.5754 15.5052 15.4941C15.4652 15.4129 15.4468 15.3224 15.4519 15.2317C15.4593 14.9679 15.4504 14.704 15.4252 14.4414C15.4245 14.4102 15.4173 14.3795 15.4042 14.3512C15.3911 14.323 15.3723 14.2978 15.3491 14.2774C15.3258 14.257 15.2986 14.2418 15.2692 14.2327C15.2399 14.2236 15.2089 14.2208 15.1784 14.2246C15.0948 14.2291 15.0129 14.2505 14.9374 14.2875C14.862 14.3246 14.7946 14.3765 14.7392 14.4404C14.511 14.6756 14.3417 14.9632 14.2457 15.2788C14.2314 15.3225 14.2496 15.3401 14.2768 15.3631C14.415 15.4808 14.5345 15.6194 14.6311 15.7741C14.6704 15.8326 14.6975 15.8986 14.7107 15.9682C14.724 16.0377 14.7231 16.1093 14.7081 16.1785C14.6923 16.2679 14.6512 16.3507 14.5899 16.4167C14.5285 16.4828 14.4496 16.5292 14.3626 16.5503C14.2729 16.5766 14.1777 16.576 14.0883 16.5485C13.9989 16.5211 13.9192 16.4681 13.8588 16.3958C13.7931 16.326 13.7369 16.2452 13.6727 16.1765C13.6273 16.1242 13.5693 16.0849 13.5044 16.0624C13.4395 16.0399 13.3699 16.0349 13.3026 16.048C13.2132 16.0603 13.1269 16.0893 13.0479 16.1333C12.7385 16.336 12.5009 16.6333 12.3683 16.9823ZM21.3297 4.97312C21.3297 5.01728 21.3268 5.06194 21.3297 5.10609C21.3352 5.25348 21.386 5.39542 21.4748 5.51202C21.5117 5.56752 21.5681 5.60644 21.6325 5.62065C21.6969 5.63486 21.7641 5.62326 21.8203 5.58828C21.8806 5.55853 21.9353 5.51809 21.9817 5.46887C22.1479 5.2892 22.2639 5.06764 22.3178 4.82711C22.3644 4.57845 22.3959 4.32708 22.412 4.07447C22.4182 3.9664 22.4562 3.86273 22.5212 3.77699C22.5862 3.69124 22.675 3.62739 22.7762 3.59378C22.877 3.55897 22.9859 3.55633 23.0882 3.58619C23.1905 3.61605 23.2814 3.677 23.3487 3.76086C23.3908 3.81344 23.4376 3.86198 23.4884 3.90587C23.5249 3.93767 23.5703 3.95701 23.6182 3.96115C23.6662 3.96529 23.7141 3.95403 23.7554 3.92895C23.8395 3.87956 23.9074 3.80604 23.9506 3.71758C23.9938 3.62913 24.0104 3.52969 23.9982 3.43171C23.9869 3.24907 23.859 3.16979 23.711 3.11259C23.6036 3.07734 23.4937 3.0505 23.3823 3.0323C23.2573 3.01838 23.1395 2.96622 23.0443 2.88272C22.9491 2.79922 22.8811 2.68831 22.8493 2.56466C22.8156 2.4075 22.8382 2.24329 22.913 2.10153C22.9895 1.93595 23.0817 1.7784 23.1419 1.60579C23.203 1.44734 23.2325 1.27816 23.2288 1.10804C23.2254 1.04582 23.2012 1.02023 23.1385 1.02324C23.0667 1.02773 22.9966 1.04792 22.9332 1.08245C22.7115 1.19715 22.5297 1.37801 22.412 1.60077C22.3297 1.75719 22.2569 1.91856 22.1939 2.08397C22.1612 2.17476 22.119 2.26173 22.068 2.34338C22.0207 2.41718 21.9563 2.47801 21.8804 2.52055C21.8046 2.56308 21.7196 2.58599 21.633 2.58728C21.5463 2.58857 21.4607 2.56819 21.3837 2.52793C21.3066 2.48768 21.2405 2.42878 21.191 2.35643C21.1422 2.28291 21.1003 2.20478 21.0662 2.12311C21.0153 2.00304 20.9474 1.89114 20.8648 1.79094C20.7706 1.68457 20.7138 1.69059 20.6378 1.81051C20.5504 1.95381 20.5155 2.12382 20.5391 2.2907C20.5694 2.50302 20.6438 2.70638 20.7572 2.88729C20.7976 2.96008 20.8527 3.0234 20.9187 3.07311C20.9848 3.12282 21.0604 3.15782 21.1407 3.17581C21.247 3.20068 21.3419 3.26115 21.4103 3.34752C21.4787 3.43388 21.5166 3.54112 21.5178 3.65198C21.5149 3.83204 21.4909 4.01111 21.4462 4.18536C21.3804 4.44307 21.3413 4.70711 21.3297 4.97312ZM12.4172 1.46078C12.3087 1.47255 12.2042 1.5084 12.1109 1.5658C12.0176 1.6232 11.9378 1.70075 11.8773 1.79295C11.8525 1.82348 11.8339 1.85867 11.8226 1.89651C11.8112 1.93435 11.8073 1.97409 11.8111 2.01347C11.8148 2.05285 11.8262 2.09108 11.8445 2.126C11.8628 2.16091 11.8877 2.19181 11.9177 2.21694C11.9936 2.28744 12.0744 2.35218 12.1596 2.41062C12.2745 2.49218 12.3588 2.6111 12.3984 2.7478C12.4324 2.86973 12.4273 2.99949 12.3839 3.11829C12.3405 3.23708 12.2611 3.33877 12.1571 3.40863C12.0539 3.49091 11.9429 3.56217 11.8368 3.63994C11.6009 3.80409 11.3908 4.00353 11.2135 4.23152C11.0977 4.37901 11.0209 4.55415 10.9904 4.7403C10.9825 4.797 10.9953 4.81105 11.0501 4.7955C11.1706 4.75781 11.2844 4.70072 11.3872 4.6264C11.4943 4.55415 11.5964 4.47588 11.7045 4.40463C11.8184 4.32583 11.9568 4.29227 12.0934 4.31029C12.2157 4.32634 12.3295 4.38234 12.4177 4.46986C12.5059 4.55737 12.5637 4.67165 12.5825 4.7955C12.6151 4.94603 12.6319 5.09907 12.662 5.2501C12.6877 5.44484 12.7585 5.63059 12.8688 5.792C12.9625 5.91594 13.0296 5.91393 13.1195 5.78548C13.1793 5.69723 13.2228 5.5986 13.2478 5.49446C13.3341 5.12525 13.3573 4.7437 13.3164 4.36649C13.3037 4.24155 13.3247 4.11545 13.3771 4.00171C13.4861 3.7824 13.6318 3.58394 13.8074 3.41515C13.9886 3.2295 14.1761 3.05087 14.3414 2.85016C14.4426 2.73528 14.5258 2.60532 14.5882 2.46481C14.6252 2.376 14.6139 2.36195 14.5176 2.36747C14.4226 2.37481 14.3302 2.40215 14.2462 2.44775C14.1568 2.49341 14.069 2.54359 13.9772 2.58323C13.827 2.6569 13.6548 2.66958 13.4957 2.61868C13.3366 2.56778 13.2026 2.45712 13.1209 2.30926C13.0721 2.22658 13.03 2.13999 12.9951 2.05035C12.9437 1.90823 12.8799 1.77104 12.8046 1.64041C12.7634 1.57627 12.7051 1.52534 12.6365 1.49354C12.5679 1.46174 12.4919 1.45038 12.4172 1.46078ZM15.5185 12.4785C15.4731 12.485 15.4267 12.4875 15.3823 12.4986C15.2339 12.547 15.1034 12.6401 15.0081 12.7655C14.9129 12.8909 14.8573 13.0428 14.8488 13.201C14.8488 13.2512 14.8764 13.2412 14.9026 13.2362C15.1575 13.1808 15.4229 13.2037 15.6651 13.3019C15.6927 13.3129 15.711 13.3139 15.7312 13.2878C15.8336 13.1571 15.9494 13.0379 16.0767 12.9321C16.0989 12.913 16.0984 12.8975 16.0875 12.8719C16.0374 12.7595 15.9577 12.6634 15.8573 12.5941C15.7569 12.5248 15.6397 12.4845 15.5185 12.4785ZM19.1706 12.0936C19.0733 12.0965 18.9787 12.1265 18.8971 12.1805C18.6907 12.3136 18.5184 12.4947 18.3942 12.7088C18.3862 12.7186 18.3821 12.7312 18.3828 12.744C18.3835 12.7568 18.389 12.7688 18.3982 12.7776C18.4239 12.8097 18.4475 12.8026 18.4786 12.7891C18.7686 12.6553 19.081 12.5787 19.3991 12.5633C19.4351 12.5633 19.4514 12.5518 19.4445 12.5131C19.4303 12.4044 19.3945 12.2998 19.3393 12.2055C19.3231 12.1737 19.299 12.1468 19.2694 12.1273C19.2398 12.1077 19.2058 12.0958 19.1706 12.0936Z" fill="#016A7C"/>
<path d="M22.0661 3.72524C21.9311 3.7243 21.8017 3.67046 21.7048 3.57494C21.6079 3.47941 21.551 3.34956 21.5459 3.21244C21.542 3.0806 21.5893 2.95251 21.6776 2.85589C21.7659 2.75926 21.8881 2.70187 22.0177 2.69612C22.0865 2.69479 22.155 2.70737 22.219 2.73313C22.283 2.7589 22.3414 2.79733 22.3907 2.8462C22.44 2.89506 22.4793 2.9534 22.5062 3.01782C22.5332 3.08224 22.5473 3.15146 22.5477 3.22147C22.5492 3.28684 22.5378 3.35186 22.5143 3.41272C22.4908 3.47358 22.4556 3.52908 22.4107 3.57597C22.3659 3.62286 22.3123 3.6602 22.2532 3.68583C22.194 3.71146 22.1304 3.72486 22.0661 3.72524Z" fill="#016A7C"/>
<path d="M12.3481 3.4011C12.3465 3.32919 12.3589 3.25767 12.3846 3.19064C12.4102 3.1236 12.4486 3.06237 12.4976 3.01045C12.5465 2.95853 12.6051 2.91694 12.6699 2.88806C12.7347 2.85917 12.8044 2.84357 12.8752 2.84213C12.9395 2.84278 13.003 2.8564 13.0621 2.88219C13.1212 2.90798 13.1747 2.94543 13.2194 2.99238C13.2642 3.03933 13.2993 3.09484 13.3228 3.15569C13.3463 3.21655 13.3577 3.28154 13.3563 3.34691C13.3573 3.49049 13.3033 3.62881 13.2056 3.73251C13.1079 3.83622 12.9743 3.89714 12.8332 3.90236C12.7688 3.90244 12.705 3.88946 12.6456 3.8642C12.5862 3.83894 12.5324 3.80189 12.4872 3.75522C12.442 3.70855 12.4065 3.6532 12.3826 3.5924C12.3587 3.53159 12.347 3.46656 12.3481 3.4011Z" fill="#016A7C"/>
</svg>
