<svg width="45" height="40" viewBox="0 0 45 40" fill="none" xmlns="http://www.w3.org/2000/svg">
<path fill-rule="evenodd" clip-rule="evenodd" d="M22.5 39.1667C22.5 39.1667 45 31.1415 45 14.6045C45 -1.93246 27.347 -3.98713 22.5 6.22412C17.6531 -3.98713 0 -1.93246 0 14.6045C0 31.1415 22.5 39.1667 22.5 39.1667ZM22.8689 32.9521C22.2997 33.1557 21.673 32.8597 21.4684 32.2894C21.2652 31.719 21.5606 31.0909 22.1297 30.8859C22.1484 30.8787 28.8425 28.4905 33.361 23.613C33.7731 23.1683 34.4675 23.1437 34.9113 23.5567C35.3551 23.9696 35.3796 24.6656 34.9675 25.1103C30.0903 30.3733 22.889 32.9435 22.8689 32.9507V32.9521ZM38.6042 19.3636C38.3952 19.9339 37.7642 20.227 37.195 20.0177C36.6259 19.8083 36.3334 19.1759 36.5423 18.6056C36.7729 17.9789 36.9544 17.3349 37.0754 16.6765C37.1965 16.0224 37.2613 15.3322 37.2613 14.6031C37.2613 13.9952 37.7541 13.5014 38.3607 13.5014C38.9672 13.5014 39.46 13.9952 39.46 14.6031C39.46 15.4434 39.3793 16.2664 39.2324 17.0736C39.084 17.8749 38.8722 18.6373 38.6056 19.3636H38.6042Z" fill="white" fill-opacity="0.75"/>
</svg>
