<svg width="45" height="45" viewBox="0 0 45 45" fill="none" xmlns="http://www.w3.org/2000/svg">
<path d="M16.7414 5.30859C16.7414 2.38359 19.125 0 22.05 0C24.975 0 27.3656 2.38359 27.3656 5.30859C27.3656 8.23358 24.982 10.6172 22.05 10.6172C19.125 10.6172 16.7414 8.23358 16.7414 5.30859Z" fill="white" fill-opacity="0.75"/>
<path d="M31.275 18.0492C31.1484 17.8312 31.1484 17.564 31.275 17.3461L36.5976 8.13515C36.8437 7.69921 37.5609 7.69921 37.814 8.13515L43.1296 17.3461C43.2562 17.564 43.2562 17.8312 43.1296 18.0492C43.0031 18.2672 42.771 18.4008 42.5179 18.4008H31.8867C31.6336 18.4008 31.4015 18.2672 31.275 18.0492Z" fill="white" fill-opacity="0.75"/>
<path d="M17.9437 21.0094C17.9437 18.1758 20.257 15.8625 23.0976 15.8625C25.9383 15.8625 28.2515 18.1758 28.2515 21.0094C28.2515 23.8429 25.9383 26.1633 23.0976 26.1633C20.257 26.1633 17.9437 23.85 17.9437 21.0094Z" fill="white" fill-opacity="0.75"/>
<path d="M9.90702 19.35H0.703124C0.309375 19.35 0 19.0406 0 18.6469V9.43593C0 9.04921 0.309375 8.7328 0.703124 8.7328H9.90702C10.3008 8.7328 10.6101 9.04921 10.6101 9.43593V18.6469C10.6101 19.0406 10.3008 19.35 9.90702 19.35Z" fill="white" fill-opacity="0.75"/>
<path d="M44.7257 28.7437C44.7257 28.7437 44.6906 28.807 44.6695 28.8351L39.0023 36.5976C38.6367 37.2656 37.9406 37.6804 37.1742 37.6804C36.7664 37.6804 36.3726 37.5679 36.0351 37.3429L30.4664 33.7148V43.4531C30.4664 43.8398 30.15 44.1562 29.7633 44.1562H14.4492C14.0625 44.1562 13.7461 43.8398 13.7461 43.4531V33.7289L8.43046 37.0617C8.02265 37.3218 7.55156 37.4554 7.07343 37.4554C6.08203 37.4554 5.16796 36.8789 4.74609 35.9789L1.43437 28.9757C0.991405 28.0406 1.18125 26.9156 1.91953 26.1773C2.38359 25.7133 3.00234 25.4601 3.65625 25.4601C4.64062 25.4601 5.53359 26.0367 5.92031 26.9437L7.98046 31.6828L13.275 28.0054C13.718 27.6961 14.2453 27.5273 14.7867 27.5203L29.8125 27.3304C30.4172 27.3304 30.9656 27.5062 31.4297 27.8367L36.7523 31.6687L40.2609 26.5711C41.3296 25.2211 42.5179 24.8343 43.6218 25.3828C44.2195 25.6851 44.6624 26.1984 44.8734 26.8312C45.0773 27.464 45.0281 28.1461 44.7257 28.7437Z" fill="white" fill-opacity="0.75"/>
</svg>
