<svg width="40" height="46" viewBox="0 0 40 46" fill="none" xmlns="http://www.w3.org/2000/svg">
<path fill-rule="evenodd" clip-rule="evenodd" d="M8.96985 11.4542C8.21021 11.4542 7.43738 11.8237 6.97996 12.6323L0.214856 24.5534C-0.805533 26.5238 2.064 28.1895 3.46452 26.0105L8.00664 19.5922L6.75 27.3551L4.97688 43.665C5.08495 45.756 9.09049 45.7428 9.33553 43.665L11.8488 33.0232C11.8884 32.682 12.1171 32.398 12.4671 32.398C12.817 32.398 13.047 32.682 13.086 33.0232L14.3426 43.665C14.5883 45.7428 18.5932 45.756 18.7012 43.665L18.1841 28.6149L19.4408 15.7243H20.5466L21.8033 28.6149L21.2874 43.665C21.3955 45.756 25.401 45.7428 25.6461 43.665L26.9027 33.0232C26.9423 32.682 27.171 32.398 27.5241 32.398C27.8741 32.398 28.1003 32.682 28.1424 33.0232L30.6556 43.665C30.8975 45.7428 34.9075 45.756 35.0143 43.665L33.2405 27.3545L31.9839 19.5916L36.5229 26.0099C37.9234 28.1889 40.7936 26.5232 39.7725 24.5528L33.0118 12.6317C32.5538 11.8231 31.781 11.4536 31.0219 11.4536H30.0795C28.9793 12.1178 27.6573 12.501 26.2668 12.501C24.8726 12.501 23.5506 12.1184 22.4511 11.4536H17.5357C16.4399 12.1178 15.1173 12.501 13.7231 12.501C12.3288 12.501 11.0069 12.1184 9.91107 11.4536L8.96985 11.4542Z" fill="white" fill-opacity="0.75"/>
<path fill-rule="evenodd" clip-rule="evenodd" d="M13.7238 0C16.6888 0 19.0745 2.03827 19.0745 4.57165V6.44341C19.0745 8.97365 16.6888 11.0119 13.7238 11.0119C10.7587 11.0119 8.37362 8.97365 8.37362 6.44341V4.57165C8.37425 2.03827 10.7593 0 13.7238 0Z" fill="white" fill-opacity="0.75"/>
<path fill-rule="evenodd" clip-rule="evenodd" d="M26.2674 0C23.3024 0 20.9167 2.03827 20.9167 4.57165V6.44341C20.9167 8.97365 23.3024 11.0119 26.2674 11.0119C29.2287 11.0119 31.6182 8.97365 31.6182 6.44341V4.57165C31.6182 2.03827 29.2293 0 26.2674 0Z" fill="white" fill-opacity="0.75"/>
</svg>
