<svg width="45" height="42" viewBox="0 0 45 42" fill="none" xmlns="http://www.w3.org/2000/svg">
<path d="M28.1004 10.9752C30.2292 10.9752 31.9322 9.27218 31.9322 7.14336C31.9322 5.01455 30.2292 3.31149 28.1004 3.31149C25.9716 3.31149 24.2685 5.01455 24.2685 7.14336C24.2212 9.27218 25.9716 10.9752 28.1004 10.9752Z" fill="white" fill-opacity="0.75"/>
<path d="M14.949 24.647L18.8282 26.965C19.6324 27.4381 20.5786 27.7219 21.5247 27.7219H41.9613C42.8602 27.7219 43.6171 26.965 43.6171 26.1135C43.6171 25.3093 43.0021 24.5997 42.1979 24.505L25.9242 22.2343C25.8296 22.2343 25.7823 22.187 25.6877 22.187L24.5997 22.6601C24.1739 22.8493 23.7008 22.8966 23.2751 22.8966C21.9032 22.8966 20.5786 22.0924 20.0582 20.7205C19.9636 20.5312 19.9163 20.342 19.869 20.1055L17.5982 19.2067C16.6048 18.8282 15.4694 19.0174 14.6179 19.6797C12.9148 21.0043 13.104 23.5589 14.949 24.647Z" fill="white" fill-opacity="0.75"/>
<path d="M9.74525 21.4301C11.8741 21.4301 13.5771 19.727 13.5771 17.5982C13.5771 15.4694 11.8741 13.7663 9.74525 13.7663C7.61643 13.7663 5.91338 15.4694 5.91338 17.5982C5.86607 19.727 7.61643 21.4301 9.74525 21.4301Z" fill="white" fill-opacity="0.75"/>
<path d="M43.6171 29.6615H21.2409C19.9636 29.6615 18.7336 29.3304 17.6455 28.7154L4.16302 20.8624V18.4497C4.16302 17.3144 3.21688 16.3682 2.08151 16.3682C0.946141 16.3682 0 17.3144 0 18.4497V38.981C0 40.1164 0.946141 41.0625 2.08151 41.0625C3.21688 41.0625 4.16302 40.1164 4.16302 38.981V35.8587H40.826V38.981C40.826 40.1164 41.7721 41.0625 42.9075 41.0625C44.0428 41.0625 44.989 40.1164 44.989 38.981V31.0334C44.989 30.2765 44.374 29.6615 43.6171 29.6615Z" fill="white" fill-opacity="0.75"/>
<path d="M23.3224 20.957C23.5116 20.957 23.7481 20.9097 23.9374 20.8151L28.4788 18.9701C28.8573 18.8282 29.1411 18.5444 29.3304 18.1659L29.5196 17.7401L29.8034 20.9097L36.9468 21.9032C36.3318 17.2198 34.7234 13.8137 33.6353 11.9214C33.1149 11.0225 32.1215 10.8333 31.128 11.1172C30.2765 11.401 29.1411 11.8268 29.1411 11.8268C28.7627 11.9687 28.4788 12.2525 28.2896 12.631L26.6339 16.2263L22.6601 17.8347C21.8558 18.1659 21.4301 19.112 21.7612 19.9636C22.0924 20.5786 22.6601 20.957 23.3224 20.957Z" fill="white" fill-opacity="0.75"/>
<path d="M15.1382 0C12.1579 0 9.74525 2.45997 9.74525 5.44031C9.74525 8.42065 12.1579 10.8333 15.1382 10.8333C18.1186 10.8333 20.5312 8.42065 20.5312 5.44031C20.5312 2.45997 18.1186 0 15.1382 0ZM17.3144 6.14991H15.1382C14.7125 6.14991 14.3813 5.81876 14.3813 5.393V2.36535C14.3813 1.93959 14.7125 1.60844 15.1382 1.60844C15.564 1.60844 15.8952 1.93959 15.8952 2.36535V4.63609H17.3144C17.7401 4.63609 18.0713 4.96724 18.0713 5.393C18.0713 5.81876 17.7401 6.14991 17.3144 6.14991Z" fill="white" fill-opacity="0.75"/>
</svg>
